{
.appVersion = "939";
DisplayStrings = (
"f apfell\012afilesto STARFUNKEL",
WMN
);
date = "2018-02-22 19:35:07 +0000";
familyName = Messapia;
featurePrefixes = (
{
automatic = 1;
code = "languagesystem DFLT dflt;\012";
name = Languagesystems;
}
);
features = (
{
automatic = 1;
code = "feature ccmp;\012feature case;\012";
name = aalt;
},
{
automatic = 1;
code = "lookup ccmp_Other_1 {\012	@CombiningTopAccents = [acutecomb circumflexcomb dieresiscomb gravecomb ringcomb tildecomb];\012	@CombiningNonTopAccents = [cedillacomb];\012	sub [i]' @CombiningTopAccents by [idotless];\012	sub [i]' @CombiningNonTopAccents @CombiningTopAccents by [idotless];\012} ccmp_Other_1;\012";
name = ccmp;
},
{
automatic = 1;
code = "sub upArrow by upArrow.case;\012sub northEastArrow by northEastArrow.case;\012sub rightArrow by rightArrow.case;\012sub southEastArrow by southEastArrow.case;\012sub downArrow by downArrow.case;\012sub southWestArrow by southWestArrow.case;\012sub leftArrow by leftArrow.case;\012sub northWestArrow by northWestArrow.case;\012sub leftRightArrow by leftRightArrow.case;\012sub upDownArrow by upDownArrow.case;\012";
name = case;
}
);
fontMaster = (
{
ascender = 700;
capHeight = 650;
descender = -200;
id = "E5E720F2-D3D9-49CA-89B4-644343A24549";
xHeight = 500;
},
{
ascender = 750;
capHeight = 650;
descender = -200;
guideLines = (
{
angle = 180;
position = "{1098, 734}";
}
);
id = "02A3FD94-E825-4850-93A1-2C4DF2FA59C6";
weight = Bold;
weightValue = 600;
width = Extended;
widthValue = 600;
xHeight = 500;
}
);
glyphs = (
{
glyphname = A;
lastChange = "2019-02-11 21:58:47 +0000";
layers = (
{
anchors = (
{
name = bottom;
position = "{548, 0}";
},
{
name = ogonek;
position = "{929, 10}";
},
{
name = top;
position = "{548, 650}";
}
);
layerId = "E5E720F2-D3D9-49CA-89B4-644343A24549";
paths = (
{
closed = 1;
nodes = (
"317 0 LINE",
"317 4 LINE",
"207 75 LINE",
"275 190 LINE",
"759 190 LINE",
"825 75 LINE",
"721 4 LINE",
"721 0 LINE",
"1080 0 LINE",
"1080 4 LINE",
"921 75 LINE",
"556 700 LINE",
"461 700 LINE",
"505 625 LINE",
"179 75 LINE",
"15 4 LINE",
"15 0 LINE"
);
},
{
closed = 1;
nodes = (
"521 598 LINE",
"744 215 LINE",
"289 215 LINE"
);
}
);
width = 1095;
},
{
anchors = (
{
name = bottom;
position = "{505, 0}";
},
{
name = ogonek;
position = "{909, 10}";
},
{
name = top;
position = "{505, 650}";
}
);
layerId = "02A3FD94-E825-4850-93A1-2C4DF2FA59C6";
paths = (
{
closed = 1;
nodes = (
"187 0 LINE",
"191 6 LINE",
"208 36 LINE",
"273 161 LINE",
"735 161 LINE",
"804 28 LINE",
"817 5 LINE",
"819 0 LINE",
"1010 0 LINE",
"1007 6 LINE",
"984 45 LINE",
"586 734 LINE",
"423 734 LINE",
"403 700 LINE",
"24 42 LINE",
"3 6 LINE",
"0 0 LINE"
);
},
{
closed = 1;
nodes = (
"503 588 LINE",
"666 279 LINE",
"340 279 LINE"
);
}
);
width = 1010;
}
);
unicode = 0041;
},
{
glyphname = Aacute;
lastChange = "2019-02-10 23:51:53 +0000";
layers = (
{
components = (
{
name = A;
},
{
name = acutecomb;
transform = "{1, 0, 0, 1, 385, 150}";
}
);
layerId = "E5E720F2-D3D9-49CA-89B4-644343A24549";
width = 1095;
},
{
anchors = (
{
name = _top;
position = "{504.5, 650}";
},
{
name = top;
position = "{504.5, 1150}";
}
);
components = (
{
name = A;
}
);
layerId = "02A3FD94-E825-4850-93A1-2C4DF2FA59C6";
paths = (
{
closed = 1;
nodes = (
"432 800 LINE",
"588 800 LINE",
"759 1010 LINE",
"757 1013 LINE",
"552 1013 LINE",
"430 803 LINE"
);
}
);
width = 1010;
}
);
unicode = 00C1;
},
{
glyphname = Agrave;
lastChange = "2019-02-10 23:51:53 +0000";
layers = (
{
components = (
{
name = A;
},
{
name = gravecomb;
transform = "{1, 0, 0, 1, 385, 169}";
}
);
layerId = "E5E720F2-D3D9-49CA-89B4-644343A24549";
width = 1095;
},
{
anchors = (
{
name = _top;
position = "{505, 650}";
},
{
name = top;
position = "{505, 1150}";
}
);
components = (
{
name = A;
}
);
layerId = "02A3FD94-E825-4850-93A1-2C4DF2FA59C6";
paths = (
{
closed = 1;
nodes = (
"579 803 LINE",
"457 1013 LINE",
"252 1013 LINE",
"250 1010 LINE",
"421 800 LINE",
"577 800 LINE"
);
}
);
width = 1010;
}
);
unicode = 00C0;
},
{
glyphname = AE;
lastChange = "2018-12-29 21:15:39 +0000";
layers = (
{
layerId = "E5E720F2-D3D9-49CA-89B4-644343A24549";
paths = (
{
closed = 1;
nodes = (
"252 0 LINE",
"252 4 LINE",
"142 75 LINE",
"220 190 LINE",
"534 190 LINE",
"534 75 LINE",
"426 4 LINE",
"426 -1 LINE",
"1018 -1 LINE",
"1041 -51 LINE",
"1054 -51 LINE",
"1233 256 LINE",
"1229 256 LINE",
"990 29 LINE",
"619 29 LINE",
"619 367 LINE",
"963 367 LINE",
"1023 241 LINE",
"1040 241 LINE",
"1040 512 LINE",
"1023 512 LINE",
"963 387 LINE",
"619 387 LINE",
"619 673 LINE",
"958 673 LINE",
"1187 490 LINE",
"1191 494 LINE",
"1018 732 LINE",
"1014 732 LINE",
"971 698 LINE",
"541 700 LINE",
"426 700 LINE",
"431 699 LINE",
"431 695 LINE",
"516 637 LINE",
"114 75 LINE",
"-50 4 LINE",
"-50 0 LINE"
);
},
{
closed = 1;
nodes = (
"534 624 LINE",
"534 215 LINE",
"238 215 LINE"
);
}
);
width = 1248;
},
{
layerId = "02A3FD94-E825-4850-93A1-2C4DF2FA59C6";
paths = (
{
closed = 1;
nodes = (
"935 284 LINE",
"581 284 LINE",
"857 575 LINE",
"935 575 LINE"
);
},
{
closed = 1;
nodes = (
"935 0 LINE",
"1819 0 LINE",
"1819 150 LINE",
"1125 150 LINE",
"1125 320 LINE",
"1775 320 LINE",
"1775 449 LINE",
"1125 449 LINE",
"1125 585 LINE",
"1819 585 LINE",
"1819 734 LINE",
"775 734 LINE",
"75 0 LINE",
"310 0 LINE",
"458 156 LINE",
"935 156 LINE"
);
}
);
width = 1894;
}
);
unicode = 00C6;
},
{
glyphname = B;
lastChange = "2019-03-18 22:02:33 +0000";
layers = (
{
layerId = "E5E720F2-D3D9-49CA-89B4-644343A24549";
paths = (
{
closed = 1;
nodes = (
"35 4 LINE",
"163 74 LINE",
"164 625 LINE",
"35 696 LINE",
"35 700 LINE",
"419 700 LINE",
"708 700 OFFCURVE",
"830 646 OFFCURVE",
"830 528 CURVE",
"830 413 OFFCURVE",
"708 361 OFFCURVE",
"419 361 CURVE",
"243 361 LINE",
"243 0 LINE",
"35 0 LINE"
);
},
{
closed = 1;
nodes = (
"243 378 LINE",
"419 378 LINE",
"632 378 OFFCURVE",
"730 425 OFFCURVE",
"730 529 CURVE SMOOTH",
"730 633 OFFCURVE",
"632 680 OFFCURVE",
"419 680 CURVE",
"243 680 LINE"
);
},
{
closed = 1;
nodes = (
"228 0 LINE",
"228 372 LINE",
"419 372 LINE SMOOTH",
"731 372 OFFCURVE",
"864 314 OFFCURVE",
"864 186 CURVE",
"864 58 OFFCURVE",
"740 0 OFFCURVE",
"447 0 CURVE"
);
},
{
closed = 1;
nodes = (
"243 23 LINE",
"419 23 LINE",
"639 23 OFFCURVE",
"740 75 OFFCURVE",
"740 188 CURVE SMOOTH",
"740 305 OFFCURVE",
"639 358 OFFCURVE",
"419 358 CURVE",
"243 358 LINE"
);
}
);
width = 909;
},
{
associatedMasterId = "02A3FD94-E825-4850-93A1-2C4DF2FA59C6";
layerId = "49A55B6C-5AA9-4F3F-8076-FBD89EE0087A";
name = "Bold Extended Feb 15 19, 18:15";
paths = (
{
closed = 1;
nodes = (
"252 428 LINE",
"531 428 LINE SMOOTH",
"683 428 OFFCURVE",
"744 456 OFFCURVE",
"744 526 CURVE SMOOTH",
"744 592 OFFCURVE",
"675 619 OFFCURVE",
"501 619 CURVE SMOOTH",
"252 619 LINE"
);
},
{
closed = 1;
nodes = (
"253 124 LINE",
"522 124 LINE SMOOTH",
"700 124 OFFCURVE",
"766 148 OFFCURVE",
"766 228 CURVE SMOOTH",
"766 298 OFFCURVE",
"690 325 OFFCURVE",
"522 325 CURVE SMOOTH",
"253 325 LINE"
);
},
{
closed = 1;
nodes = (
"80 734 LINE",
"531 734 LINE SMOOTH",
"815 734 OFFCURVE",
"928 678 OFFCURVE",
"928 537 CURVE SMOOTH",
"928 440 OFFCURVE",
"848 393 OFFCURVE",
"782 379 CURVE",
"860 365 OFFCURVE",
"954 304 OFFCURVE",
"954 208 CURVE SMOOTH",
"954 60 OFFCURVE",
"837 0 OFFCURVE",
"582 0 CURVE SMOOTH",
"81 0 LINE",
"81 368 LINE",
"80 368 LINE"
);
}
);
width = 1034;
},
{
layerId = "02A3FD94-E825-4850-93A1-2C4DF2FA59C6";
paths = (
{
closed = 1;
nodes = (
"80 734 LINE",
"531 734 LINE SMOOTH",
"818 734 OFFCURVE",
"933 679 OFFCURVE",
"933 541 CURVE SMOOTH",
"933 467 OFFCURVE",
"900 420 OFFCURVE",
"819 377 CURVE",
"915 333 OFFCURVE",
"954 282 OFFCURVE",
"954 199 CURVE SMOOTH",
"954 57 OFFCURVE",
"841 0 OFFCURVE",
"557 0 CURVE SMOOTH",
"81 0 LINE"
);
},
{
closed = 1;
nodes = (
"571 443 LINE SMOOTH",
"689 443 OFFCURVE",
"736 468 OFFCURVE",
"736 532 CURVE SMOOTH",
"736 591 OFFCURVE",
"689 614 OFFCURVE",
"571 614 CURVE SMOOTH",
"252 614 LINE",
"252 443 LINE"
);
},
{
closed = 1;
nodes = (
"611 129 LINE SMOOTH",
"715 129 OFFCURVE",
"757 156 OFFCURVE",
"757 225 CURVE SMOOTH",
"757 293 OFFCURVE",
"715 320 OFFCURVE",
"611 320 CURVE SMOOTH",
"253 320 LINE",
"253 129 LINE"
);
}
);
width = 994;
}
);
unicode = 0042;
},
{
glyphname = C;
lastChange = "2019-02-15 17:20:10 +0000";
layers = (
{
anchors = (
{
name = bottom;
position = "{406, 0}";
},
{
name = top;
position = "{406, 650}";
}
);
layerId = "E5E720F2-D3D9-49CA-89B4-644343A24549";
paths = (
{
closed = 1;
nodes = (
"694 89 OFFCURVE",
"577 25 OFFCURVE",
"460 24 CURVE SMOOTH",
"310 23 OFFCURVE",
"161 128 OFFCURVE",
"128 336 CURVE SMOOTH",
"95 544 OFFCURVE",
"198 687 OFFCURVE",
"409 687 CURVE SMOOTH",
"523 687 OFFCURVE",
"691 568 OFFCURVE",
"787 446 CURVE",
"791 450 LINE",
"668 709 LINE",
"664 709 LINE",
"620 657 LINE",
"593 670 OFFCURVE",
"499 711 OFFCURVE",
"409 711 CURVE SMOOTH",
"198 711 OFFCURVE",
"-6 541 OFFCURVE",
"23 295 CURVE SMOOTH",
"47 88 OFFCURVE",
"219 -13 OFFCURVE",
"395 -16 CURVE SMOOTH",
"549 -19 OFFCURVE",
"707 53 OFFCURVE",
"773 194 CURVE",
"759 217 LINE"
);
}
);
width = 826;
},
{
anchors = (
{
name = bottom;
position = "{522, 0}";
},
{
name = top;
position = "{522, 650}";
}
);
layerId = "02A3FD94-E825-4850-93A1-2C4DF2FA59C6";
paths = (
{
closed = 1;
nodes = (
"869 160 OFFCURVE",
"722 124 OFFCURVE",
"577 124 CURVE SMOOTH",
"364 124 OFFCURVE",
"222 218 OFFCURVE",
"222 360 CURVE SMOOTH",
"222 501 OFFCURVE",
"364 595 OFFCURVE",
"577 595 CURVE SMOOTH",
"692 595 OFFCURVE",
"835 545 OFFCURVE",
"934 471 CURVE",
"937 481 LINE",
"975 594 LINE",
"979 609 LINE",
"984 628 LINE",
"896 701 OFFCURVE",
"733 750 OFFCURVE",
"575 750 CURVE SMOOTH",
"254 750 OFFCURVE",
"40 594 OFFCURVE",
"40 360 CURVE SMOOTH",
"40 126 OFFCURVE",
"254 -30 OFFCURVE",
"575 -30 CURVE SMOOTH",
"736 -30 OFFCURVE",
"899 9 OFFCURVE",
"983 67 CURVE",
"943 214 LINE"
);
}
);
width = 1044;
}
);
unicode = 0043;
},
{
glyphname = D;
lastChange = "2019-02-20 16:41:23 +0000";
layers = (
{
anchors = (
{
name = bottom;
position = "{428, 0}";
},
{
name = center;
position = "{428, 325}";
},
{
name = top;
position = "{428, 650}";
}
);
layerId = "E5E720F2-D3D9-49CA-89B4-644343A24549";
paths = (
{
closed = 1;
nodes = (
"35 4 LINE",
"163 74 LINE",
"164 625 LINE",
"35 696 LINE",
"35 700 LINE",
"394 700 LINE",
"659 700 OFFCURVE",
"835 558 OFFCURVE",
"835 345 CURVE",
"835 138 OFFCURVE",
"659 0 OFFCURVE",
"394 0 CURVE",
"35 0 LINE"
);
},
{
closed = 1;
nodes = (
"243 24 LINE",
"414 24 LINE",
"608 24 OFFCURVE",
"718 152 OFFCURVE",
"718 345 CURVE SMOOTH",
"718 544 OFFCURVE",
"608 677 OFFCURVE",
"414 677 CURVE",
"243 677 LINE"
);
}
);
width = 855;
},
{
layerId = "02A3FD94-E825-4850-93A1-2C4DF2FA59C6";
paths = (
{
closed = 1;
nodes = (
"80 4 LINE",
"80 75 LINE",
"80 655 LINE",
"80 726 LINE",
"80 730 LINE",
"551 730 LINE SMOOTH",
"881 730 OFFCURVE",
"1053 609 OFFCURVE",
"1053 377 CURVE SMOOTH",
"1053 129 OFFCURVE",
"881 0 OFFCURVE",
"551 0 CURVE",
"252 0 LINE",
"80 0 LINE"
);
},
{
closed = 1;
nodes = (
"252 134 LINE",
"551 134 LINE SMOOTH",
"758 134 OFFCURVE",
"866 216 OFFCURVE",
"866 374 CURVE SMOOTH",
"866 523 OFFCURVE",
"758 600 OFFCURVE",
"551 600 CURVE SMOOTH",
"252 600 LINE"
);
}
);
width = 1093;
}
);
unicode = 0044;
},
{
glyphname = E;
lastChange = "2019-02-15 16:29:35 +0000";
layers = (
{
anchors = (
{
name = bottom;
position = "{429, 0}";
},
{
name = ogonek;
position = "{771, 10}";
},
{
name = top;
position = "{429, 650}";
},
{
name = topleft;
position = "{20, 650}";
}
);
layerId = "E5E720F2-D3D9-49CA-89B4-644343A24549";
paths = (
{
closed = 1;
nodes = (
"143 75 LINE",
"35 4 LINE",
"35 -1 LINE",
"627 -1 LINE",
"650 -51 LINE",
"663 -51 LINE",
"842 256 LINE",
"838 256 LINE",
"599 29 LINE",
"228 29 LINE",
"228 367 LINE",
"572 367 LINE",
"632 241 LINE",
"649 241 LINE",
"649 512 LINE",
"632 512 LINE",
"572 387 LINE",
"228 387 LINE",
"228 673 LINE",
"567 673 LINE",
"796 490 LINE",
"800 494 LINE",
"627 732 LINE",
"623 732 LINE",
"580 698 LINE",
"40 700 LINE",
"40 695 LINE",
"143 624 LINE"
);
}
);
width = 857;
},
{
anchors = (
{
name = bottom;
position = "{530, 0}";
},
{
name = ogonek;
position = "{953, 10}";
},
{
name = top;
position = "{530, 650}";
},
{
name = topleft;
position = "{20, 650}";
}
);
layerId = "02A3FD94-E825-4850-93A1-2C4DF2FA59C6";
paths = (
{
closed = 1;
nodes = (
"80 70 LINE",
"80 4 LINE",
"80 0 LINE",
"911 0 LINE",
"979 0 LINE",
"979 4 LINE",
"979 140 LINE",
"975 140 LINE",
"909 140 LINE",
"254 140 LINE",
"254 305 LINE",
"732 305 LINE",
"798 305 LINE",
"802 305 LINE",
"802 445 LINE",
"798 445 LINE",
"732 445 LINE",
"254 445 LINE",
"254 594 LINE",
"926 594 LINE",
"971 594 LINE",
"971 600 LINE",
"971 734 LINE",
"964 734 LINE",
"925 734 LINE",
"80 734 LINE",
"80 730 LINE",
"80 664 LINE"
);
}
);
width = 1059;
}
);
unicode = 0045;
},
{
glyphname = F;
lastChange = "2019-02-15 16:32:39 +0000";
layers = (
{
layerId = "E5E720F2-D3D9-49CA-89B4-644343A24549";
paths = (
{
closed = 1;
nodes = (
"146 75 LINE",
"35 4 LINE",
"35 -1 LINE",
"338 0 LINE",
"338 4 LINE",
"226 75 LINE",
"231 341 LINE",
"572 341 LINE",
"632 215 LINE",
"649 215 LINE",
"649 486 LINE",
"632 486 LINE",
"572 361 LINE",
"231 361 LINE",
"226 657 LINE",
"567 657 LINE",
"796 474 LINE",
"800 478 LINE",
"627 716 LINE",
"623 716 LINE",
"580 682 LINE",
"40 684 LINE",
"40 679 LINE",
"146 608 LINE"
);
}
);
width = 815;
},
{
layerId = "02A3FD94-E825-4850-93A1-2C4DF2FA59C6";
paths = (
{
closed = 1;
nodes = (
"80 70 LINE",
"80 4 LINE",
"80 0 LINE",
"254 0 LINE",
"254 4 LINE",
"254 70 LINE",
"254 285 LINE",
"682 285 LINE",
"748 285 LINE",
"752 285 LINE",
"752 425 LINE",
"748 425 LINE",
"682 425 LINE",
"254 425 LINE",
"254 594 LINE",
"876 594 LINE",
"921 594 LINE",
"921 599 LINE",
"921 734 LINE",
"914 734 LINE",
"875 734 LINE",
"80 734 LINE",
"80 731 LINE",
"80 678 LINE"
);
}
);
width = 941;
}
);
unicode = 0046;
},
{
glyphname = G;
lastChange = "2019-03-18 22:15:56 +0000";
layers = (
{
layerId = "E5E720F2-D3D9-49CA-89B4-644343A24549";
paths = (
{
closed = 1;
nodes = (
"290 334 LINE",
"290 330 LINE",
"693 272 LINE",
"693 72 OFFCURVE",
"648 8 OFFCURVE",
"440 8 CURVE SMOOTH",
"285 8 OFFCURVE",
"158 126 OFFCURVE",
"158 345 CURVE SMOOTH",
"158 571 OFFCURVE",
"232 688 OFFCURVE",
"439 688 CURVE SMOOTH",
"553 688 OFFCURVE",
"721 571 OFFCURVE",
"817 452 CURVE",
"821 456 LINE",
"698 709 LINE",
"694 709 LINE",
"650 658 LINE",
"623 671 OFFCURVE",
"529 714 OFFCURVE",
"439 714 CURVE SMOOTH",
"214 714 OFFCURVE",
"40 541 OFFCURVE",
"40 345 CURVE SMOOTH",
"40 152 OFFCURVE",
"214 -19 OFFCURVE",
"440 -18 CURVE SMOOTH",
"559 -17 OFFCURVE",
"662 22 OFFCURVE",
"724 80 CURVE",
"808 3 LINE",
"818 3 LINE",
"783 55 OFFCURVE",
"787 172 OFFCURVE",
"789 272 CURVE",
"939 330 LINE",
"939 334 LINE"
);
}
);
width = 974;
},
{
associatedMasterId = "02A3FD94-E825-4850-93A1-2C4DF2FA59C6";
layerId = "3FFC1B1A-9D78-4F67-ADC8-AFF0BFD832AB";
name = "Bold Extended Mar 7 19, 02:47";
paths = (
{
closed = 1;
nodes = (
"831 348 LINE",
"831 344 LINE",
"831 144 LINE",
"786 127 OFFCURVE",
"687 116 OFFCURVE",
"584 116 CURVE SMOOTH",
"366 116 OFFCURVE",
"221 213 OFFCURVE",
"221 359 CURVE SMOOTH",
"221 502 OFFCURVE",
"366 598 OFFCURVE",
"584 598 CURVE SMOOTH",
"709 598 OFFCURVE",
"846 557 OFFCURVE",
"928 495 CURVE",
"929 500 LINE",
"953 609 LINE",
"956 622 LINE",
"961 642 LINE",
"883 707 OFFCURVE",
"732 750 OFFCURVE",
"584 750 CURVE",
"258 750 OFFCURVE",
"40 594 OFFCURVE",
"40 360 CURVE SMOOTH",
"40 126 OFFCURVE",
"258 -30 OFFCURVE",
"584 -30 CURVE SMOOTH",
"710 -30 OFFCURVE",
"842 -16 OFFCURVE",
"914 5 CURVE",
"1001 32 LINE",
"1001 36 LINE",
"1001 80 OFFCURVE",
"1001 58 OFFCURVE",
"1001 121 CURVE",
"1001 344 LINE",
"1001 348 LINE"
);
}
);
width = 1071;
},
{
layerId = "02A3FD94-E825-4850-93A1-2C4DF2FA59C6";
paths = (
{
closed = 1;
nodes = (
"432 408 LINE",
"432 268 LINE",
"831 268 LINE",
"831 144 LINE",
"786 127 OFFCURVE",
"687 106 OFFCURVE",
"584 106 CURVE SMOOTH",
"366 106 OFFCURVE",
"222 213 OFFCURVE",
"222 359 CURVE SMOOTH",
"222 502 OFFCURVE",
"366 608 OFFCURVE",
"584 608 CURVE SMOOTH",
"709 608 OFFCURVE",
"846 557 OFFCURVE",
"928 495 CURVE",
"929 500 LINE",
"953 609 LINE",
"956 622 LINE",
"961 642 LINE",
"883 707 OFFCURVE",
"732 750 OFFCURVE",
"584 750 CURVE",
"258 750 OFFCURVE",
"40 594 OFFCURVE",
"40 360 CURVE SMOOTH",
"40 126 OFFCURVE",
"258 -30 OFFCURVE",
"584 -30 CURVE SMOOTH",
"710 -30 OFFCURVE",
"842 -16 OFFCURVE",
"914 5 CURVE",
"1001 32 LINE",
"1001 36 LINE",
"1001 80 OFFCURVE",
"1001 58 OFFCURVE",
"1001 121 CURVE",
"1001 404 LINE",
"1001 408 LINE"
);
}
);
width = 1071;
}
);
unicode = 0047;
},
{
glyphname = H;
lastChange = "2019-03-07 01:42:59 +0000";
layers = (
{
layerId = "E5E720F2-D3D9-49CA-89B4-644343A24549";
paths = (
{
closed = 1;
nodes = (
"35 696 LINE",
"147 625 LINE",
"147 75 LINE",
"35 4 LINE",
"35 0 LINE",
"338 0 LINE",
"338 4 LINE",
"227 75 LINE",
"227 625 LINE",
"338 696 LINE",
"338 700 LINE",
"35 700 LINE"
);
},
{
closed = 1;
nodes = (
"615 696 LINE",
"727 625 LINE",
"727 75 LINE",
"615 4 LINE",
"615 0 LINE",
"918 0 LINE",
"918 4 LINE",
"807 75 LINE",
"807 625 LINE",
"918 696 LINE",
"918 700 LINE",
"615 700 LINE"
);
},
{
closed = 1;
nodes = (
"201 349 LINE",
"762 349 LINE",
"762 374 LINE",
"201 374 LINE"
);
}
);
width = 953;
},
{
layerId = "02A3FD94-E825-4850-93A1-2C4DF2FA59C6";
paths = (
{
closed = 1;
nodes = (
"80 730 LINE",
"80 652 LINE",
"80 70 LINE",
"80 4 LINE",
"80 0 LINE",
"254 0 LINE",
"254 4 LINE",
"254 70 LINE",
"254 652 LINE",
"254 730 LINE",
"254 734 LINE",
"80 734 LINE"
);
},
{
closed = 1;
nodes = (
"860 730 LINE",
"860 652 LINE",
"860 70 LINE",
"860 4 LINE",
"860 0 LINE",
"1034 0 LINE",
"1034 4 LINE",
"1034 70 LINE",
"1034 653 LINE",
"1034 730 LINE",
"1034 734 LINE",
"860 734 LINE"
);
},
{
closed = 1;
nodes = (
"222 305 LINE",
"892 305 LINE",
"892 445 LINE",
"222 445 LINE"
);
}
);
width = 1114;
}
);
unicode = 0048;
},
{
glyphname = I;
lastChange = "2019-03-18 22:29:57 +0000";
layers = (
{
anchors = (
{
name = bottom;
position = "{210, 0}";
},
{
name = ogonek;
position = "{378, 10}";
},
{
name = top;
position = "{210, 650}";
},
{
name = topleft;
position = "{20, 650}";
}
);
layerId = "E5E720F2-D3D9-49CA-89B4-644343A24549";
paths = (
{
closed = 1;
nodes = (
"35 696 LINE",
"170 635 LINE",
"170 65 LINE",
"35 4 LINE",
"35 0 LINE",
"385 0 LINE",
"385 4 LINE",
"252 65 LINE",
"252 635 LINE",
"385 696 LINE",
"385 700 LINE",
"35 700 LINE"
);
}
);
width = 420;
},
{
anchors = (
{
name = bottom;
position = "{165, 0}";
},
{
name = ogonek;
position = "{297, 10}";
},
{
name = top;
position = "{165, 650}";
},
{
name = topleft;
position = "{20, 650}";
}
);
layerId = "02A3FD94-E825-4850-93A1-2C4DF2FA59C6";
paths = (
{
closed = 1;
nodes = (
"80 730 LINE",
"80 665 LINE",
"80 65 LINE",
"80 4 LINE",
"80 0 LINE",
"250 0 LINE",
"250 4 LINE",
"250 63 LINE",
"250 665 LINE",
"250 730 LINE",
"250 734 LINE",
"80 734 LINE"
);
}
);
width = 330;
}
);
unicode = 0049;
},
{
glyphname = Iacute;
lastChange = "2019-01-04 16:45:49 +0000";
layers = (
{
components = (
{
name = I;
},
{
name = acutecomb;
transform = "{1, 0, 0, 1, 47, 150}";
}
);
layerId = "E5E720F2-D3D9-49CA-89B4-644343A24549";
width = 420;
},
{
anchors = (
{
name = _top;
position = "{164.5, 650}";
},
{
name = top;
position = "{164.5, 1150}";
}
);
components = (
{
name = I;
}
);
layerId = "02A3FD94-E825-4850-93A1-2C4DF2FA59C6";
paths = (
{
closed = 1;
nodes = (
"92 800 LINE",
"248 800 LINE",
"419 1010 LINE",
"417 1013 LINE",
"212 1013 LINE",
"90 803 LINE"
);
}
);
width = 330;
}
);
unicode = 00CD;
},
{
glyphname = Igrave;
lastChange = "2019-01-04 16:46:06 +0000";
layers = (
{
components = (
{
name = I;
},
{
name = gravecomb;
transform = "{1, 0, 0, 1, 47, 169}";
}
);
layerId = "E5E720F2-D3D9-49CA-89B4-644343A24549";
width = 420;
},
{
anchors = (
{
name = _top;
position = "{165, 650}";
},
{
name = top;
position = "{165, 1150}";
}
);
components = (
{
name = I;
}
);
layerId = "02A3FD94-E825-4850-93A1-2C4DF2FA59C6";
paths = (
{
closed = 1;
nodes = (
"239 803 LINE",
"117 1013 LINE",
"-88 1013 LINE",
"-90 1010 LINE",
"81 800 LINE",
"237 800 LINE"
);
}
);
width = 330;
}
);
unicode = 00CC;
},
{
glyphname = J;
lastChange = "2019-03-07 01:52:41 +0000";
layers = (
{
layerId = "E5E720F2-D3D9-49CA-89B4-644343A24549";
paths = (
{
closed = 1;
nodes = (
"26 162 LINE",
"28 162 LINE",
"67 67 OFFCURVE",
"157 8 OFFCURVE",
"277 8 CURVE SMOOTH",
"417 8 OFFCURVE",
"470 74 OFFCURVE",
"472 194 CURVE",
"475 635 LINE",
"362 696 LINE",
"362 700 LINE",
"675 700 LINE",
"675 696 LINE",
"562 635 LINE",
"560 194 LINE",
"557 50 OFFCURVE",
"450 -18 OFFCURVE",
"259 -18 CURVE SMOOTH",
"144 -18 OFFCURVE",
"13 23 OFFCURVE",
"-20 67 CURVE"
);
}
);
width = 710;
},
{
associatedMasterId = "02A3FD94-E825-4850-93A1-2C4DF2FA59C6";
layerId = "FE505E1A-5441-4203-8329-BD1FA74D7465";
name = "Bold Extended Mar 7 19, 02:52";
paths = (
{
closed = 1;
nodes = (
"549 -22 OFFCURVE",
"658 129 OFFCURVE",
"658 379 CURVE SMOOTH",
"658 734 LINE",
"185 734 LINE",
"185 594 LINE",
"485 594 LINE",
"485 364 LINE SMOOTH",
"485 219 OFFCURVE",
"417 138 OFFCURVE",
"279 145 CURVE SMOOTH",
"185 150 OFFCURVE",
"128 162 OFFCURVE",
"80 187 CURVE",
"80 23 LINE",
"125 2 OFFCURVE",
"184 -8 OFFCURVE",
"289 -12 CURVE SMOOTH"
);
}
);
width = 746;
},
{
layerId = "02A3FD94-E825-4850-93A1-2C4DF2FA59C6";
paths = (
{
closed = 1;
nodes = (
"10 98 OFFCURVE",
"150 -17 OFFCURVE",
"407 -20 CURVE SMOOTH",
"671 -23 OFFCURVE",
"820 124 OFFCURVE",
"817 397 CURVE SMOOTH",
"816 734 LINE",
"357 734 LINE",
"358 594 LINE",
"642 594 LINE",
"642 417 LINE SMOOTH",
"642 208 OFFCURVE",
"567 130 OFFCURVE",
"417 130 CURVE SMOOTH",
"261 130 OFFCURVE",
"180 178 OFFCURVE",
"180 251 CURVE",
"10 251 LINE"
);
}
);
width = 895;
}
);
unicode = 004A;
},
{
glyphname = K;
lastChange = "2019-03-18 22:26:39 +0000";
layers = (
{
layerId = "E5E720F2-D3D9-49CA-89B4-644343A24549";
paths = (
{
closed = 1;
nodes = (
"35 696 LINE",
"147 634 LINE",
"147 64 LINE",
"35 4 LINE",
"35 0 LINE",
"338 0 LINE",
"338 4 LINE",
"227 64 LINE",
"227 634 LINE",
"338 696 LINE",
"338 700 LINE",
"35 700 LINE"
);
},
{
closed = 1;
nodes = (
"613 700 LINE",
"613 696 LINE",
"696 639 LINE",
"186 250 LINE",
"186 218 LINE",
"728 639 LINE",
"914 696 LINE",
"914 700 LINE"
);
},
{
closed = 1;
nodes = (
"886 4 LINE",
"749 64 LINE",
"465 460 LINE",
"372 460 LINE",
"652 64 LINE",
"602 4 LINE",
"602 0 LINE",
"886 0 LINE"
);
}
);
width = 954;
},
{
associatedMasterId = "02A3FD94-E825-4850-93A1-2C4DF2FA59C6";
layerId = "73445CBF-FE76-47D5-8E51-F1098E7779E9";
name = "Bold Extended Oct 6 18, 17:19";
paths = (
{
closed = 1;
nodes = (
"930 734 LINE",
"679 734 LINE",
"213 457 LINE",
"213 734 LINE",
"40 734 LINE",
"40 0 LINE",
"213 0 LINE",
"213 273 LINE"
);
},
{
closed = 1;
nodes = (
"674 0 LINE",
"874 0 LINE",
"500 500 LINE",
"300 500 LINE"
);
}
);
width = 979;
},
{
layerId = "02A3FD94-E825-4850-93A1-2C4DF2FA59C6";
paths = (
{
closed = 1;
nodes = (
"957 0 LINE",
"562 456 LINE",
"951 734 LINE",
"728 734 LINE",
"253 418 LINE",
"253 734 LINE",
"80 734 LINE",
"80 0 LINE",
"253 0 LINE",
"253 252 LINE",
"431 369 LINE",
"757 0 LINE"
);
}
);
width = 1012;
}
);
unicode = 004B;
},
{
glyphname = L;
lastChange = "2019-03-18 22:59:46 +0000";
layers = (
{
layerId = "E5E720F2-D3D9-49CA-89B4-644343A24549";
paths = (
{
closed = 1;
nodes = (
"35 695 LINE",
"135 625 LINE",
"135 75 LINE",
"58 4 LINE",
"58 0 LINE",
"627 0 LINE",
"664 -34 LINE",
"667 -34 LINE",
"796 199 LINE",
"792 203 LINE",
"605 35 LINE",
"215 35 LINE",
"215 625 LINE",
"322 695 LINE",
"322 700 LINE",
"35 700 LINE"
);
}
);
width = 766;
},
{
layerId = "02A3FD94-E825-4850-93A1-2C4DF2FA59C6";
paths = (
{
closed = 1;
nodes = (
"80 730 LINE",
"80 652 LINE",
"80 70 LINE",
"80 4 LINE",
"80 0 LINE",
"871 0 LINE",
"896 0 LINE",
"896 4 LINE",
"896 136 LINE",
"896 140 LINE",
"861 140 LINE",
"254 140 LINE",
"254 653 LINE",
"254 730 LINE",
"254 734 LINE",
"80 734 LINE"
);
}
);
width = 976;
}
);
leftKerningGroup = o;
unicode = 004C;
},
{
glyphname = M;
lastChange = "2019-03-18 23:02:09 +0000";
layers = (
{
layerId = "E5E720F2-D3D9-49CA-89B4-644343A24549";
paths = (
{
closed = 1;
nodes = (
"313 0 LINE",
"313 4 LINE",
"187 75 LINE",
"187 642 LINE",
"556 0 LINE",
"653 0 LINE",
"612 70 LINE",
"981 647.862 LINE",
"981 75 LINE",
"882 4 LINE",
"882 0 LINE",
"1160 0 LINE",
"1160 4 LINE",
"1061 75 LINE",
"1061 652 LINE",
"1186 696 LINE",
"1186 700 LINE",
"981 700 LINE",
"598 95 LINE",
"248 700 LINE",
"36 700 LINE",
"36 695 LINE",
"161 652 LINE",
"161 75 LINE",
"35 4 LINE",
"35 0 LINE"
);
}
);
width = 1221;
},
{
layerId = "02A3FD94-E825-4850-93A1-2C4DF2FA59C6";
paths = (
{
closed = 1;
nodes = (
"241 0 LINE",
"241 4 LINE",
"241 75 LINE",
"241 511 LINE",
"566 118 LINE",
"683 118 LINE",
"692 128 LINE",
"1009 511 LINE",
"1009 75 LINE",
"1009 4 LINE",
"1009 0 LINE",
"1170 0 LINE",
"1170 4 LINE",
"1170 75 LINE",
"1170 699 LINE",
"1170 730 LINE",
"1170 734 LINE",
"996 734 LINE",
"630 281 LINE",
"264 734 LINE",
"80 734 LINE",
"80 730 LINE",
"80 699 LINE",
"80 75 LINE",
"80 4 LINE",
"80 0 LINE"
);
}
);
width = 1250;
}
);
unicode = 004D;
},
{
glyphname = N;
lastChange = "2019-03-18 23:03:41 +0000";
layers = (
{
anchors = (
{
name = bottom;
position = "{487, 0}";
},
{
name = top;
position = "{487, 650}";
}
);
layerId = "E5E720F2-D3D9-49CA-89B4-644343A24549";
paths = (
{
closed = 1;
nodes = (
"35 4 LINE",
"35 0 LINE",
"313 0 LINE",
"313 4 LINE",
"187 75 LINE",
"187 641.872 LINE",
"756 0 LINE",
"869 0 LINE",
"808 70 LINE",
"808 625 LINE",
"934 696 LINE",
"934 700 LINE",
"656 700 LINE",
"656 696 LINE",
"782 625 LINE",
"782 100 LINE",
"250 700 LINE",
"36 700 LINE",
"36 695 LINE",
"161 651.667 LINE",
"161 75 LINE"
);
}
);
width = 969;
},
{
anchors = (
{
name = bottom;
position = "{543, 0}";
},
{
name = top;
position = "{543, 650}";
}
);
layerId = "02A3FD94-E825-4850-93A1-2C4DF2FA59C6";
paths = (
{
closed = 1;
nodes = (
"80 4 LINE",
"80 0 LINE",
"254 0 LINE",
"254 4 LINE",
"254 72 LINE",
"254 531 LINE",
"800 0 LINE",
"1005 0 LINE",
"1005 10 LINE",
"1005 664 LINE",
"1005 730 LINE",
"1005 734 LINE",
"832 734 LINE",
"832 730 LINE",
"832 664 LINE",
"832 178 LINE",
"285 734 LINE",
"80 734 LINE",
"80 730 LINE",
"80 699 LINE",
"80 72 LINE"
);
}
);
width = 1085;
}
);
unicode = 004E;
},
{
glyphname = O;
lastChange = "2019-02-15 17:20:51 +0000";
layers = (
{
anchors = (
{
name = bottom;
position = "{440, 0}";
},
{
name = center;
position = "{440, 325}";
},
{
name = ogonek;
position = "{776, 10}";
},
{
name = top;
position = "{440, 650}";
},
{
name = topleft;
position = "{40, 650}";
},
{
name = topright;
position = "{840, 650}";
}
);
layerId = "E5E720F2-D3D9-49CA-89B4-644343A24549";
paths = (
{
closed = 1;
nodes = (
"664 -17 OFFCURVE",
"840 150 OFFCURVE",
"840 345 CURVE SMOOTH",
"840 538 OFFCURVE",
"664 714 OFFCURVE",
"439 714 CURVE SMOOTH",
"214 714 OFFCURVE",
"40 541 OFFCURVE",
"40 345 CURVE SMOOTH",
"40 152 OFFCURVE",
"214 -19 OFFCURVE",
"440 -18 CURVE SMOOTH"
);
},
{
closed = 1;
nodes = (
"231 8 OFFCURVE",
"158 126 OFFCURVE",
"158 345 CURVE SMOOTH",
"158 571 OFFCURVE",
"231 688 OFFCURVE",
"439 688 CURVE SMOOTH",
"648 688 OFFCURVE",
"720 571 OFFCURVE",
"720 345 CURVE SMOOTH",
"720 128 OFFCURVE",
"648 8 OFFCURVE",
"440 8 CURVE SMOOTH"
);
}
);
width = 880;
},
{
anchors = (
{
name = bottom;
position = "{548, 0}";
},
{
name = center;
position = "{548, 325}";
},
{
name = ogonek;
position = "{985, 10}";
},
{
name = top;
position = "{548, 650}";
},
{
name = topleft;
position = "{20, 650}";
},
{
name = topright;
position = "{1075, 650}";
}
);
layerId = "02A3FD94-E825-4850-93A1-2C4DF2FA59C6";
paths = (
{
closed = 1;
nodes = (
"860 -30 OFFCURVE",
"1055 120 OFFCURVE",
"1055 360 CURVE SMOOTH",
"1055 600 OFFCURVE",
"860 761 OFFCURVE",
"549 761 CURVE SMOOTH",
"236 761 OFFCURVE",
"40 600 OFFCURVE",
"40 360 CURVE SMOOTH",
"40 120 OFFCURVE",
"236 -30 OFFCURVE",
"549 -30 CURVE SMOOTH"
);
},
{
closed = 1;
nodes = (
"346 104 OFFCURVE",
"219 203 OFFCURVE",
"220 360 CURVE SMOOTH",
"219 524 OFFCURVE",
"346 636 OFFCURVE",
"549 636 CURVE SMOOTH",
"750 636 OFFCURVE",
"876 524 OFFCURVE",
"875 360 CURVE SMOOTH",
"876 203 OFFCURVE",
"750 104 OFFCURVE",
"549 104 CURVE SMOOTH"
);
}
);
width = 1095;
},
{
anchors = (
{
name = bottom;
position = "{548, 0}";
},
{
name = center;
position = "{548, 325}";
},
{
name = ogonek;
position = "{985, 10}";
},
{
name = top;
position = "{548, 650}";
},
{
name = topleft;
position = "{20, 650}";
},
{
name = topright;
position = "{1075, 650}";
}
);
associatedMasterId = "02A3FD94-E825-4850-93A1-2C4DF2FA59C6";
layerId = "7CCA6894-A3CD-429F-BBA8-6B6FD72E6411";
name = "Feb 15 19, 17:17";
paths = (
{
closed = 1;
nodes = (
"853 -30 OFFCURVE",
"1055 130 OFFCURVE",
"1055 370 CURVE SMOOTH",
"1055 605 OFFCURVE",
"853 761 OFFCURVE",
"549 761 CURVE SMOOTH",
"244 761 OFFCURVE",
"40 605 OFFCURVE",
"40 370 CURVE SMOOTH",
"40 130 OFFCURVE",
"244 -30 OFFCURVE",
"549 -30 CURVE SMOOTH"
);
},
{
closed = 1;
nodes = (
"355 109 OFFCURVE",
"226 213 OFFCURVE",
"226 370 CURVE SMOOTH",
"226 527 OFFCURVE",
"355 631 OFFCURVE",
"549 631 CURVE SMOOTH",
"741 631 OFFCURVE",
"869 527 OFFCURVE",
"869 370 CURVE SMOOTH",
"869 213 OFFCURVE",
"741 109 OFFCURVE",
"549 109 CURVE SMOOTH"
);
}
);
width = 1095;
}
);
unicode = 004F;
},
{
glyphname = Oslash;
lastChange = "2018-12-29 20:28:41 +0000";
layers = (
{
layerId = "E5E720F2-D3D9-49CA-89B4-644343A24549";
paths = (
{
closed = 1;
nodes = (
"644 -17 OFFCURVE",
"820 150 OFFCURVE",
"820 345 CURVE SMOOTH",
"820 538 OFFCURVE",
"644 714 OFFCURVE",
"419 714 CURVE SMOOTH",
"194 714 OFFCURVE",
"20 541 OFFCURVE",
"20 345 CURVE SMOOTH",
"20 152 OFFCURVE",
"194 -19 OFFCURVE",
"420 -18 CURVE SMOOTH"
);
},
{
closed = 1;
nodes = (
"212 8 OFFCURVE",
"139 126 OFFCURVE",
"139 345 CURVE SMOOTH",
"139 571 OFFCURVE",
"212 688 OFFCURVE",
"420 688 CURVE SMOOTH",
"629 688 OFFCURVE",
"701 571 OFFCURVE",
"701 345 CURVE SMOOTH",
"701 128 OFFCURVE",
"629 8 OFFCURVE",
"421 8 CURVE SMOOTH"
);
},
{
closed = 1;
nodes = (
"281 -105 LINE",
"583 792 LINE",
"559 801 LINE",
"257 -96 LINE"
);
}
);
width = 840;
},
{
components = (
{
name = slash;
transform = "{1, 0, 0, 1, 110, 0}";
}
);
layerId = "02A3FD94-E825-4850-93A1-2C4DF2FA59C6";
paths = (
{
closed = 1;
nodes = (
"848 -30 OFFCURVE",
"1055 129 OFFCURVE",
"1055 360 CURVE SMOOTH",
"1055 590 OFFCURVE",
"848 751 OFFCURVE",
"549 751 CURVE SMOOTH",
"248 751 OFFCURVE",
"40 590 OFFCURVE",
"40 360 CURVE SMOOTH",
"40 129 OFFCURVE",
"248 -30 OFFCURVE",
"549 -30 CURVE SMOOTH"
);
},
{
closed = 1;
nodes = (
"351 109 OFFCURVE",
"226 208 OFFCURVE",
"226 360 CURVE SMOOTH",
"226 511 OFFCURVE",
"351 621 OFFCURVE",
"549 621 CURVE SMOOTH",
"745 621 OFFCURVE",
"869 511 OFFCURVE",
"869 360 CURVE SMOOTH",
"869 208 OFFCURVE",
"745 109 OFFCURVE",
"549 109 CURVE SMOOTH"
);
}
);
width = 1095;
}
);
unicode = 00D8;
},
{
glyphname = OE;
lastChange = "2018-12-29 21:08:08 +0000";
layers = (
{
layerId = "E5E720F2-D3D9-49CA-89B4-644343A24549";
paths = (
{
closed = 1;
nodes = (
"20 152 OFFCURVE",
"194 -16 OFFCURVE",
"420 -15 CURVE SMOOTH",
"458.089 -14.83 OFFCURVE",
"490.367 -9.947 OFFCURVE",
"517.707 -1 CURVE",
"1092 -1 LINE",
"1115 -51 LINE",
"1128 -51 LINE",
"1307 256 LINE",
"1303 256 LINE",
"1064 29 LINE",
"693 29 LINE",
"693 367 LINE",
"1037 367 LINE",
"1097 241 LINE",
"1114 241 LINE",
"1114 512 LINE",
"1097 512 LINE",
"1037 387 LINE",
"693 387 LINE",
"693 673 LINE",
"1032 673 LINE",
"1261 490 LINE",
"1265 494 LINE",
"1092 732 LINE",
"1088 732 LINE",
"1045 698 LINE",
"515.823 699.96 LINE",
"488.646 709.072 OFFCURVE",
"456.651 714 OFFCURVE",
"419 714 CURVE SMOOTH",
"194 714 OFFCURVE",
"20 541 OFFCURVE",
"20 345 CURVE SMOOTH"
);
},
{
closed = 1;
nodes = (
"138 571 OFFCURVE",
"211 688 OFFCURVE",
"419 688 CURVE SMOOTH",
"526.882 688 OFFCURVE",
"580.942 656.826 OFFCURVE",
"608 595.579 CURVE",
"608 101.932 LINE",
"597.456 78.54 OFFCURVE",
"582.813 59.541 OFFCURVE",
"562.482 45.076 CURVE",
"554.121 39.58 LINE",
"522.943 20.661 OFFCURVE",
"479.77 11 OFFCURVE",
"420 11 CURVE SMOOTH",
"211 11 OFFCURVE",
"138 126 OFFCURVE",
"138 345 CURVE SMOOTH"
);
}
);
width = 1322;
},
{
layerId = "02A3FD94-E825-4850-93A1-2C4DF2FA59C6";
paths = (
{
closed = 1;
nodes = (
"848 -30 OFFCURVE",
"1055 129 OFFCURVE",
"1055 360 CURVE SMOOTH",
"1055 590 OFFCURVE",
"848 751 OFFCURVE",
"549 751 CURVE SMOOTH",
"248 751 OFFCURVE",
"40 590 OFFCURVE",
"40 360 CURVE SMOOTH",
"40 129 OFFCURVE",
"248 -30 OFFCURVE",
"549 -30 CURVE SMOOTH"
);
},
{
closed = 1;
nodes = (
"351 109 OFFCURVE",
"226 208 OFFCURVE",
"226 360 CURVE SMOOTH",
"226 511 OFFCURVE",
"351 621 OFFCURVE",
"549 621 CURVE SMOOTH",
"745 621 OFFCURVE",
"869 511 OFFCURVE",
"869 360 CURVE SMOOTH",
"869 208 OFFCURVE",
"745 109 OFFCURVE",
"549 109 CURVE SMOOTH"
);
},
{
closed = 1;
nodes = (
"879 70 LINE",
"879 4 LINE",
"879 0 LINE",
"1710 0 LINE",
"1778 0 LINE",
"1778 4 LINE",
"1778 150 LINE",
"1774 150 LINE",
"1708 150 LINE",
"1053 150 LINE",
"1053 321 LINE",
"1531 321 LINE",
"1597 321 LINE",
"1601 321 LINE",
"1601 449 LINE",
"1597 449 LINE",
"1531 449 LINE",
"1053 449 LINE",
"1053 584 LINE",
"1725 584 LINE",
"1770 584 LINE",
"1770 590 LINE",
"1770 734 LINE",
"1763 734 LINE",
"1724 734 LINE",
"879 734 LINE",
"879 730 LINE",
"879 664 LINE"
);
}
);
width = 1858;
}
);
unicode = 0152;
},
{
glyphname = P;
lastChange = "2019-02-15 17:09:58 +0000";
layers = (
{
layerId = "E5E720F2-D3D9-49CA-89B4-644343A24549";
paths = (
{
closed = 1;
nodes = (
"35 4 LINE",
"163 74 LINE",
"164 625 LINE",
"35 696 LINE",
"35 700 LINE",
"419 700 LINE",
"555 700 OFFCURVE",
"840 693 OFFCURVE",
"840 520 CURVE",
"840 340 OFFCURVE",
"555 331 OFFCURVE",
"419 331 CURVE",
"243 331 LINE",
"243 74 LINE",
"411 4 LINE",
"411 0 LINE",
"35 0 LINE"
);
},
{
closed = 1;
nodes = (
"243 351 LINE",
"419 351 LINE",
"596 351 OFFCURVE",
"730 386 OFFCURVE",
"730 520 CURVE SMOOTH",
"730 643 OFFCURVE",
"596 680 OFFCURVE",
"419 680 CURVE",
"243 680 LINE"
);
}
);
width = 875;
},
{
layerId = "02A3FD94-E825-4850-93A1-2C4DF2FA59C6";
paths = (
{
closed = 1;
nodes = (
"80 4 LINE",
"80 75 LINE",
"80 655 LINE",
"80 730 LINE",
"80 734 LINE",
"531 734 LINE SMOOTH",
"832 734 OFFCURVE",
"953 667 OFFCURVE",
"953 500 CURVE SMOOTH",
"953 332 OFFCURVE",
"832 265 OFFCURVE",
"531 265 CURVE",
"252 265 LINE",
"252 75 LINE",
"252 4 LINE",
"252 0 LINE",
"80 0 LINE"
);
},
{
closed = 1;
nodes = (
"255 390 LINE",
"561 390 LINE SMOOTH",
"705 390 OFFCURVE",
"763 421 OFFCURVE",
"763 500 CURVE SMOOTH",
"763 579 OFFCURVE",
"705 610 OFFCURVE",
"561 610 CURVE SMOOTH",
"255 610 LINE"
);
}
);
width = 993;
}
);
unicode = 0050;
},
{
glyphname = Q;
lastChange = "2019-02-15 17:22:53 +0000";
layers = (
{
associatedMasterId = "E5E720F2-D3D9-49CA-89B4-644343A24549";
layerId = "7906435D-B110-403F-8F09-71886603667E";
name = "Jun 9 18, 16:40";
paths = (
{
closed = 1;
nodes = (
"644 -17 OFFCURVE",
"820 150 OFFCURVE",
"820 345 CURVE SMOOTH",
"820 538 OFFCURVE",
"644 714 OFFCURVE",
"419 714 CURVE SMOOTH",
"194 714 OFFCURVE",
"20 541 OFFCURVE",
"20 345 CURVE SMOOTH",
"20 152 OFFCURVE",
"194 -19 OFFCURVE",
"420 -18 CURVE SMOOTH"
);
},
{
closed = 1;
nodes = (
"211 8 OFFCURVE",
"138 126 OFFCURVE",
"138 345 CURVE SMOOTH",
"138 571 OFFCURVE",
"211 688 OFFCURVE",
"419 688 CURVE SMOOTH",
"628 688 OFFCURVE",
"700 571 OFFCURVE",
"700 345 CURVE SMOOTH",
"700 128 OFFCURVE",
"628 8 OFFCURVE",
"420 8 CURVE SMOOTH"
);
},
{
closed = 1;
nodes = (
"185 -213 LINE",
"214 -171 OFFCURVE",
"423 -55 OFFCURVE",
"559 -55 CURVE SMOOTH",
"636 -55 OFFCURVE",
"725 -115 OFFCURVE",
"725 -223 CURVE",
"729 -223 LINE",
"815 -96 LINE",
"815 -86 OFFCURVE",
"739 -15 OFFCURVE",
"608 -14 CURVE SMOOTH",
"502 -13 OFFCURVE",
"318 -80 OFFCURVE",
"209 -168 CURVE",
"372 79 LINE",
"346 79 LINE",
"164 -213 LINE"
);
}
);
width = 840;
},
{
associatedMasterId = "E5E720F2-D3D9-49CA-89B4-644343A24549";
layerId = "F1D810FC-2972-4DA3-83F1-8D5A2E39719D";
name = "Jun 9 18, 17:06";
paths = (
{
closed = 1;
nodes = (
"644 -17 OFFCURVE",
"820 150 OFFCURVE",
"820 345 CURVE SMOOTH",
"820 538 OFFCURVE",
"644 714 OFFCURVE",
"419 714 CURVE SMOOTH",
"194 714 OFFCURVE",
"20 541 OFFCURVE",
"20 345 CURVE SMOOTH",
"20 152 OFFCURVE",
"194 -19 OFFCURVE",
"420 -18 CURVE SMOOTH"
);
},
{
closed = 1;
nodes = (
"211 8 OFFCURVE",
"138 126 OFFCURVE",
"138 345 CURVE SMOOTH",
"138 571 OFFCURVE",
"211 688 OFFCURVE",
"419 688 CURVE SMOOTH",
"628 688 OFFCURVE",
"700 571 OFFCURVE",
"700 345 CURVE SMOOTH",
"700 128 OFFCURVE",
"628 8 OFFCURVE",
"420 8 CURVE SMOOTH"
);
},
{
closed = 1;
nodes = (
"193 -221 LINE",
"202 -221 LINE",
"229 -199 OFFCURVE",
"357 -108 OFFCURVE",
"496 -108 CURVE",
"620 -108 OFFCURVE",
"693 -176 OFFCURVE",
"740 -232 CURVE",
"801 -108 LINE",
"749 -83 OFFCURVE",
"626 -65 OFFCURVE",
"529 -65 CURVE",
"419 -65 OFFCURVE",
"282 -129 OFFCURVE",
"247 -165 CURVE",
"347 77 LINE",
"314 77 LINE"
);
}
);
width = 840;
},
{
associatedMasterId = "E5E720F2-D3D9-49CA-89B4-644343A24549";
layerId = "DE85416B-073C-4712-9BAD-BA08A3016052";
name = "Jun 9 18, 16:53";
paths = (
{
closed = 1;
nodes = (
"644 -17 OFFCURVE",
"820 150 OFFCURVE",
"820 345 CURVE SMOOTH",
"820 538 OFFCURVE",
"644 714 OFFCURVE",
"419 714 CURVE SMOOTH",
"194 714 OFFCURVE",
"20 541 OFFCURVE",
"20 345 CURVE SMOOTH",
"20 152 OFFCURVE",
"194 -19 OFFCURVE",
"420 -18 CURVE SMOOTH"
);
},
{
closed = 1;
nodes = (
"211 8 OFFCURVE",
"138 126 OFFCURVE",
"138 345 CURVE SMOOTH",
"138 571 OFFCURVE",
"211 688 OFFCURVE",
"419 688 CURVE SMOOTH",
"628 688 OFFCURVE",
"700 571 OFFCURVE",
"700 345 CURVE SMOOTH",
"700 128 OFFCURVE",
"628 8 OFFCURVE",
"420 8 CURVE SMOOTH"
);
},
{
closed = 1;
nodes = (
"197 -117 LINE",
"261 -132 OFFCURVE",
"325 -162 OFFCURVE",
"389 -162 CURVE",
"518 -162 OFFCURVE",
"645 -103 OFFCURVE",
"767 -153 CURVE",
"706 -42 LINE",
"602 -34 OFFCURVE",
"498 -100 OFFCURVE",
"393 -100 CURVE",
"347 -100 OFFCURVE",
"281 -89 OFFCURVE",
"256 -66 CURVE",
"319 49 LINE",
"311 52 LINE"
);
}
);
width = 840;
},
{
associatedMasterId = "E5E720F2-D3D9-49CA-89B4-644343A24549";
layerId = "25CCB171-5B6B-4DB6-BC08-FD2E76D716E8";
name = "Jun 9 18, 16:55";
paths = (
{
closed = 1;
nodes = (
"644 -17 OFFCURVE",
"820 150 OFFCURVE",
"820 345 CURVE SMOOTH",
"820 538 OFFCURVE",
"644 714 OFFCURVE",
"419 714 CURVE SMOOTH",
"194 714 OFFCURVE",
"20 541 OFFCURVE",
"20 345 CURVE SMOOTH",
"20 152 OFFCURVE",
"194 -19 OFFCURVE",
"420 -18 CURVE SMOOTH"
);
},
{
closed = 1;
nodes = (
"211 8 OFFCURVE",
"138 126 OFFCURVE",
"138 345 CURVE SMOOTH",
"138 571 OFFCURVE",
"211 688 OFFCURVE",
"419 688 CURVE SMOOTH",
"628 688 OFFCURVE",
"700 571 OFFCURVE",
"700 345 CURVE SMOOTH",
"700 128 OFFCURVE",
"628 8 OFFCURVE",
"420 8 CURVE SMOOTH"
);
},
{
closed = 1;
nodes = (
"205 -152 LINE",
"244 -152 LINE",
"271 -137 OFFCURVE",
"335 -87 OFFCURVE",
"414 -87 CURVE",
"509 -87 OFFCURVE",
"545 -172 OFFCURVE",
"651 -168 CURVE",
"710 -168 OFFCURVE",
"767 -135 OFFCURVE",
"767 -123 CURVE",
"728 1 LINE",
"728 -21 OFFCURVE",
"684 -86 OFFCURVE",
"613 -85 CURVE",
"561 -85 OFFCURVE",
"509 -48 OFFCURVE",
"419 -48 CURVE",
"344 -48 OFFCURVE",
"304 -90 OFFCURVE",
"254 -118 CURVE",
"337 57 LINE",
"304 57 LINE"
);
}
);
width = 840;
},
{
layerId = "02A3FD94-E825-4850-93A1-2C4DF2FA59C6";
paths = (
{
closed = 1;
nodes = (
"728 -80 LINE",
"928 -80 LINE",
"922 -72 LINE",
"868 -5 LINE",
"658 269 LINE",
"458 269 LINE"
);
},
{
closed = 1;
nodes = (
"833 -30 OFFCURVE",
"1035 126 OFFCURVE",
"1035 360 CURVE SMOOTH",
"1035 601 OFFCURVE",
"833 761 OFFCURVE",
"529 761 CURVE SMOOTH",
"224 761 OFFCURVE",
"20 601 OFFCURVE",
"20 360 CURVE SMOOTH",
"20 126 OFFCURVE",
"224 -30 OFFCURVE",
"529 -30 CURVE SMOOTH"
);
},
{
closed = 1;
nodes = (
"329 101 OFFCURVE",
"196 205 OFFCURVE",
"196 360 CURVE SMOOTH",
"196 527 OFFCURVE",
"329 639 OFFCURVE",
"529 639 CURVE SMOOTH",
"727 639 OFFCURVE",
"859 527 OFFCURVE",
"859 360 CURVE SMOOTH",
"859 205 OFFCURVE",
"727 101 OFFCURVE",
"529 101 CURVE SMOOTH"
);
}
);
width = 1055;
},
{
associatedMasterId = "E5E720F2-D3D9-49CA-89B4-644343A24549";
layerId = "F6847D57-A285-4F85-BA21-3B19972B5C0A";
name = "Regular Oct 2 18, 22:32";
paths = (
{
closed = 1;
nodes = (
"644 -17 OFFCURVE",
"820 150 OFFCURVE",
"820 345 CURVE SMOOTH",
"820 538 OFFCURVE",
"644 714 OFFCURVE",
"419 714 CURVE SMOOTH",
"194 714 OFFCURVE",
"20 541 OFFCURVE",
"20 345 CURVE SMOOTH",
"20 152 OFFCURVE",
"194 -19 OFFCURVE",
"420 -18 CURVE SMOOTH"
);
},
{
closed = 1;
nodes = (
"211 8 OFFCURVE",
"138 126 OFFCURVE",
"138 345 CURVE SMOOTH",
"138 571 OFFCURVE",
"211 688 OFFCURVE",
"419 688 CURVE SMOOTH",
"628 688 OFFCURVE",
"700 571 OFFCURVE",
"700 345 CURVE SMOOTH",
"700 128 OFFCURVE",
"628 8 OFFCURVE",
"420 8 CURVE SMOOTH"
);
},
{
closed = 1;
nodes = (
"302 19 LINE",
"328 39 OFFCURVE",
"352 71 OFFCURVE",
"412 71 CURVE",
"521 71 OFFCURVE",
"481 -159 OFFCURVE",
"608 -159 CURVE",
"701 -159 OFFCURVE",
"758 -109 OFFCURVE",
"777 -84 CURVE",
"749 23 LINE",
"731 -34 OFFCURVE",
"705 -100 OFFCURVE",
"612 -102 CURVE",
"513 -103 OFFCURVE",
"535 93 OFFCURVE",
"419 93 CURVE",
"352 93 OFFCURVE",
"313 46 OFFCURVE",
"292 27 CURVE"
);
}
);
width = 840;
},
{
layerId = "E5E720F2-D3D9-49CA-89B4-644343A24549";
paths = (
{
closed = 1;
nodes = (
"664 -17 OFFCURVE",
"840 150 OFFCURVE",
"840 345 CURVE SMOOTH",
"840 538 OFFCURVE",
"664 714 OFFCURVE",
"439 714 CURVE SMOOTH",
"214 714 OFFCURVE",
"40 541 OFFCURVE",
"40 345 CURVE SMOOTH",
"40 152 OFFCURVE",
"214 -19 OFFCURVE",
"440 -18 CURVE SMOOTH"
);
},
{
closed = 1;
nodes = (
"231 8 OFFCURVE",
"158 126 OFFCURVE",
"158 345 CURVE SMOOTH",
"158 571 OFFCURVE",
"231 688 OFFCURVE",
"439 688 CURVE SMOOTH",
"648 688 OFFCURVE",
"720 571 OFFCURVE",
"720 345 CURVE SMOOTH",
"720 128 OFFCURVE",
"648 8 OFFCURVE",
"440 8 CURVE SMOOTH"
);
},
{
closed = 1;
nodes = (
"142 -214 LINE",
"276 -153 OFFCURVE",
"442 -112 OFFCURVE",
"557 -112 CURVE SMOOTH",
"650 -112 OFFCURVE",
"730 -153 OFFCURVE",
"756 -214 CURVE",
"760 -214 LINE",
"823 -97 LINE",
"796 -73 OFFCURVE",
"718 -58 OFFCURVE",
"628 -59 CURVE SMOOTH",
"484 -61 OFFCURVE",
"312 -105 OFFCURVE",
"200 -169 CURVE",
"196 -169 LINE",
"392 78 LINE",
"366 78 LINE",
"138 -214 LINE"
);
}
);
width = 880;
visible = 1;
}
);
unicode = 0051;
},
{
glyphname = R;
lastChange = "2019-03-18 22:19:43 +0000";
layers = (
{
layerId = "E5E720F2-D3D9-49CA-89B4-644343A24549";
paths = (
{
closed = 1;
nodes = (
"35 4 LINE",
"163 74 LINE",
"164 625 LINE",
"35 696 LINE",
"35 700 LINE",
"419 700 LINE",
"555 700 OFFCURVE",
"840 693 OFFCURVE",
"840 520 CURVE",
"840 340 OFFCURVE",
"555 331 OFFCURVE",
"419 331 CURVE",
"243 331 LINE",
"243 74 LINE",
"371 4 LINE",
"371 0 LINE",
"35 0 LINE"
);
},
{
closed = 1;
nodes = (
"243 351 LINE",
"419 351 LINE",
"596 351 OFFCURVE",
"730 386 OFFCURVE",
"730 520 CURVE SMOOTH",
"730 643 OFFCURVE",
"596 680 OFFCURVE",
"419 680 CURVE",
"243 680 LINE"
);
},
{
closed = 1;
nodes = (
"419 460 LINE",
"748 71 LINE",
"920 1 LINE",
"920 -3 LINE",
"710 -3 LINE",
"323 460 LINE"
);
}
);
width = 955;
},
{
layerId = "02A3FD94-E825-4850-93A1-2C4DF2FA59C6";
paths = (
{
closed = 1;
nodes = (
"80 4 LINE",
"80 75 LINE",
"80 659 LINE",
"80 730 LINE",
"80 734 LINE",
"531 734 LINE SMOOTH",
"832 734 OFFCURVE",
"953 667 OFFCURVE",
"953 500 CURVE SMOOTH",
"953 332 OFFCURVE",
"832 265 OFFCURVE",
"531 265 CURVE",
"252 265 LINE",
"252 75 LINE",
"252 4 LINE",
"252 0 LINE",
"80 0 LINE"
);
},
{
closed = 1;
nodes = (
"255 390 LINE",
"561 390 LINE",
"705 390 OFFCURVE",
"763 421 OFFCURVE",
"763 500 CURVE SMOOTH",
"763 579 OFFCURVE",
"705 610 OFFCURVE",
"561 610 CURVE SMOOTH",
"255 610 LINE"
);
},
{
closed = 1;
nodes = (
"652 379 LINE",
"892 75 LINE",
"946 8 LINE",
"952 0 LINE",
"752 0 LINE",
"452 379 LINE"
);
}
);
width = 993;
},
{
associatedMasterId = "E5E720F2-D3D9-49CA-89B4-644343A24549";
layerId = "1DE225AE-75B0-4A7E-BB3E-C9F45D24C681";
name = "Jul 1 18, 17:16";
paths = (
{
closed = 1;
nodes = (
"35 4 LINE",
"163 74 LINE",
"164 625 LINE",
"35 696 LINE",
"35 700 LINE",
"419 700 LINE",
"555 700 OFFCURVE",
"840 693 OFFCURVE",
"840 520 CURVE",
"840 340 OFFCURVE",
"555 331 OFFCURVE",
"419 331 CURVE",
"243 331 LINE",
"243 74 LINE",
"371 4 LINE",
"371 0 LINE",
"35 0 LINE"
);
},
{
closed = 1;
nodes = (
"243 351 LINE",
"419 351 LINE",
"596 351 OFFCURVE",
"730 386 OFFCURVE",
"730 520 CURVE SMOOTH",
"730 643 OFFCURVE",
"596 680 OFFCURVE",
"419 680 CURVE",
"243 680 LINE"
);
},
{
closed = 1;
nodes = (
"396 416 LINE",
"680 82 LINE",
"890 4 LINE",
"890 0 LINE",
"710 0 LINE",
"356 416 LINE"
);
}
);
width = 955;
},
{
associatedMasterId = "E5E720F2-D3D9-49CA-89B4-644343A24549";
layerId = "EF4697B7-4E15-4346-A539-C163395C44EC";
name = "Jul 1 18, 17:18";
paths = (
{
closed = 1;
nodes = (
"35 4 LINE",
"163 74 LINE",
"164 625 LINE",
"35 696 LINE",
"35 700 LINE",
"419 700 LINE",
"555 700 OFFCURVE",
"840 693 OFFCURVE",
"840 520 CURVE",
"840 340 OFFCURVE",
"555 331 OFFCURVE",
"419 331 CURVE",
"243 331 LINE",
"243 74 LINE",
"371 4 LINE",
"371 0 LINE",
"35 0 LINE"
);
},
{
closed = 1;
nodes = (
"243 351 LINE",
"419 351 LINE",
"596 351 OFFCURVE",
"730 386 OFFCURVE",
"730 520 CURVE SMOOTH",
"730 643 OFFCURVE",
"596 680 OFFCURVE",
"419 680 CURVE",
"243 680 LINE"
);
},
{
closed = 1;
nodes = (
"399 416 LINE",
"681 74 LINE",
"880 4 LINE",
"880 0 LINE",
"590 0 LINE",
"659 64 LINE",
"367 416 LINE"
);
}
);
width = 955;
},
{
associatedMasterId = "E5E720F2-D3D9-49CA-89B4-644343A24549";
layerId = "080EA40E-B379-4FC7-B68B-349757BC8D3E";
name = "Jul 1 18, 17:22";
paths = (
{
closed = 1;
nodes = (
"35 4 LINE",
"163 74 LINE",
"164 625 LINE",
"35 696 LINE",
"35 700 LINE",
"419 700 LINE",
"555 700 OFFCURVE",
"840 693 OFFCURVE",
"840 520 CURVE",
"840 340 OFFCURVE",
"555 331 OFFCURVE",
"419 331 CURVE",
"243 331 LINE",
"243 74 LINE",
"371 4 LINE",
"371 0 LINE",
"35 0 LINE"
);
},
{
closed = 1;
nodes = (
"243 351 LINE",
"419 351 LINE",
"596 351 OFFCURVE",
"730 386 OFFCURVE",
"730 520 CURVE SMOOTH",
"730 643 OFFCURVE",
"596 680 OFFCURVE",
"419 680 CURVE",
"243 680 LINE"
);
},
{
closed = 1;
nodes = (
"456 416 LINE",
"700 82 LINE",
"880 4 LINE",
"880 0 LINE",
"670 0 LINE",
"356 416 LINE"
);
}
);
width = 955;
}
);
unicode = 0052;
},
{
glyphname = S;
lastChange = "2019-03-18 22:49:07 +0000";
layers = (
{
layerId = "E5E720F2-D3D9-49CA-89B4-644343A24549";
paths = (
{
closed = 1;
nodes = (
"35 282 LINE",
"40 290 LINE",
"149 105 OFFCURVE",
"329 10 OFFCURVE",
"525 10 CURVE SMOOTH",
"651 10 OFFCURVE",
"738 52 OFFCURVE",
"738 141 CURVE SMOOTH",
"738 267 OFFCURVE",
"540 267 OFFCURVE",
"365 322 CURVE SMOOTH",
"203 373 OFFCURVE",
"74 432 OFFCURVE",
"74 549 CURVE SMOOTH",
"74 639 OFFCURVE",
"162 710 OFFCURVE",
"307 710 CURVE SMOOTH",
"415 710 OFFCURVE",
"531 656 OFFCURVE",
"615 615 CURVE",
"684 692 LINE",
"817 417 LINE",
"813 409 LINE",
"659 616 OFFCURVE",
"424 684 OFFCURVE",
"307 684 CURVE",
"222 687 OFFCURVE",
"154 649 OFFCURVE",
"154 571 CURVE SMOOTH",
"154 509 OFFCURVE",
"209 465 OFFCURVE",
"409 410 CURVE SMOOTH",
"566 367 OFFCURVE",
"819 347 OFFCURVE",
"818 167 CURVE SMOOTH",
"817 10 OFFCURVE",
"679 -15 OFFCURVE",
"540 -15 CURVE SMOOTH",
"426 -15 OFFCURVE",
"295 23 OFFCURVE",
"212 80 CURVE",
"143 3 LINE"
);
}
);
width = 856;
},
{
layerId = "02A3FD94-E825-4850-93A1-2C4DF2FA59C6";
paths = (
{
closed = 1;
nodes = (
"163 13 OFFCURVE",
"319 -29 OFFCURVE",
"486 -29 CURVE",
"821 -29 OFFCURVE",
"996 56 OFFCURVE",
"996 219 CURVE SMOOTH",
"996 367 OFFCURVE",
"833 435 OFFCURVE",
"521 446 CURVE SMOOTH",
"328 453 OFFCURVE",
"240 474 OFFCURVE",
"240 533 CURVE SMOOTH",
"240 592 OFFCURVE",
"310 616 OFFCURVE",
"485 618 CURVE SMOOTH",
"660 619 OFFCURVE",
"788 585 OFFCURVE",
"898 522 CURVE",
"946 665 LINE",
"817 728 OFFCURVE",
"673 762 OFFCURVE",
"488 761 CURVE SMOOTH",
"217 760 OFFCURVE",
"76 680 OFFCURVE",
"76 527 CURVE SMOOTH",
"76 386 OFFCURVE",
"235 314 OFFCURVE",
"556 300 CURVE SMOOTH",
"745 292 OFFCURVE",
"821 273 OFFCURVE",
"821 219 CURVE SMOOTH",
"821 147 OFFCURVE",
"703 116 OFFCURVE",
"506 115 CURVE SMOOTH",
"355 114 OFFCURVE",
"217 150 OFFCURVE",
"99 219 CURVE",
"40 82 LINE"
);
}
);
width = 1036;
},
{
associatedMasterId = "02A3FD94-E825-4850-93A1-2C4DF2FA59C6";
layerId = "6A2B0477-E1E5-4036-B290-6E0D91C02B0D";
name = "Feb 20 19, 17:21";
paths = (
{
closed = 1;
nodes = (
"177 30 OFFCURVE",
"340 -10 OFFCURVE",
"516 -10 CURVE SMOOTH",
"831 -10 OFFCURVE",
"996 72 OFFCURVE",
"996 230 CURVE SMOOTH",
"996 372 OFFCURVE",
"833 447 OFFCURVE",
"521 450 CURVE SMOOTH",
"330 452 OFFCURVE",
"230 480 OFFCURVE",
"230 532 CURVE SMOOTH",
"230 584 OFFCURVE",
"317 612 OFFCURVE",
"485 613 CURVE SMOOTH",
"658 614 OFFCURVE",
"807 579 OFFCURVE",
"918 511 CURVE",
"966 650 LINE",
"837 717 OFFCURVE",
"673 752 OFFCURVE",
"488 751 CURVE SMOOTH",
"217 750 OFFCURVE",
"76 672 OFFCURVE",
"76 523 CURVE SMOOTH",
"76 378 OFFCURVE",
"241 302 OFFCURVE",
"556 302 CURVE SMOOTH",
"743 302 OFFCURVE",
"841 277 OFFCURVE",
"841 230 CURVE SMOOTH",
"841 167 OFFCURVE",
"736 132 OFFCURVE",
"536 128 CURVE SMOOTH",
"368 124 OFFCURVE",
"214 164 OFFCURVE",
"89 244 CURVE",
"40 108 LINE"
);
}
);
width = 1036;
}
);
unicode = 0053;
},
{
glyphname = T;
lastChange = "2019-02-15 16:31:52 +0000";
layers = (
{
layerId = "E5E720F2-D3D9-49CA-89B4-644343A24549";
paths = (
{
closed = 1;
nodes = (
"207 645 LINE",
"455 645 LINE",
"459 75 LINE",
"359 5 LINE",
"359 0 LINE",
"645 0 LINE",
"645 5 LINE",
"549 75 LINE",
"540 645 LINE",
"788 645 LINE",
"975 477 LINE",
"979 481 LINE",
"850 714 LINE",
"847 714 LINE",
"810 680 LINE",
"183 680 LINE",
"146 714 LINE",
"143 714 LINE",
"15 481 LINE",
"18 477 LINE"
);
}
);
width = 994;
},
{
layerId = "02A3FD94-E825-4850-93A1-2C4DF2FA59C6";
paths = (
{
closed = 1;
nodes = (
"79 594 LINE",
"398 594 LINE",
"398 70 LINE",
"398 4 LINE",
"398 0 LINE",
"572 0 LINE",
"572 4 LINE",
"572 70 LINE",
"572 594 LINE",
"891 594 LINE",
"930 594 LINE",
"930 597 LINE",
"930 734 LINE",
"925 734 LINE",
"902 734 LINE",
"66 734 LINE",
"45 734 LINE",
"40 734 LINE",
"40 597 LINE",
"40 594 LINE"
);
}
);
width = 970;
}
);
unicode = 0054;
},
{
glyphname = U;
lastChange = "2019-01-04 16:05:25 +0000";
layers = (
{
anchors = (
{
name = bottom;
position = "{509, 0}";
},
{
name = ogonek;
position = "{915, 10}";
},
{
name = top;
position = "{509, 650}";
},
{
name = topright;
position = "{997, 650}";
}
);
layerId = "E5E720F2-D3D9-49CA-89B4-644343A24549";
paths = (
{
closed = 1;
nodes = (
"349 701 LINE",
"348 697 LINE",
"239 625 LINE",
"239 251 LINE",
"239 106 OFFCURVE",
"346 10 OFFCURVE",
"506 10 CURVE",
"689 10 OFFCURVE",
"809 78 OFFCURVE",
"809 181 CURVE",
"809 625 LINE",
"686 699 LINE",
"686 701 LINE",
"982 701 LINE",
"982 698 LINE",
"844 625 LINE",
"847 222 LINE",
"847 197 OFFCURVE",
"859 153 OFFCURVE",
"887 153 CURVE",
"806 52 OFFCURVE",
"662 -17 OFFCURVE",
"506 -17 CURVE",
"334 -17 OFFCURVE",
"241 46 OFFCURVE",
"97 153 CURVE",
"127 153 OFFCURVE",
"150 200 OFFCURVE",
"150 222 CURVE",
"150 625 LINE",
"38 698 LINE",
"35 701 LINE"
);
}
);
width = 1017;
},
{
anchors = (
{
name = bottom;
position = "{515, 0}";
},
{
name = ogonek;
position = "{927, 10}";
},
{
name = top;
position = "{515, 650}";
},
{
name = topright;
position = "{1010, 650}";
}
);
layerId = "02A3FD94-E825-4850-93A1-2C4DF2FA59C6";
paths = (
{
closed = 1;
nodes = (
"75 117 OFFCURVE",
"215 -30 OFFCURVE",
"515 -30 CURVE SMOOTH",
"815 -30 OFFCURVE",
"955 117 OFFCURVE",
"955 320 CURVE SMOOTH",
"954 733 LINE",
"785 733 LINE",
"785 361 LINE SMOOTH",
"785 223 OFFCURVE",
"704 110 OFFCURVE",
"515 110 CURVE SMOOTH",
"326 110 OFFCURVE",
"245 223 OFFCURVE",
"245 361 CURVE SMOOTH",
"245 733 LINE",
"75 733 LINE",
"75 320 LINE SMOOTH"
);
}
);
width = 1030;
}
);
unicode = 0055;
},
{
glyphname = V;
lastChange = "2019-02-10 23:50:52 +0000";
layers = (
{
layerId = "E5E720F2-D3D9-49CA-89B4-644343A24549";
paths = (
{
closed = 1;
nodes = (
"778 700 LINE",
"778 696 LINE",
"888 625 LINE",
"576 99 LINE",
"336 510 LINE",
"270 625 LINE",
"374 696 LINE",
"374 700 LINE",
"15 700 LINE",
"15 696 LINE",
"174 625 LINE",
"539 0 LINE",
"634 0 LINE",
"590 75 LINE",
"916 625 LINE",
"1080 696 LINE",
"1080 700 LINE"
);
}
);
width = 1095;
},
{
layerId = "02A3FD94-E825-4850-93A1-2C4DF2FA59C6";
paths = (
{
closed = 1;
nodes = (
"823 734 LINE",
"819 728 LINE",
"802 698 LINE",
"511 170 LINE",
"275 578 LINE",
"206 706 LINE",
"193 729 LINE",
"191 734 LINE",
"0 734 LINE",
"3 728 LINE",
"26 689 LINE",
"424 0 LINE",
"587 0 LINE",
"607 34 LINE",
"986 692 LINE",
"1007 728 LINE",
"1010 734 LINE"
);
}
);
width = 1010;
}
);
unicode = 0056;
},
{
glyphname = W;
lastChange = "2019-02-11 00:01:17 +0000";
layers = (
{
anchors = (
{
name = bottom;
position = "{792, 0}";
},
{
name = top;
position = "{792, 650}";
}
);
layerId = "E5E720F2-D3D9-49CA-89B4-644343A24549";
paths = (
{
closed = 1;
nodes = (
"798 627 LINE",
"586 101 LINE",
"346 512 LINE",
"280 627 LINE",
"384 698 LINE",
"384 702 LINE",
"25 702 LINE",
"25 698 LINE",
"184 627 LINE",
"549 2 LINE",
"644 2 LINE",
"600 77 LINE",
"826 627 LINE"
);
},
{
closed = 1;
nodes = (
"1246 702 LINE",
"1246 698 LINE",
"1356 627 LINE",
"1144 101 LINE",
"904 512 LINE",
"838 627 LINE",
"942 698 LINE",
"942 702 LINE",
"583 702 LINE",
"583 698 LINE",
"742 627 LINE",
"1107 2 LINE",
"1202 2 LINE",
"1158 77 LINE",
"1384 627 LINE",
"1548 698 LINE",
"1548 702 LINE"
);
}
);
width = 1583;
},
{
layerId = "02A3FD94-E825-4850-93A1-2C4DF2FA59C6";
paths = (
{
closed = 1;
nodes = (
"1385 734 LINE",
"1186 734 LINE",
"1010 213 LINE",
"816 734 LINE",
"623 734 LINE",
"426 213 LINE",
"250 734 LINE",
"40 734 LINE",
"320 0 LINE",
"517 0 LINE",
"712 540 LINE",
"908 0 LINE",
"1105 0 LINE"
);
}
);
width = 1425;
}
);
unicode = 0057;
},
{
glyphname = X;
lastChange = "2019-02-20 16:40:25 +0000";
layers = (
{
layerId = "E5E720F2-D3D9-49CA-89B4-644343A24549";
paths = (
{
closed = 1;
nodes = (
"298 625 LINE",
"410 696 LINE",
"410 700 LINE",
"0 700 LINE",
"0 696 LINE",
"181 635 LINE",
"758 75 LINE",
"863 75 LINE"
);
},
{
closed = 1;
nodes = (
"1043 4 LINE",
"1043 0 LINE",
"633 0 LINE",
"633 4 LINE",
"756 75 LINE",
"863 75 LINE"
);
},
{
closed = 1;
nodes = (
"628 696 LINE",
"628 700 LINE",
"978 700 LINE",
"978 696 LINE",
"798 625 LINE",
"763 625 LINE"
);
},
{
closed = 1;
nodes = (
"482 355 LINE",
"190 44 LINE",
"227 44 LINE",
"500 339 LINE"
);
},
{
closed = 1;
nodes = (
"221 77 LINE",
"41 6 LINE",
"41 2 LINE",
"390 2 LINE",
"390 6 LINE",
"255 77 LINE"
);
},
{
closed = 1;
nodes = (
"543 370 LINE",
"798 625 LINE",
"763 625 LINE",
"524 386 LINE"
);
}
);
width = 1043;
},
{
layerId = "02A3FD94-E825-4850-93A1-2C4DF2FA59C6";
paths = (
{
closed = 1;
nodes = (
"789 0 LINE",
"1017 0 LINE",
"1020 4 LINE",
"632 373 LINE",
"1008 730 LINE",
"1005 734 LINE",
"779 734 LINE",
"515 484 LINE",
"251 734 LINE",
"23 734 LINE",
"20 730 LINE",
"397 372 LINE",
"10 4 LINE",
"13 0 LINE",
"239 0 LINE",
"514 261 LINE"
);
}
);
width = 1030;
}
);
unicode = 0058;
},
{
glyphname = Y;
lastChange = "2019-02-11 00:07:00 +0000";
layers = (
{
anchors = (
{
name = bottom;
position = "{474, 0}";
},
{
name = top;
position = "{474, 650}";
},
{
name = topleft;
position = "{0, 650}";
}
);
guideLines = (
{
angle = 90;
position = "{-57, 698}";
},
{
angle = 270;
position = "{1008, 698}";
}
);
layerId = "E5E720F2-D3D9-49CA-89B4-644343A24549";
paths = (
{
closed = 1;
nodes = (
"630 700 LINE",
"630 696 LINE",
"740 625 LINE",
"503 297 LINE",
"270 625 LINE",
"374 696 LINE",
"374 700 LINE",
"15 700 LINE",
"15 696 LINE",
"174 625 LINE",
"432 271 LINE",
"516 271 LINE",
"768 625 LINE",
"932 696 LINE",
"932 700 LINE"
);
},
{
closed = 1;
nodes = (
"432 271 LINE",
"432 75 LINE",
"321 4 LINE",
"321 -1 LINE",
"624 0 LINE",
"624 4 LINE",
"528 75 LINE",
"516 271 LINE"
);
}
);
width = 947;
},
{
anchors = (
{
name = bottom;
position = "{548, 0}";
},
{
name = top;
position = "{548, 650}";
},
{
name = topleft;
position = "{60, 650}";
}
);
layerId = "02A3FD94-E825-4850-93A1-2C4DF2FA59C6";
paths = (
{
closed = 1;
nodes = (
"853 734 LINE",
"550 373 LINE",
"244 734 LINE",
"40 734 LINE",
"464 233 LINE",
"635 233 LINE",
"1056 734 LINE"
);
},
{
closed = 1;
nodes = (
"464 0 LINE",
"635 0 LINE",
"635 258 LINE",
"464 258 LINE"
);
}
);
width = 1096;
}
);
unicode = 0059;
},
{
glyphname = Z;
lastChange = "2019-01-04 15:29:15 +0000";
layers = (
{
layerId = "E5E720F2-D3D9-49CA-89B4-644343A24549";
paths = (
{
closed = 1;
nodes = (
"57 0 LINE",
"57 14 LINE",
"636 660 LINE",
"248 660 LINE",
"39 474 LINE",
"35 477 LINE",
"174 715 LINE",
"177 715 LINE",
"227 680 LINE",
"746 680 LINE",
"746 660 LINE",
"192 20 LINE",
"601 20 LINE",
"860 256 LINE",
"864 256 LINE",
"683 -35 LINE",
"669 -35 LINE",
"622 0 LINE"
);
}
);
width = 899;
},
{
layerId = "02A3FD94-E825-4850-93A1-2C4DF2FA59C6";
paths = (
{
closed = 1;
nodes = (
"888 724 LINE",
"86 724 LINE",
"86 586 LINE",
"665 586 LINE",
"75 131 LINE",
"75 0 LINE",
"897 0 LINE",
"897 138 LINE",
"309 138 LINE",
"888 593 LINE"
);
}
);
width = 972;
}
);
unicode = 005A;
},
{
glyphname = a;
lastChange = "2019-03-07 01:16:50 +0000";
layers = (
{
anchors = (
{
name = bottom;
position = "{415, 0}";
},
{
name = ogonek;
position = "{747, 10}";
},
{
name = top;
position = "{415, 500}";
}
);
layerId = "E5E720F2-D3D9-49CA-89B4-644343A24549";
paths = (
{
closed = 1;
nodes = (
"536 64 OFFCURVE",
"417 25 OFFCURVE",
"318 23 CURVE SMOOTH",
"233 21 OFFCURVE",
"165 39 OFFCURVE",
"165 107 CURVE SMOOTH",
"165 218 OFFCURVE",
"335 243 OFFCURVE",
"466 272 CURVE SMOOTH",
"512 282 OFFCURVE",
"581 299 OFFCURVE",
"597 303 CURVE",
"597 122 LINE"
);
},
{
closed = 1;
nodes = (
"785 4 LINE",
"676 62 LINE",
"677 333 LINE SMOOTH",
"677 443 OFFCURVE",
"612 515 OFFCURVE",
"448 515 CURVE SMOOTH",
"224 515 OFFCURVE",
"118 410 OFFCURVE",
"95 384 CURVE",
"144 295 LINE",
"148 295 LINE",
"148 295 OFFCURVE",
"205 500 OFFCURVE",
"448 500 CURVE SMOOTH",
"556 500 OFFCURVE",
"597 443 OFFCURVE",
"597 318 CURVE",
"529 303 OFFCURVE",
"427 281 OFFCURVE",
"314 258 CURVE SMOOTH",
"146 224 OFFCURVE",
"75 182 OFFCURVE",
"75 101 CURVE SMOOTH",
"75 15 OFFCURVE",
"158 -15 OFFCURVE",
"294 -15 CURVE SMOOTH",
"425 -15 OFFCURVE",
"537 50 OFFCURVE",
"597 102 CURVE",
"597 0 LINE",
"785 0 LINE"
);
}
);
width = 830;
},
{
anchors = (
{
name = bottom;
position = "{448, 0}";
},
{
name = ogonek;
position = "{805, 10}";
},
{
name = top;
position = "{448, 500}";
}
);
layerId = "02A3FD94-E825-4850-93A1-2C4DF2FA59C6";
paths = (
{
closed = 1;
nodes = (
"840 2 LINE",
"820 102 LINE",
"820 302 LINE SMOOTH",
"820 445 OFFCURVE",
"681 540 OFFCURVE",
"432 540 CURVE SMOOTH",
"291 540 OFFCURVE",
"133 493 OFFCURVE",
"78 446 CURVE",
"116 330 LINE",
"118 324 LINE",
"189 380 OFFCURVE",
"331 410 OFFCURVE",
"432 410 CURVE SMOOTH",
"557 410 OFFCURVE",
"657 397 OFFCURVE",
"660 310 CURVE",
"424 310 LINE SMOOTH",
"156 310 OFFCURVE",
"55 250 OFFCURVE",
"55 145 CURVE SMOOTH",
"55 23 OFFCURVE",
"156 -18 OFFCURVE",
"353 -18 CURVE SMOOTH",
"462 -18 OFFCURVE",
"600 18 OFFCURVE",
"660 73 CURVE",
"660 -1 LINE",
"840 -1 LINE"
);
},
{
closed = 1;
nodes = (
"267 99 OFFCURVE",
"226 115 OFFCURVE",
"226 155 CURVE SMOOTH",
"226 200 OFFCURVE",
"269 218 OFFCURVE",
"397 218 CURVE SMOOTH",
"660 218 LINE",
"660 209 LINE",
"660 141 OFFCURVE",
"551 99 OFFCURVE",
"398 99 CURVE SMOOTH"
);
}
);
width = 895;
}
);
unicode = 0061;
},
{
glyphname = ae;
lastChange = "2019-03-18 22:12:47 +0000";
layers = (
{
layerId = "E5E720F2-D3D9-49CA-89B4-644343A24549";
paths = (
{
closed = 1;
nodes = (
"1238 404 OFFCURVE",
"1117 515 OFFCURVE",
"921 514 CURVE SMOOTH",
"733 515 OFFCURVE",
"605 393 OFFCURVE",
"598 250 CURVE SMOOTH",
"590 96 OFFCURVE",
"747 -18 OFFCURVE",
"921 -18 CURVE SMOOTH",
"1059 -18 OFFCURVE",
"1178 48 OFFCURVE",
"1207 107 CURVE",
"1192 124 LINE",
"1176 78 OFFCURVE",
"1063 21 OFFCURVE",
"949 23 CURVE SMOOTH",
"822 25 OFFCURVE",
"688 116 OFFCURVE",
"688 265 CURVE",
"1238 255 LINE"
);
},
{
closed = 1;
nodes = (
"688 460 OFFCURVE",
"815 500 OFFCURVE",
"921 500 CURVE SMOOTH",
"1093 500 OFFCURVE",
"1153 392 OFFCURVE",
"1153 296 CURVE",
"688 281 LINE"
);
},
{
closed = 1;
nodes = (
"536 65 OFFCURVE",
"417 26 OFFCURVE",
"318 24 CURVE SMOOTH",
"233 22 OFFCURVE",
"165 40 OFFCURVE",
"165 108 CURVE SMOOTH",
"165 219 OFFCURVE",
"335 243 OFFCURVE",
"466 272 CURVE SMOOTH",
"512 282 OFFCURVE",
"581 299 OFFCURVE",
"597 303 CURVE",
"597 123 LINE"
);
},
{
closed = 1;
nodes = (
"676 162 LINE",
"677 333 LINE SMOOTH",
"678 443 OFFCURVE",
"612 515 OFFCURVE",
"448 515 CURVE SMOOTH",
"224 515 OFFCURVE",
"118 410 OFFCURVE",
"95 384 CURVE",
"144 295 LINE",
"148 295 LINE",
"148 295 OFFCURVE",
"205 500 OFFCURVE",
"448 500 CURVE SMOOTH",
"556 500 OFFCURVE",
"597 443 OFFCURVE",
"597 318 CURVE",
"529 303 OFFCURVE",
"427 281 OFFCURVE",
"314 258 CURVE SMOOTH",
"146 224 OFFCURVE",
"75 183 OFFCURVE",
"75 102 CURVE SMOOTH",
"75 16 OFFCURVE",
"158 -14 OFFCURVE",
"294 -14 CURVE SMOOTH",
"425 -14 OFFCURVE",
"537 51 OFFCURVE",
"597 103 CURVE"
);
}
);
width = 1278;
},
{
associatedMasterId = "02A3FD94-E825-4850-93A1-2C4DF2FA59C6";
layerId = "868F1000-622F-400C-B380-63CF03326A22";
name = "Bold Extended Mar 7 19, 02:23";
paths = (
{
closed = 1;
nodes = (
"641 127 OFFCURVE",
"512 90 OFFCURVE",
"426 87 CURVE SMOOTH",
"338 84 OFFCURVE",
"285 89 OFFCURVE",
"285 130 CURVE SMOOTH",
"285 168 OFFCURVE",
"343 182 OFFCURVE",
"440 199 CURVE SMOOTH",
"520 213 OFFCURVE",
"600 226 OFFCURVE",
"680 237 CURVE",
"680 177 LINE"
);
},
{
closed = 1;
nodes = (
"840 102 CURVE",
"840 302 LINE SMOOTH",
"840 442 OFFCURVE",
"704 540 OFFCURVE",
"492 540 CURVE SMOOTH",
"321 540 OFFCURVE",
"170 481 OFFCURVE",
"106 416 CURVE",
"144 292 LINE",
"146 286 LINE",
"235 356 OFFCURVE",
"338 410 OFFCURVE",
"492 410 CURVE SMOOTH",
"594 410 OFFCURVE",
"675 374 OFFCURVE",
"680 316 CURVE",
"586 306 OFFCURVE",
"482 300 OFFCURVE",
"291 269 CURVE SMOOTH",
"161 248 OFFCURVE",
"75 201 OFFCURVE",
"75 115 CURVE SMOOTH",
"75 28 OFFCURVE",
"166 -28 OFFCURVE",
"313 -28 CURVE SMOOTH",
"494 -28 OFFCURVE",
"609 -4 OFFCURVE"
);
},
{
closed = 1;
nodes = (
"1486 400 OFFCURVE",
"1363 542 OFFCURVE",
"1080 542 CURVE SMOOTH",
"832 542 OFFCURVE",
"682 410 OFFCURVE",
"682 240 CURVE SMOOTH",
"682 80 OFFCURVE",
"848 -24 OFFCURVE",
"1099 -24 CURVE SMOOTH",
"1260 -24 OFFCURVE",
"1356 -1 OFFCURVE",
"1426 39 CURVE",
"1378 151 LINE",
"1332 119 OFFCURVE",
"1213 100 OFFCURVE",
"1099 100 CURVE SMOOTH",
"960 100 OFFCURVE",
"857 123 OFFCURVE",
"857 207 CURVE",
"1486 207 LINE"
);
},
{
closed = 1;
nodes = (
"867 373 OFFCURVE",
"968 409 OFFCURVE",
"1092 409 CURVE SMOOTH",
"1217 409 OFFCURVE",
"1319 374 OFFCURVE",
"1319 301 CURVE",
"867 301 LINE"
);
}
);
width = 1526;
},
{
layerId = "02A3FD94-E825-4850-93A1-2C4DF2FA59C6";
paths = (
{
closed = 1;
nodes = (
"1486 400 OFFCURVE",
"1363 542 OFFCURVE",
"1080 542 CURVE SMOOTH",
"832 542 OFFCURVE",
"682 410 OFFCURVE",
"682 240 CURVE SMOOTH",
"682 80 OFFCURVE",
"848 -24 OFFCURVE",
"1099 -24 CURVE SMOOTH",
"1260 -24 OFFCURVE",
"1356 -1 OFFCURVE",
"1426 39 CURVE",
"1378 151 LINE",
"1332 119 OFFCURVE",
"1213 100 OFFCURVE",
"1099 100 CURVE SMOOTH",
"960 100 OFFCURVE",
"857 123 OFFCURVE",
"857 207 CURVE",
"1486 207 LINE"
);
},
{
closed = 1;
nodes = (
"867 373 OFFCURVE",
"968 409 OFFCURVE",
"1092 409 CURVE SMOOTH",
"1217 409 OFFCURVE",
"1319 374 OFFCURVE",
"1319 301 CURVE",
"867 301 LINE"
);
},
{
closed = 1;
nodes = (
"805 102 LINE",
"805 302 LINE SMOOTH",
"805 445 OFFCURVE",
"666 540 OFFCURVE",
"417 540 CURVE SMOOTH",
"276 540 OFFCURVE",
"118 493 OFFCURVE",
"63 446 CURVE",
"101 330 LINE",
"103 324 LINE",
"174 380 OFFCURVE",
"316 410 OFFCURVE",
"417 410 CURVE SMOOTH",
"542 410 OFFCURVE",
"642 397 OFFCURVE",
"645 310 CURVE",
"409 310 LINE SMOOTH",
"141 310 OFFCURVE",
"40 250 OFFCURVE",
"40 145 CURVE SMOOTH",
"40 23 OFFCURVE",
"141 -18 OFFCURVE",
"338 -18 CURVE SMOOTH",
"447 -18 OFFCURVE",
"642 11 OFFCURVE",
"725 109 CURVE"
);
},
{
closed = 1;
nodes = (
"252 99 OFFCURVE",
"211 115 OFFCURVE",
"211 155 CURVE SMOOTH",
"211 200 OFFCURVE",
"254 218 OFFCURVE",
"382 218 CURVE SMOOTH",
"645 218 LINE",
"645 209 LINE",
"645 141 OFFCURVE",
"536 99 OFFCURVE",
"383 99 CURVE SMOOTH"
);
}
);
width = 1526;
}
);
leftKerningGroup = a;
rightKerningGroup = e;
unicode = 00E6;
},
{
glyphname = b;
lastChange = "2019-03-18 22:31:45 +0000";
layers = (
{
layerId = "E5E720F2-D3D9-49CA-89B4-644343A24549";
paths = (
{
closed = 1;
nodes = (
"50 696 LINE",
"162 634 LINE",
"162 65 LINE",
"162 4 LINE",
"162 0 LINE",
"164 0 LINE",
"242 50 LINE",
"242 65 LINE",
"242 700 LINE",
"50 700 LINE"
);
},
{
closed = 1;
nodes = (
"174 305 LINE",
"188 363 OFFCURVE",
"252 490 OFFCURVE",
"442 493 CURVE",
"601 493 OFFCURVE",
"677 375 OFFCURVE",
"677 240 CURVE",
"677 100 OFFCURVE",
"601 -5 OFFCURVE",
"443 -4 CURVE",
"253 -4 OFFCURVE",
"198 111 OFFCURVE",
"174 160 CURVE",
"174 137 LINE",
"196 91 OFFCURVE",
"253 -19 OFFCURVE",
"443 -19 CURVE",
"647 -18 OFFCURVE",
"767 103 OFFCURVE",
"767 240 CURVE",
"767 378 OFFCURVE",
"647 507 OFFCURVE",
"442 507 CURVE",
"253 507 OFFCURVE",
"190 383 OFFCURVE",
"174 328 CURVE"
);
}
);
width = 807;
},
{
layerId = "02A3FD94-E825-4850-93A1-2C4DF2FA59C6";
paths = (
{
closed = 1;
nodes = (
"80 748 LINE",
"80 684 LINE",
"80 83 LINE",
"80 3 LINE",
"80 0 LINE",
"239 0 LINE",
"248 70 LINE",
"248 694 LINE",
"248 750 LINE",
"80 750 LINE"
);
},
{
closed = 1;
nodes = (
"247 332 LINE SMOOTH",
"282 375 OFFCURVE",
"375 404 OFFCURVE",
"480 404 CURVE SMOOTH",
"597 404 OFFCURVE",
"675 342 OFFCURVE",
"675 248 CURVE SMOOTH",
"675 154 OFFCURVE",
"597 91 OFFCURVE",
"480 91 CURVE SMOOTH",
"371 91 OFFCURVE",
"278 119 OFFCURVE",
"247 161 CURVE SMOOTH",
"247 68 LINE",
"296 7 OFFCURVE",
"400 -29 OFFCURVE",
"506 -29 CURVE SMOOTH",
"712 -29 OFFCURVE",
"848 79 OFFCURVE",
"849 248 CURVE SMOOTH",
"850 410 OFFCURVE",
"712 519 OFFCURVE",
"506 519 CURVE SMOOTH",
"393 519 OFFCURVE",
"290 476 OFFCURVE",
"247 426 CURVE"
);
}
);
width = 889;
}
);
unicode = 0062;
},
{
glyphname = c;
lastChange = "2019-03-18 22:11:25 +0000";
layers = (
{
anchors = (
{
name = bottom;
position = "{360, 0}";
},
{
name = top;
position = "{360, 500}";
}
);
layerId = "E5E720F2-D3D9-49CA-89B4-644343A24549";
paths = (
{
closed = 1;
nodes = (
"675 384 LINE",
"675 384 OFFCURVE",
"599 520 OFFCURVE",
"363 514 CURVE SMOOTH",
"175 509 OFFCURVE",
"47 393 OFFCURVE",
"40 250 CURVE SMOOTH",
"32 90 OFFCURVE",
"189 -19 OFFCURVE",
"363 -19 CURVE SMOOTH",
"551 -19 OFFCURVE",
"650 77 OFFCURVE",
"679 136 CURVE",
"664 153 LINE",
"648 107 OFFCURVE",
"555 20 OFFCURVE",
"391 22 CURVE SMOOTH",
"254 24 OFFCURVE",
"130 120 OFFCURVE",
"130 250 CURVE",
"130 414 OFFCURVE",
"216 500 OFFCURVE",
"363 500 CURVE SMOOTH",
"513 500 OFFCURVE",
"577 400 OFFCURVE",
"600 295 CURVE",
"604 295 LINE"
);
}
);
width = 719;
},
{
layerId = "02A3FD94-E825-4850-93A1-2C4DF2FA59C6";
paths = (
{
closed = 1;
nodes = (
"40 84 OFFCURVE",
"212 -30 OFFCURVE",
"447 -30 CURVE SMOOTH",
"601 -30 OFFCURVE",
"724 0 OFFCURVE",
"794 39 CURVE",
"736 161 LINE",
"691 125 OFFCURVE",
"566 100 OFFCURVE",
"447 100 CURVE SMOOTH",
"308 100 OFFCURVE",
"215 162 OFFCURVE",
"215 256 CURVE SMOOTH",
"215 350 OFFCURVE",
"308 412 OFFCURVE",
"447 412 CURVE SMOOTH",
"566 412 OFFCURVE",
"692 373 OFFCURVE",
"737 337 CURVE",
"795 458 LINE",
"726 497 OFFCURVE",
"601 542 OFFCURVE",
"447 542 CURVE SMOOTH",
"212 542 OFFCURVE",
"40 428 OFFCURVE",
"40 256 CURVE SMOOTH"
);
}
);
width = 835;
}
);
rightKerningGroup = a;
unicode = 0063;
},
{
glyphname = ccedilla;
lastChange = "2019-03-05 19:21:02 +0000";
layers = (
{
components = (
{
name = c;
},
{
name = cedillacomb;
transform = "{1, 0, 0, 1, 215, 0}";
}
);
layerId = "E5E720F2-D3D9-49CA-89B4-644343A24549";
width = 719;
},
{
anchors = (
{
name = _bottom;
position = "{195, 0}";
},
{
name = bottom;
position = "{195, -186}";
}
);
components = (
{
name = c;
}
);
layerId = "02A3FD94-E825-4850-93A1-2C4DF2FA59C6";
paths = (
{
closed = 1;
nodes = (
"132 -186 LINE",
"316 -186 LINE",
"419 0 LINE",
"254 0 LINE",
"130 -182 LINE"
);
}
);
width = 835;
}
);
leftKerningGroup = c;
rightKerningGroup = c;
rightMetricsKey = "=c";
unicode = 00E7;
},
{
glyphname = d;
lastChange = "2019-03-18 22:31:16 +0000";
layers = (
{
layerId = "E5E720F2-D3D9-49CA-89B4-644343A24549";
paths = (
{
closed = 1;
nodes = (
"757 4 LINE",
"645 65 LINE",
"645 700 LINE",
"453 700 LINE",
"453 695 LINE",
"565 636 LINE",
"565 65 LINE",
"565 0 LINE",
"757 0 LINE"
);
},
{
closed = 1;
nodes = (
"633 328 LINE",
"617 383 OFFCURVE",
"554 507 OFFCURVE",
"365 507 CURVE",
"160 507 OFFCURVE",
"40 378 OFFCURVE",
"40 240 CURVE",
"40 103 OFFCURVE",
"160 -18 OFFCURVE",
"364 -19 CURVE",
"554 -19 OFFCURVE",
"611 91 OFFCURVE",
"633 137 CURVE",
"633 160 LINE",
"609 111 OFFCURVE",
"554 -4 OFFCURVE",
"364 -4 CURVE",
"206 -5 OFFCURVE",
"130 100 OFFCURVE",
"130 240 CURVE",
"130 375 OFFCURVE",
"206 493 OFFCURVE",
"365 493 CURVE",
"555 490 OFFCURVE",
"619 363 OFFCURVE",
"633 305 CURVE"
);
}
);
width = 767;
},
{
layerId = "02A3FD94-E825-4850-93A1-2C4DF2FA59C6";
paths = (
{
closed = 1;
nodes = (
"809 3 LINE",
"809 97 LINE",
"809 748 LINE",
"809 750 LINE",
"641 750 LINE",
"641 647 LINE",
"641 597 LINE",
"641 0 LINE",
"809 0 LINE"
);
},
{
closed = 1;
nodes = (
"642 425 LINE",
"599 475 OFFCURVE",
"496 518 OFFCURVE",
"383 518 CURVE SMOOTH",
"177 518 OFFCURVE",
"39 409 OFFCURVE",
"40 247 CURVE SMOOTH",
"41 78 OFFCURVE",
"177 -30 OFFCURVE",
"383 -30 CURVE SMOOTH",
"489 -30 OFFCURVE",
"593 6 OFFCURVE",
"642 67 CURVE",
"642 160 LINE SMOOTH",
"611 118 OFFCURVE",
"518 90 OFFCURVE",
"409 90 CURVE SMOOTH",
"292 90 OFFCURVE",
"214 153 OFFCURVE",
"214 247 CURVE SMOOTH",
"214 341 OFFCURVE",
"292 403 OFFCURVE",
"409 403 CURVE SMOOTH",
"514 403 OFFCURVE",
"607 374 OFFCURVE",
"642 331 CURVE SMOOTH"
);
}
);
width = 889;
}
);
unicode = 0064;
},
{
glyphname = e;
lastChange = "2019-03-18 22:11:03 +0000";
layers = (
{
anchors = (
{
name = bottom;
position = "{363, -14}";
},
{
name = ogonek;
position = "{648, 10}";
},
{
name = top;
position = "{360, 500}";
}
);
layerId = "E5E720F2-D3D9-49CA-89B4-644343A24549";
paths = (
{
closed = 1;
nodes = (
"680 404 OFFCURVE",
"559 515 OFFCURVE",
"363 514 CURVE SMOOTH",
"175 515 OFFCURVE",
"47 393 OFFCURVE",
"40 250 CURVE SMOOTH",
"32 89 OFFCURVE",
"189 -20 OFFCURVE",
"363 -20 CURVE SMOOTH",
"501 -20 OFFCURVE",
"620 46 OFFCURVE",
"649 105 CURVE",
"634 122 LINE",
"618 76 OFFCURVE",
"505 19 OFFCURVE",
"391 21 CURVE SMOOTH",
"264 23 OFFCURVE",
"130 114 OFFCURVE",
"130 265 CURVE",
"680 255 LINE"
);
},
{
closed = 1;
nodes = (
"130 460 OFFCURVE",
"257 500 OFFCURVE",
"363 500 CURVE SMOOTH",
"535 500 OFFCURVE",
"595 392 OFFCURVE",
"595 296 CURVE",
"130 281 LINE"
);
}
);
width = 720;
},
{
anchors = (
{
name = bottom;
position = "{442, 0}";
},
{
name = ogonek;
position = "{796, 10}";
},
{
name = top;
position = "{442, 500}";
}
);
hints = (
{
place = "{177.614, 0}";
}
);
layerId = "02A3FD94-E825-4850-93A1-2C4DF2FA59C6";
paths = (
{
closed = 1;
nodes = (
"844 400 OFFCURVE",
"721 542 OFFCURVE",
"438 542 CURVE SMOOTH",
"190 542 OFFCURVE",
"40 410 OFFCURVE",
"40 240 CURVE SMOOTH",
"40 80 OFFCURVE",
"206 -24 OFFCURVE",
"457 -24 CURVE SMOOTH",
"618 -24 OFFCURVE",
"714 -1 OFFCURVE",
"784 39 CURVE",
"736 151 LINE",
"690 119 OFFCURVE",
"571 100 OFFCURVE",
"457 100 CURVE SMOOTH",
"318 100 OFFCURVE",
"215 123 OFFCURVE",
"215 207 CURVE",
"844 207 LINE"
);
},
{
closed = 1;
nodes = (
"217 373 OFFCURVE",
"318 409 OFFCURVE",
"442 409 CURVE SMOOTH",
"567 409 OFFCURVE",
"669 374 OFFCURVE",
"669 301 CURVE",
"217 301 LINE"
);
}
);
width = 884;
}
);
unicode = 0065;
},
{
glyphname = eogonek;
lastChange = "2019-03-05 19:30:44 +0000";
layers = (
{
components = (
{
name = e;
}
);
layerId = "E5E720F2-D3D9-49CA-89B4-644343A24549";
paths = (
{
closed = 1;
nodes = (
"254 0 LINE",
"171 -38 OFFCURVE",
"130 -75 OFFCURVE",
"130 -111 CURVE SMOOTH",
"130 -130 OFFCURVE",
"138 -146 OFFCURVE",
"153 -159 CURVE SMOOTH",
"168 -172 OFFCURVE",
"189 -178 OFFCURVE",
"215 -178 CURVE SMOOTH",
"236 -178 OFFCURVE",
"258 -172 OFFCURVE",
"279 -160 CURVE SMOOTH",
"300 -148 OFFCURVE",
"316 -134 OFFCURVE",
"329 -118 CURVE",
"318 -108 LINE",
"294 -133 OFFCURVE",
"269 -146 OFFCURVE",
"243 -146 CURVE SMOOTH",
"206 -146 OFFCURVE",
"188 -130 OFFCURVE",
"188 -98 CURVE SMOOTH",
"188 -61 OFFCURVE",
"220 -28 OFFCURVE",
"285 0 CURVE"
);
}
);
width = 720;
},
{
components = (
{
name = e;
}
);
layerId = "02A3FD94-E825-4850-93A1-2C4DF2FA59C6";
paths = (
{
closed = 1;
nodes = (
"371 -252 OFFCURVE",
"412 -248 OFFCURVE",
"440 -240 CURVE",
"440 -141 LINE",
"436 -140 LINE",
"406 -150 OFFCURVE",
"374 -155 OFFCURVE",
"339 -155 CURVE SMOOTH",
"287 -155 OFFCURVE",
"262 -144 OFFCURVE",
"262 -117 CURVE SMOOTH",
"262 -77 OFFCURVE",
"318 -40 OFFCURVE",
"440 0 CURVE",
"272 0 LINE",
"160 -43 OFFCURVE",
"110 -84 OFFCURVE",
"110 -145 CURVE SMOOTH",
"110 -217 OFFCURVE",
"178 -252 OFFCURVE",
"324 -252 CURVE SMOOTH"
);
}
);
width = 884;
}
);
leftKerningGroup = e;
rightKerningGroup = e;
unicode = 0119;
},
{
glyphname = f;
lastChange = "2019-03-18 22:37:51 +0000";
layers = (
{
associatedMasterId = "02A3FD94-E825-4850-93A1-2C4DF2FA59C6";
layerId = "494F8E0D-4B3B-40BE-8208-33503F52D9F8";
name = "Bold Extended Mar 22 18, 02:00";
paths = (
{
closed = 1;
nodes = (
"624 581 LINE",
"657 712 LINE",
"593 768 OFFCURVE",
"353 781 OFFCURVE",
"251 711 CURVE SMOOTH",
"170 655 OFFCURVE",
"161 574 OFFCURVE",
"161 492 CURVE",
"160 40 LINE",
"160 6 LINE",
"160 0 LINE",
"336 0 LINE",
"336 8 LINE",
"336 42 LINE",
"338 464 LINE",
"338 547 OFFCURVE",
"336 579 OFFCURVE",
"383 605 CURVE SMOOTH",
"447 640 OFFCURVE",
"565 612 OFFCURVE",
"623 577 CURVE"
);
},
{
closed = 1;
nodes = (
"561 512 LINE",
"80 511 LINE",
"80 391 LINE",
"561 392 LINE"
);
}
);
width = 597;
},
{
layerId = "02A3FD94-E825-4850-93A1-2C4DF2FA59C6";
paths = (
{
closed = 1;
nodes = (
"574 591 LINE",
"573 587 LINE",
"516 660 OFFCURVE",
"421 672 OFFCURVE",
"358 636 CURVE SMOOTH",
"301 604 OFFCURVE",
"294 547 OFFCURVE",
"293 512 CURVE",
"521 512 LINE",
"521 392 LINE",
"293 392 LINE",
"291 42 LINE",
"291 4 LINE",
"291 0 LINE",
"130 0 LINE",
"130 4 LINE",
"130 40 LINE",
"131 391 LINE",
"40 391 LINE",
"40 511 LINE",
"131 511 LINE",
"133 612 OFFCURVE",
"181 708 OFFCURVE",
"281 751 CURVE SMOOTH",
"389 797 OFFCURVE",
"520 781 OFFCURVE",
"607 712 CURVE"
);
}
);
width = 634;
},
{
associatedMasterId = "E5E720F2-D3D9-49CA-89B4-644343A24549";
layerId = "45E5422F-602F-41B5-BD4A-E8F30D151FFF";
name = "Regular Mar 22 18, 02:00";
paths = (
{
closed = 1;
nodes = (
"558 615 OFFCURVE",
"508 687 OFFCURVE",
"388 687 CURVE SMOOTH",
"245 687 OFFCURVE",
"193 605 OFFCURVE",
"193 481 CURVE",
"190 65 LINE",
"353 4 LINE",
"353 0 LINE",
"0 0 LINE",
"0 4 LINE",
"113 65 LINE",
"115 481 LINE",
"115 630 OFFCURVE",
"212 700 OFFCURVE",
"406 700 CURVE",
"521 700 OFFCURVE",
"620 664 OFFCURVE",
"645 615 CURVE",
"599 520 LINE",
"597 520 LINE"
);
},
{
closed = 1;
nodes = (
"3 470 LINE",
"3 488 LINE",
"503 488 LINE",
"503 470 LINE"
);
}
);
width = 627;
},
{
layerId = "E5E720F2-D3D9-49CA-89B4-644343A24549";
paths = (
{
closed = 1;
nodes = (
"659 520 LINE",
"657 520 LINE",
"618 615 OFFCURVE",
"568 687 OFFCURVE",
"448 687 CURVE SMOOTH",
"308 687 OFFCURVE",
"255 608 OFFCURVE",
"253 488 CURVE",
"563 488 LINE",
"563 470 LINE",
"253 470 LINE",
"250 65 LINE",
"413 4 LINE",
"413 0 LINE",
"60 0 LINE",
"60 4 LINE",
"173 65 LINE",
"175 470 LINE",
"63 470 LINE",
"63 488 LINE",
"175 488 LINE",
"178 632 OFFCURVE",
"275 700 OFFCURVE",
"466 700 CURVE SMOOTH",
"581 700 OFFCURVE",
"680 664 OFFCURVE",
"705 615 CURVE"
);
}
);
width = 645;
}
);
unicode = 0066;
},
{
glyphname = g;
lastChange = "2019-03-07 02:03:21 +0000";
layers = (
{
layerId = "E5E720F2-D3D9-49CA-89B4-644343A24549";
paths = (
{
closed = 1;
nodes = (
"502 120 OFFCURVE",
"607 194 OFFCURVE",
"607 306 CURVE SMOOTH",
"607 435 OFFCURVE",
"502 521 OFFCURVE",
"344 521 CURVE SMOOTH",
"192 521 OFFCURVE",
"89 444 OFFCURVE",
"88 328 CURVE SMOOTH",
"87 203 OFFCURVE",
"189 120 OFFCURVE",
"344 120 CURVE SMOOTH"
);
},
{
closed = 1;
nodes = (
"232 139 OFFCURVE",
"170 234 OFFCURVE",
"170 329 CURVE",
"170 427 OFFCURVE",
"232 504 OFFCURVE",
"344 504 CURVE",
"455 504 OFFCURVE",
"530 427 OFFCURVE",
"530 329 CURVE",
"530 234 OFFCURVE",
"454 139 OFFCURVE",
"344 139 CURVE"
);
},
{
closed = 1;
nodes = (
"193 154 OFFCURVE",
"79 122 OFFCURVE",
"79 68 CURVE SMOOTH",
"79 29 OFFCURVE",
"119 6 OFFCURVE",
"184 -8 CURVE",
"236 -17 OFFCURVE",
"440 -46 OFFCURVE",
"563 -63 CURVE SMOOTH",
"615 -70 OFFCURVE",
"627 -94 OFFCURVE",
"627 -117 CURVE SMOOTH",
"627 -170 OFFCURVE",
"549 -200 OFFCURVE",
"419 -200 CURVE",
"245 -199 OFFCURVE",
"120 -145 OFFCURVE",
"120 -84 CURVE",
"120 -49 OFFCURVE",
"173 -10 OFFCURVE",
"213 -10 CURVE",
"213 -3 LINE",
"120 -7 OFFCURVE",
"39 -42 OFFCURVE",
"40 -94 CURVE",
"39 -171 OFFCURVE",
"176 -218 OFFCURVE",
"413 -218 CURVE",
"576 -218 OFFCURVE",
"706 -184 OFFCURVE",
"707 -105 CURVE",
"706 -43 OFFCURVE",
"651 -5 OFFCURVE",
"571 5 CURVE",
"238 51 LINE",
"185 61 OFFCURVE",
"166 74 OFFCURVE",
"165 93 CURVE",
"166 119 OFFCURVE",
"217 146 OFFCURVE",
"254 146 CURVE",
"243 154 LINE"
);
},
{
closed = 1;
nodes = (
"740 511 OFFCURVE",
"701 521 OFFCURVE",
"651 511 CURVE",
"618 504 OFFCURVE",
"570 478 OFFCURVE",
"530 447 CURVE",
"537 440 LINE",
"602 485 OFFCURVE",
"678 486 OFFCURVE",
"701 386 CURVE",
"705 385 LINE",
"721 409 OFFCURVE",
"741 453 OFFCURVE",
"757 477 CURVE"
);
}
);
width = 787;
},
{
layerId = "02A3FD94-E825-4850-93A1-2C4DF2FA59C6";
paths = (
{
closed = 1;
nodes = (
"624 -47 OFFCURVE",
"565 -83 OFFCURVE",
"417 -94 CURVE SMOOTH",
"313 -102 OFFCURVE",
"221 -87 OFFCURVE",
"95 -41 CURVE",
"95 -170 LINE",
"190 -203 OFFCURVE",
"282 -215 OFFCURVE",
"417 -213 CURVE SMOOTH",
"676 -209 OFFCURVE",
"780 -136 OFFCURVE",
"780 45 CURVE SMOOTH",
"780 500 LINE",
"615 500 LINE",
"623 31 LINE SMOOTH"
);
},
{
closed = 1;
nodes = (
"622 421 LINE",
"575 482 OFFCURVE",
"474 518 OFFCURVE",
"372 518 CURVE SMOOTH",
"172 518 OFFCURVE",
"41 410 OFFCURVE",
"40 241 CURVE SMOOTH",
"39 78 OFFCURVE",
"172 -20 OFFCURVE",
"372 -20 CURVE SMOOTH",
"480 -20 OFFCURVE",
"583 7 OFFCURVE",
"630 63 CURVE",
"628 161 LINE",
"592 115 OFFCURVE",
"500 85 OFFCURVE",
"397 85 CURVE SMOOTH",
"284 85 OFFCURVE",
"208 147 OFFCURVE",
"208 241 CURVE SMOOTH",
"208 335 OFFCURVE",
"284 398 OFFCURVE",
"397 398 CURVE SMOOTH",
"502 398 OFFCURVE",
"592 370 OFFCURVE",
"622 328 CURVE"
);
}
);
width = 840;
},
{
associatedMasterId = "E5E720F2-D3D9-49CA-89B4-644343A24549";
layerId = "E063F66F-81B3-4D49-AC87-028EF02642AD";
name = "Mar 14 18, 18:00";
paths = (
{
closed = 1;
nodes = (
"478 120 OFFCURVE",
"568 213 OFFCURVE",
"568 306 CURVE SMOOTH",
"568 401 OFFCURVE",
"463 521 OFFCURVE",
"305 521 CURVE SMOOTH",
"142 521 OFFCURVE",
"50 420 OFFCURVE",
"49 328 CURVE SMOOTH",
"48 240 OFFCURVE",
"133 120 OFFCURVE",
"305 120 CURVE SMOOTH"
);
},
{
closed = 1;
nodes = (
"193 139 OFFCURVE",
"142 234 OFFCURVE",
"142 329 CURVE",
"142 427 OFFCURVE",
"193 504 OFFCURVE",
"305 504 CURVE",
"416 504 OFFCURVE",
"481 427 OFFCURVE",
"481 329 CURVE",
"481 234 OFFCURVE",
"415 139 OFFCURVE",
"305 139 CURVE"
);
},
{
closed = 1;
nodes = (
"169 152 OFFCURVE",
"10 142 OFFCURVE",
"10 73 CURVE SMOOTH",
"10 18 OFFCURVE",
"59 -16 OFFCURVE",
"131 -29 CURVE",
"183 -38 OFFCURVE",
"387 -60 OFFCURVE",
"510 -79 CURVE SMOOTH",
"550 -85 OFFCURVE",
"577 -106 OFFCURVE",
"577 -128 CURVE SMOOTH",
"577 -173 OFFCURVE",
"480 -206 OFFCURVE",
"335 -206 CURVE",
"183 -205 OFFCURVE",
"82 -164 OFFCURVE",
"82 -109 CURVE",
"82 -62 OFFCURVE",
"111 -28 OFFCURVE",
"154 -30 CURVE",
"154 -23 LINE",
"128 -24 OFFCURVE",
"0 -21 OFFCURVE",
"1 -106 CURVE SMOOTH",
"0 -193 OFFCURVE",
"160 -218 OFFCURVE",
"335 -218 CURVE",
"518 -218 OFFCURVE",
"667 -200 OFFCURVE",
"668 -106 CURVE",
"666 -47 OFFCURVE",
"636 -9 OFFCURVE",
"532 13 CURVE SMOOTH",
"382 44 OFFCURVE",
"99 26 OFFCURVE",
"96 96 CURVE",
"97 122 OFFCURVE",
"148 146 OFFCURVE",
"185 146 CURVE",
"174 154 LINE"
);
},
{
closed = 1;
nodes = (
"701 511 OFFCURVE",
"662 521 OFFCURVE",
"612 511 CURVE",
"579 504 OFFCURVE",
"531 478 OFFCURVE",
"491 447 CURVE",
"498 440 LINE",
"563 485 OFFCURVE",
"639 486 OFFCURVE",
"662 386 CURVE",
"666 385 LINE",
"682 409 OFFCURVE",
"702 453 OFFCURVE",
"718 477 CURVE"
);
}
);
width = 718;
}
);
unicode = 0067;
},
{
glyphname = h;
lastChange = "2019-03-18 22:54:10 +0000";
layers = (
{
layerId = "E5E720F2-D3D9-49CA-89B4-644343A24549";
paths = (
{
closed = 1;
nodes = (
"50 696 LINE",
"162 634 LINE",
"162 65 LINE",
"50 4 LINE",
"50 0 LINE",
"353 0 LINE",
"353 4 LINE",
"242 65 LINE",
"242 700 LINE",
"50 700 LINE"
);
},
{
closed = 1;
nodes = (
"239 345 OFFCURVE",
"291 493 OFFCURVE",
"507 493 CURVE SMOOTH",
"618 493 OFFCURVE",
"673 433 OFFCURVE",
"673 324 CURVE SMOOTH",
"673 57 LINE",
"560 4 LINE",
"560 0 LINE",
"863 0 LINE",
"863 4 LINE",
"753 57 LINE",
"753 324 LINE SMOOTH",
"753 433 OFFCURVE",
"692 512 OFFCURVE",
"512 511 CURVE SMOOTH",
"309 510 OFFCURVE",
"239 383 OFFCURVE",
"239 383 CURVE",
"239 345 LINE"
);
}
);
width = 903;
},
{
layerId = "02A3FD94-E825-4850-93A1-2C4DF2FA59C6";
paths = (
{
closed = 1;
nodes = (
"80 747 LINE",
"80 668 LINE",
"80 66 LINE",
"80 2 LINE",
"80 0 LINE",
"248 0 LINE",
"248 3 LINE",
"248 66 LINE",
"248 750 LINE",
"80 750 LINE"
);
},
{
closed = 1;
nodes = (
"254 339 OFFCURVE",
"334 409 OFFCURVE",
"505 409 CURVE SMOOTH",
"635 409 OFFCURVE",
"695 340 OFFCURVE",
"695 191 CURVE SMOOTH",
"695 66 LINE",
"695 3 LINE",
"695 0 LINE",
"863 0 LINE",
"863 3 LINE",
"863 66 LINE",
"863 191 LINE SMOOTH",
"863 387 OFFCURVE",
"811 539 OFFCURVE",
"531 539 CURVE SMOOTH",
"334 539 OFFCURVE",
"249 440 OFFCURVE",
"193 358 CURVE",
"193 252 LINE"
);
}
);
width = 938;
}
);
unicode = 0068;
},
{
glyphname = i;
lastChange = "2019-03-18 22:30:26 +0000";
layers = (
{
components = (
{
name = idotless;
transform = "{1, 0, 0, 1, 10, 0}";
}
);
layerId = "E5E720F2-D3D9-49CA-89B4-644343A24549";
paths = (
{
closed = 1;
nodes = (
"232 600 OFFCURVE",
"252 620 OFFCURVE",
"252 650 CURVE SMOOTH",
"252 680 OFFCURVE",
"232 700 OFFCURVE",
"202 700 CURVE SMOOTH",
"172 700 OFFCURVE",
"152 680 OFFCURVE",
"152 650 CURVE SMOOTH",
"152 620 OFFCURVE",
"172 600 OFFCURVE",
"202 600 CURVE SMOOTH"
);
},
{
closed = 1;
nodes = (
"50 496 LINE",
"165 434 LINE",
"165 65 LINE",
"50 4 LINE",
"50 0 LINE",
"353 0 LINE",
"353 4 LINE",
"240 65 LINE",
"240 500 LINE",
"50 500 LINE"
);
}
);
width = 403;
},
{
layerId = "02A3FD94-E825-4850-93A1-2C4DF2FA59C6";
paths = (
{
closed = 1;
nodes = (
"115 586 OFFCURVE",
"80 614 OFFCURVE",
"80 668 CURVE SMOOTH",
"80 722 OFFCURVE",
"115 750 OFFCURVE",
"169 750 CURVE",
"223 750 OFFCURVE",
"258 722 OFFCURVE",
"258 668 CURVE SMOOTH",
"258 614 OFFCURVE",
"223 586 OFFCURVE",
"169 586 CURVE SMOOTH"
);
},
{
closed = 1;
nodes = (
"85 497 LINE",
"85 418 LINE",
"85 66 LINE",
"85 2 LINE",
"85 0 LINE",
"253 0 LINE",
"253 3 LINE",
"253 66 LINE",
"253 500 LINE",
"85 500 LINE"
);
}
);
width = 338;
}
);
unicode = 0069;
},
{
glyphname = idotless;
lastChange = "2019-03-18 22:51:20 +0000";
layers = (
{
anchors = (
{
name = bottom;
position = "{192, 0}";
},
{
name = ogonek;
position = "{345, 10}";
},
{
name = top;
position = "{192, 500}";
}
);
layerId = "E5E720F2-D3D9-49CA-89B4-644343A24549";
paths = (
{
closed = 1;
nodes = (
"40 496 LINE",
"155 434 LINE",
"155 65 LINE",
"40 4 LINE",
"40 0 LINE",
"343 0 LINE",
"343 4 LINE",
"230 65 LINE",
"230 500 LINE",
"40 500 LINE"
);
}
);
width = 383;
},
{
anchors = (
{
name = bottom;
position = "{164, 0}";
},
{
name = ogonek;
position = "{299, 10}";
},
{
name = top;
position = "{164, 500}";
}
);
layerId = "02A3FD94-E825-4850-93A1-2C4DF2FA59C6";
paths = (
{
closed = 1;
nodes = (
"80 497 LINE",
"80 418 LINE",
"80 66 LINE",
"80 2 LINE",
"80 0 LINE",
"248 0 LINE",
"248 3 LINE",
"248 66 LINE",
"248 500 LINE",
"80 500 LINE"
);
}
);
width = 328;
}
);
leftKerningGroup = i;
rightKerningGroup = i;
unicode = 0131;
},
{
glyphname = iacute;
lastChange = "2019-03-05 19:21:59 +0000";
layers = (
{
components = (
{
name = idotless;
},
{
name = acutecomb;
transform = "{1, 0, 0, 1, 29, 0}";
}
);
layerId = "E5E720F2-D3D9-49CA-89B4-644343A24549";
width = 383;
},
{
anchors = (
{
name = _top;
position = "{168.5, 500}";
},
{
name = top;
position = "{168.5, 1000}";
}
);
components = (
{
name = idotless;
}
);
layerId = "02A3FD94-E825-4850-93A1-2C4DF2FA59C6";
paths = (
{
closed = 1;
nodes = (
"96 650 LINE",
"252 650 LINE",
"423 860 LINE",
"421 863 LINE",
"216 863 LINE",
"94 653 LINE"
);
}
);
width = 338;
}
);
leftKerningGroup = i;
rightKerningGroup = i;
unicode = 00ED;
},
{
glyphname = igrave;
lastChange = "2019-03-05 19:21:59 +0000";
layers = (
{
components = (
{
name = idotless;
},
{
name = gravecomb;
transform = "{1, 0, 0, 1, 29, 19}";
}
);
layerId = "E5E720F2-D3D9-49CA-89B4-644343A24549";
width = 383;
},
{
anchors = (
{
name = _top;
position = "{169, 500}";
},
{
name = top;
position = "{169, 1000}";
}
);
components = (
{
name = idotless;
}
);
layerId = "02A3FD94-E825-4850-93A1-2C4DF2FA59C6";
paths = (
{
closed = 1;
nodes = (
"233 653 LINE",
"111 863 LINE",
"-94 863 LINE",
"-96 860 LINE",
"75 650 LINE",
"231 650 LINE"
);
}
);
width = 338;
}
);
leftKerningGroup = i;
rightKerningGroup = i;
unicode = 00EC;
},
{
glyphname = j;
lastChange = "2019-01-04 15:47:43 +0000";
layers = (
{
layerId = "E5E720F2-D3D9-49CA-89B4-644343A24549";
paths = (
{
closed = 1;
nodes = (
"414 0 LINE",
"413 439 LINE",
"529 500 LINE",
"529 504 LINE",
"226 504 LINE",
"226 500 LINE",
"343 439 LINE",
"340 0 LINE"
);
},
{
closed = 1;
nodes = (
"414 0 LINE",
"414 -151 OFFCURVE",
"293 -200 OFFCURVE",
"213 -200 CURVE",
"123 -200 OFFCURVE",
"70 -169 OFFCURVE",
"40 -142 CURVE",
"75 -55 LINE",
"79 -55 LINE",
"213 -224 OFFCURVE",
"343 -236 OFFCURVE",
"340 0 CURVE"
);
}
);
width = 579;
},
{
layerId = "02A3FD94-E825-4850-93A1-2C4DF2FA59C6";
paths = (
{
closed = 1;
nodes = (
"310 586 OFFCURVE",
"275 614 OFFCURVE",
"275 668 CURVE SMOOTH",
"275 722 OFFCURVE",
"310 750 OFFCURVE",
"364 750 CURVE",
"418 750 OFFCURVE",
"453 722 OFFCURVE",
"453 668 CURVE SMOOTH",
"453 614 OFFCURVE",
"418 586 OFFCURVE",
"364 586 CURVE SMOOTH"
);
},
{
closed = 1;
nodes = (
"25 -173 LINE",
"61 -201 OFFCURVE",
"123 -215 OFFCURVE",
"205 -215 CURVE SMOOTH",
"365 -215 OFFCURVE",
"449 -108 OFFCURVE",
"449 97 CURVE SMOOTH",
"449 500 LINE",
"281 500 LINE",
"281 97 LINE SMOOTH",
"281 -27 OFFCURVE",
"255 -64 OFFCURVE",
"169 -64 CURVE SMOOTH",
"108 -64 OFFCURVE",
"75 -54 OFFCURVE",
"25 -20 CURVE"
);
}
);
width = 528;
}
);
unicode = 006A;
},
{
glyphname = k;
lastChange = "2019-03-18 22:51:51 +0000";
layers = (
{
layerId = "E5E720F2-D3D9-49CA-89B4-644343A24549";
paths = (
{
closed = 1;
nodes = (
"50 696 LINE",
"162 634 LINE",
"162 64 LINE",
"50 4 LINE",
"50 0 LINE",
"353 0 LINE",
"353 4 LINE",
"242 64 LINE",
"242 700 LINE",
"50 700 LINE"
);
},
{
closed = 1;
nodes = (
"518 500 LINE",
"518 496 LINE",
"601 438 LINE",
"201 200 LINE",
"209 179 LINE",
"760 496 LINE",
"760 500 LINE"
);
},
{
closed = 1;
nodes = (
"802 4 LINE",
"675 64 LINE",
"442 344 LINE",
"339 344 LINE",
"568 64 LINE",
"518 4 LINE",
"518 0 LINE",
"802 0 LINE"
);
}
);
width = 857;
},
{
layerId = "02A3FD94-E825-4850-93A1-2C4DF2FA59C6";
paths = (
{
closed = 1;
nodes = (
"80 747 LINE",
"80 668 LINE",
"80 66 LINE",
"80 2 LINE",
"80 0 LINE",
"248 0 LINE",
"248 3 LINE",
"248 66 LINE",
"248 750 LINE",
"80 750 LINE"
);
},
{
closed = 1;
nodes = (
"542 500 LINE",
"537 497 LINE",
"487 461 LINE",
"165 229 LINE",
"235 121 LINE",
"780 496 LINE",
"786 500 LINE"
);
},
{
closed = 1;
nodes = (
"835 1 LINE",
"792 42 LINE",
"425 392 LINE",
"284 289 LINE",
"545 36 LINE",
"582 1 LINE",
"583 0 LINE",
"836 0 LINE"
);
}
);
width = 876;
}
);
unicode = 006B;
},
{
glyphname = l;
lastChange = "2019-03-18 22:29:00 +0000";
layers = (
{
layerId = "E5E720F2-D3D9-49CA-89B4-644343A24549";
paths = (
{
closed = 1;
nodes = (
"50 696 LINE",
"165 634 LINE",
"165 65 LINE",
"50 4 LINE",
"50 0 LINE",
"353 0 LINE",
"353 4 LINE",
"240 65 LINE",
"240 700 LINE",
"50 700 LINE"
);
}
);
width = 403;
},
{
layerId = "02A3FD94-E825-4850-93A1-2C4DF2FA59C6";
paths = (
{
closed = 1;
nodes = (
"80 747 LINE",
"80 668 LINE",
"80 66 LINE",
"80 2 LINE",
"80 0 LINE",
"248 0 LINE",
"248 3 LINE",
"248 66 LINE",
"248 750 LINE",
"80 750 LINE"
);
}
);
width = 328;
}
);
unicode = 006C;
},
{
glyphname = m;
lastChange = "2019-03-05 15:19:26 +0000";
layers = (
{
layerId = "E5E720F2-D3D9-49CA-89B4-644343A24549";
paths = (
{
closed = 1;
nodes = (
"50 496 LINE",
"159 434 LINE",
"159 65 LINE",
"50 4 LINE",
"50 0 LINE",
"346 0 LINE",
"346 4 LINE",
"237 65 LINE",
"237 500 LINE",
"50 500 LINE"
);
},
{
closed = 1;
nodes = (
"234 345 OFFCURVE",
"285 493 OFFCURVE",
"496 493 CURVE SMOOTH",
"604 493 OFFCURVE",
"658 433 OFFCURVE",
"658 324 CURVE SMOOTH",
"658 57 LINE",
"547 4 LINE",
"547 0 LINE",
"843 0 LINE",
"843 4 LINE",
"736 57 LINE",
"736 324 LINE SMOOTH",
"736 433 OFFCURVE",
"676 512 OFFCURVE",
"501 511 CURVE SMOOTH",
"303 510 OFFCURVE",
"234 383 OFFCURVE",
"234 383 CURVE",
"234 345 LINE"
);
},
{
closed = 1;
nodes = (
"727 345 OFFCURVE",
"778 493 OFFCURVE",
"989 493 CURVE SMOOTH",
"1097 493 OFFCURVE",
"1151 433 OFFCURVE",
"1151 324 CURVE SMOOTH",
"1151 57 LINE",
"1040 4 LINE",
"1040 0 LINE",
"1336 0 LINE",
"1336 4 LINE",
"1229 57 LINE",
"1229 324 LINE SMOOTH",
"1229 433 OFFCURVE",
"1169 512 OFFCURVE",
"994 511 CURVE SMOOTH",
"796 510 OFFCURVE",
"727 383 OFFCURVE",
"727 383 CURVE",
"727 345 LINE"
);
}
);
width = 1376;
},
{
layerId = "02A3FD94-E825-4850-93A1-2C4DF2FA59C6";
paths = (
{
closed = 1;
nodes = (
"80 497 LINE",
"80 418 LINE",
"80 66 LINE",
"80 2 LINE",
"80 0 LINE",
"245 0 LINE",
"245 3 LINE",
"245 66 LINE",
"245 500 LINE",
"80 500 LINE"
);
},
{
closed = 1;
nodes = (
"254 339 OFFCURVE",
"364 409 OFFCURVE",
"477 409 CURVE SMOOTH",
"592 409 OFFCURVE",
"645 340 OFFCURVE",
"645 191 CURVE SMOOTH",
"645 66 LINE",
"645 3 LINE",
"645 0 LINE",
"804 0 LINE",
"804 3 LINE",
"804 66 LINE",
"804 191 LINE SMOOTH",
"804 387 OFFCURVE",
"748 539 OFFCURVE",
"500 539 CURVE SMOOTH",
"364 539 OFFCURVE",
"249 440 OFFCURVE",
"199 358 CURVE",
"199 252 LINE"
);
},
{
closed = 1;
nodes = (
"768 339 OFFCURVE",
"879 409 OFFCURVE",
"991 409 CURVE SMOOTH",
"1106 409 OFFCURVE",
"1160 340 OFFCURVE",
"1160 191 CURVE SMOOTH",
"1160 66 LINE",
"1160 3 LINE",
"1160 0 LINE",
"1318 0 LINE",
"1318 3 LINE",
"1318 66 LINE",
"1318 191 LINE SMOOTH",
"1318 387 OFFCURVE",
"1262 539 OFFCURVE",
"1014 539 CURVE SMOOTH",
"879 539 OFFCURVE",
"764 440 OFFCURVE",
"714 358 CURVE",
"714 252 LINE"
);
}
);
width = 1393;
}
);
unicode = 006D;
},
{
glyphname = n;
lastChange = "2019-03-18 22:54:31 +0000";
layers = (
{
anchors = (
{
name = bottom;
position = "{454, 0}";
},
{
name = top;
position = "{454, 500}";
}
);
layerId = "E5E720F2-D3D9-49CA-89B4-644343A24549";
paths = (
{
closed = 1;
nodes = (
"50 496 LINE",
"162 434 LINE",
"162 65 LINE",
"50 4 LINE",
"50 0 LINE",
"353 0 LINE",
"353 4 LINE",
"242 65 LINE",
"242 500 LINE",
"50 500 LINE"
);
},
{
closed = 1;
nodes = (
"239 345 OFFCURVE",
"291 493 OFFCURVE",
"507 493 CURVE SMOOTH",
"618 493 OFFCURVE",
"673 433 OFFCURVE",
"673 324 CURVE SMOOTH",
"673 57 LINE",
"560 4 LINE",
"560 0 LINE",
"863 0 LINE",
"863 4 LINE",
"753 57 LINE",
"753 324 LINE SMOOTH",
"753 433 OFFCURVE",
"692 512 OFFCURVE",
"512 511 CURVE SMOOTH",
"309 510 OFFCURVE",
"239 383 OFFCURVE",
"239 383 CURVE",
"239 345 LINE"
);
}
);
width = 903;
},
{
anchors = (
{
name = bottom;
position = "{469, 0}";
},
{
name = top;
position = "{469, 500}";
}
);
layerId = "02A3FD94-E825-4850-93A1-2C4DF2FA59C6";
paths = (
{
closed = 1;
nodes = (
"80 497 LINE",
"80 418 LINE",
"80 66 LINE",
"80 2 LINE",
"80 0 LINE",
"248 0 LINE",
"248 3 LINE",
"248 66 LINE",
"248 500 LINE",
"80 500 LINE"
);
},
{
closed = 1;
nodes = (
"254 339 OFFCURVE",
"374 409 OFFCURVE",
"505 409 CURVE SMOOTH",
"635 409 OFFCURVE",
"695 340 OFFCURVE",
"695 191 CURVE SMOOTH",
"695 66 LINE",
"695 3 LINE",
"695 0 LINE",
"863 0 LINE",
"863 3 LINE",
"863 66 LINE",
"863 191 LINE SMOOTH",
"863 387 OFFCURVE",
"811 539 OFFCURVE",
"531 539 CURVE SMOOTH",
"374 539 OFFCURVE",
"249 440 OFFCURVE",
"193 358 CURVE",
"193 252 LINE"
);
}
);
width = 938;
},
{
associatedMasterId = "02A3FD94-E825-4850-93A1-2C4DF2FA59C6";
layerId = "9090C3CC-F1FE-4452-96CC-F921471A7047";
name = "Mar 14 18, 20:11";
paths = (
{
closed = 1;
nodes = (
"50 497 LINE",
"50 418 LINE",
"50 66 LINE",
"50 2 LINE",
"50 0 LINE",
"228 0 LINE",
"228 3 LINE",
"228 66 LINE",
"228 500 LINE",
"50 500 LINE"
);
},
{
closed = 1;
nodes = (
"244 339 OFFCURVE",
"351 409 OFFCURVE",
"522 409 CURVE SMOOTH",
"652 409 OFFCURVE",
"712 340 OFFCURVE",
"712 191 CURVE SMOOTH",
"712 66 LINE",
"712 3 LINE",
"712 0 LINE",
"890 0 LINE",
"890 3 LINE",
"890 66 LINE",
"890 191 LINE SMOOTH",
"890 387 OFFCURVE",
"828 539 OFFCURVE",
"548 539 CURVE SMOOTH",
"351 539 OFFCURVE",
"239 440 OFFCURVE",
"170 328 CURVE",
"170 222 LINE"
);
}
);
width = 940;
}
);
unicode = 006E;
},
{
glyphname = o;
lastChange = "2019-03-18 22:07:25 +0000";
layers = (
{
anchors = (
{
name = bottom;
position = "{373, 0}";
},
{
name = center;
position = "{373, 250}";
},
{
name = ogonek;
position = "{678, 10}";
},
{
name = top;
position = "{373, 500}";
},
{
name = topright;
position = "{735, 500}";
}
);
layerId = "E5E720F2-D3D9-49CA-89B4-644343A24549";
paths = (
{
closed = 1;
nodes = (
"596 -20 OFFCURVE",
"705 102 OFFCURVE",
"705 244 CURVE SMOOTH",
"705 389 OFFCURVE",
"596 514 OFFCURVE",
"375 514 CURVE SMOOTH",
"166 514 OFFCURVE",
"41 389 OFFCURVE",
"40 244 CURVE SMOOTH",
"39 102 OFFCURVE",
"154 -20 OFFCURVE",
"375 -20 CURVE SMOOTH"
);
},
{
closed = 1;
nodes = (
"220 -6 OFFCURVE",
"129 107 OFFCURVE",
"129 244 CURVE SMOOTH",
"129 384 OFFCURVE",
"220 500 OFFCURVE",
"375 500 CURVE SMOOTH",
"531 500 OFFCURVE",
"616 384 OFFCURVE",
"616 244 CURVE SMOOTH",
"616 107 OFFCURVE",
"530 -6 OFFCURVE",
"375 -6 CURVE SMOOTH"
);
}
);
width = 745;
},
{
anchors = (
{
name = bottom;
position = "{448, 0}";
},
{
name = center;
position = "{448, 250}";
},
{
name = ogonek;
position = "{806, 10}";
},
{
name = top;
position = "{448, 500}";
},
{
name = topright;
position = "{876, 500}";
}
);
layerId = "02A3FD94-E825-4850-93A1-2C4DF2FA59C6";
paths = (
{
closed = 1;
nodes = (
"682 -30 OFFCURVE",
"856 81 OFFCURVE",
"856 249 CURVE SMOOTH",
"856 426 OFFCURVE",
"682 542 OFFCURVE",
"448 542 CURVE SMOOTH",
"207 542 OFFCURVE",
"40 426 OFFCURVE",
"40 249 CURVE SMOOTH",
"40 81 OFFCURVE",
"208 -30 OFFCURVE",
"448 -30 CURVE SMOOTH"
);
},
{
closed = 1;
nodes = (
"308 89 OFFCURVE",
"215 153 OFFCURVE",
"215 249 CURVE SMOOTH",
"215 347 OFFCURVE",
"308 412 OFFCURVE",
"448 412 CURVE SMOOTH",
"588 412 OFFCURVE",
"681 347 OFFCURVE",
"681 249 CURVE SMOOTH",
"681 153 OFFCURVE",
"588 89 OFFCURVE",
"448 89 CURVE SMOOTH"
);
}
);
width = 896;
},
{
associatedMasterId = "E5E720F2-D3D9-49CA-89B4-644343A24549";
layerId = "8EA5CE02-A908-4C9E-AF7B-C9EB020E4EC0";
name = "Mar 1 18, 16:53";
paths = (
{
closed = 1;
nodes = (
"579 -13 OFFCURVE",
"705 130 OFFCURVE",
"705 250 CURVE SMOOTH",
"705 368 OFFCURVE",
"589 514 OFFCURVE",
"377 514 CURVE SMOOTH",
"163 514 OFFCURVE",
"49 368 OFFCURVE",
"50 250 CURVE SMOOTH",
"49 131 OFFCURVE",
"173 -13 OFFCURVE",
"377 -14 CURVE SMOOTH"
);
},
{
closed = 1;
nodes = (
"222 21 OFFCURVE",
"141 114 OFFCURVE",
"141 250 CURVE SMOOTH",
"141 384 OFFCURVE",
"222 484 OFFCURVE",
"377 484 CURVE SMOOTH",
"532 484 OFFCURVE",
"614 384 OFFCURVE",
"614 250 CURVE SMOOTH",
"614 114 OFFCURVE",
"532 21 OFFCURVE",
"377 21 CURVE SMOOTH"
);
}
);
width = 755;
},
{
associatedMasterId = "02A3FD94-E825-4850-93A1-2C4DF2FA59C6";
layerId = "20C6595A-28A1-4A2E-A36C-9F65D888FA90";
name = "Mar 6 18, 18:17";
paths = (
{
closed = 1;
nodes = (
"672 -24 OFFCURVE",
"805 59 OFFCURVE",
"805 249 CURVE SMOOTH",
"805 440 OFFCURVE",
"672 526 OFFCURVE",
"413 526 CURVE SMOOTH",
"152 526 OFFCURVE",
"20 441 OFFCURVE",
"20 249 CURVE SMOOTH",
"20 60 OFFCURVE",
"152 -24 OFFCURVE",
"413 -24 CURVE SMOOTH"
);
},
{
closed = 1;
nodes = (
"282 107 OFFCURVE",
"214 156 OFFCURVE",
"214 249 CURVE SMOOTH",
"214 346 OFFCURVE",
"282 396 OFFCURVE",
"412 396 CURVE SMOOTH",
"543 396 OFFCURVE",
"612 346 OFFCURVE",
"612 249 CURVE SMOOTH",
"612 156 OFFCURVE",
"543 107 OFFCURVE",
"412 107 CURVE SMOOTH"
);
}
);
width = 825;
}
);
unicode = 006F;
},
{
glyphname = oslash;
lastChange = "2018-12-29 19:36:41 +0000";
layers = (
{
layerId = "E5E720F2-D3D9-49CA-89B4-644343A24549";
paths = (
{
closed = 1;
nodes = (
"606 -14 OFFCURVE",
"715 108 OFFCURVE",
"715 250 CURVE SMOOTH",
"715 395 OFFCURVE",
"606 514 OFFCURVE",
"385 514 CURVE SMOOTH",
"176 514 OFFCURVE",
"49 395 OFFCURVE",
"50 250 CURVE SMOOTH",
"49 108 OFFCURVE",
"164 -14 OFFCURVE",
"385 -14 CURVE SMOOTH"
);
},
{
closed = 1;
nodes = (
"230 0 OFFCURVE",
"139 113 OFFCURVE",
"139 250 CURVE SMOOTH",
"139 390 OFFCURVE",
"230 500 OFFCURVE",
"385 500 CURVE SMOOTH",
"541 500 OFFCURVE",
"626 390 OFFCURVE",
"626 250 CURVE SMOOTH",
"626 113 OFFCURVE",
"540 0 OFFCURVE",
"385 0 CURVE SMOOTH"
);
},
{
closed = 1;
nodes = (
"264 -128 LINE",
"520 632 LINE",
"499 640 LINE",
"244 -120 LINE"
);
}
);
width = 765;
},
{
layerId = "02A3FD94-E825-4850-93A1-2C4DF2FA59C6";
paths = (
{
closed = 1;
nodes = (
"40 81 OFFCURVE",
"208 -30 OFFCURVE",
"448 -30 CURVE SMOOTH",
"682 -30 OFFCURVE",
"856 81 OFFCURVE",
"856 249 CURVE SMOOTH",
"856 426 OFFCURVE",
"682 542 OFFCURVE",
"448 542 CURVE SMOOTH",
"207 542 OFFCURVE",
"40 426 OFFCURVE",
"40 249 CURVE SMOOTH"
);
},
{
closed = 1;
nodes = (
"215 347 OFFCURVE",
"308 412 OFFCURVE",
"448 412 CURVE SMOOTH",
"588 412 OFFCURVE",
"681 347 OFFCURVE",
"681 249 CURVE SMOOTH",
"681 153 OFFCURVE",
"588 89 OFFCURVE",
"448 89 CURVE SMOOTH",
"308 89 OFFCURVE",
"215 153 OFFCURVE",
"215 249 CURVE SMOOTH"
);
},
{
closed = 1;
nodes = (
"244 59 LINE",
"369 13 LINE"
);
},
{
closed = 1;
nodes = (
"643 442 LINE",
"525 498 LINE"
);
},
{
closed = 1;
nodes = (
"369 13 LINE",
"643 442 LINE",
"525 498 LINE",
"244 59 LINE"
);
}
);
width = 896;
}
);
unicode = 00F8;
},
{
glyphname = oe;
lastChange = "2018-12-29 20:52:33 +0000";
layers = (
{
layerId = "E5E720F2-D3D9-49CA-89B4-644343A24549";
paths = (
{
closed = 1;
nodes = (
"530 -14 OFFCURVE",
"630 108 OFFCURVE",
"630 250 CURVE SMOOTH",
"630 395 OFFCURVE",
"530 514 OFFCURVE",
"327 514 CURVE SMOOTH",
"136 514 OFFCURVE",
"19 395 OFFCURVE",
"20 250 CURVE SMOOTH",
"19 108 OFFCURVE",
"125 -14 OFFCURVE",
"327 -14 CURVE SMOOTH"
);
},
{
closed = 1;
nodes = (
"185 0 OFFCURVE",
"102 113 OFFCURVE",
"102 250 CURVE SMOOTH",
"102 390 OFFCURVE",
"185 500 OFFCURVE",
"327 500 CURVE SMOOTH",
"471 500 OFFCURVE",
"549 390 OFFCURVE",
"549 250 CURVE SMOOTH",
"549 113 OFFCURVE",
"470 0 OFFCURVE",
"327 0 CURVE SMOOTH"
);
},
{
closed = 1;
nodes = (
"1136 404 OFFCURVE",
"1025 515 OFFCURVE",
"845 514 CURVE SMOOTH",
"672 513 OFFCURVE",
"549 393 OFFCURVE",
"549 250 CURVE SMOOTH",
"549 95 OFFCURVE",
"685 -14 OFFCURVE",
"845 -14 CURVE SMOOTH",
"972 -14 OFFCURVE",
"1081 52 OFFCURVE",
"1108 111 CURVE",
"1094 128 LINE",
"1079 82 OFFCURVE",
"975 25 OFFCURVE",
"871 27 CURVE SMOOTH",
"754 29 OFFCURVE",
"631 120 OFFCURVE",
"631 265 CURVE",
"1136 255 LINE"
);
},
{
closed = 1;
nodes = (
"631 460 OFFCURVE",
"748 500 OFFCURVE",
"845 500 CURVE SMOOTH",
"1003 500 OFFCURVE",
"1058 392 OFFCURVE",
"1058 296 CURVE",
"631 281 LINE"
);
}
);
width = 1156;
},
{
layerId = "02A3FD94-E825-4850-93A1-2C4DF2FA59C6";
paths = (
{
closed = 1;
nodes = (
"682 -30 OFFCURVE",
"856 81 OFFCURVE",
"856 249 CURVE SMOOTH",
"856 426 OFFCURVE",
"682 542 OFFCURVE",
"448 542 CURVE SMOOTH",
"207 542 OFFCURVE",
"40 426 OFFCURVE",
"40 249 CURVE SMOOTH",
"40 81 OFFCURVE",
"208 -30 OFFCURVE",
"448 -30 CURVE SMOOTH"
);
},
{
closed = 1;
nodes = (
"308 89 OFFCURVE",
"215 153 OFFCURVE",
"215 249 CURVE SMOOTH",
"215 347 OFFCURVE",
"308 412 OFFCURVE",
"448 412 CURVE SMOOTH",
"588 412 OFFCURVE",
"681 347 OFFCURVE",
"681 249 CURVE SMOOTH",
"681 153 OFFCURVE",
"588 89 OFFCURVE",
"448 89 CURVE SMOOTH"
);
},
{
closed = 1;
nodes = (
"1486 400 OFFCURVE",
"1363 542 OFFCURVE",
"1080 542 CURVE SMOOTH",
"832 542 OFFCURVE",
"682 410 OFFCURVE",
"682 240 CURVE SMOOTH",
"682 80 OFFCURVE",
"848 -24 OFFCURVE",
"1099 -24 CURVE SMOOTH",
"1260 -24 OFFCURVE",
"1356 -1 OFFCURVE",
"1426 39 CURVE",
"1378 151 LINE",
"1332 119 OFFCURVE",
"1213 100 OFFCURVE",
"1099 100 CURVE SMOOTH",
"960 100 OFFCURVE",
"857 123 OFFCURVE",
"857 207 CURVE",
"1486 207 LINE"
);
},
{
closed = 1;
nodes = (
"859 373 OFFCURVE",
"960 409 OFFCURVE",
"1084 409 CURVE SMOOTH",
"1209 409 OFFCURVE",
"1311 374 OFFCURVE",
"1311 301 CURVE",
"859 301 LINE"
);
}
);
width = 1526;
}
);
unicode = 0153;
},
{
glyphname = p;
lastChange = "2019-03-18 22:38:42 +0000";
layers = (
{
layerId = "E5E720F2-D3D9-49CA-89B4-644343A24549";
paths = (
{
closed = 1;
nodes = (
"50 495 LINE",
"162 433 LINE",
"162 -136 LINE",
"50 -197 LINE",
"50 -201 LINE",
"403 -201 LINE",
"403 -197 LINE",
"242 -136 LINE",
"242 499 LINE",
"50 499 LINE"
);
},
{
closed = 1;
nodes = (
"208 363 OFFCURVE",
"272 490 OFFCURVE",
"462 493 CURVE",
"621 493 OFFCURVE",
"697 383 OFFCURVE",
"697 248 CURVE",
"697 108 OFFCURVE",
"621 3 OFFCURVE",
"463 4 CURVE",
"273 4 OFFCURVE",
"218 111 OFFCURVE",
"194 160 CURVE",
"194 137 LINE",
"216 91 OFFCURVE",
"273 -11 OFFCURVE",
"463 -11 CURVE",
"667 -10 OFFCURVE",
"787 111 OFFCURVE",
"787 248 CURVE",
"787 386 OFFCURVE",
"667 507 OFFCURVE",
"462 507 CURVE",
"273 507 OFFCURVE",
"210 383 OFFCURVE",
"194 328 CURVE",
"194 305 LINE"
);
}
);
width = 827;
},
{
layerId = "02A3FD94-E825-4850-93A1-2C4DF2FA59C6";
paths = (
{
closed = 1;
nodes = (
"60 497 LINE",
"60 417 LINE",
"60 -134 LINE",
"60 -198 LINE",
"60 -200 LINE",
"228 -200 LINE",
"228 -197 LINE",
"228 -134 LINE",
"228 500 LINE",
"60 500 LINE"
);
},
{
closed = 1;
nodes = (
"258 370 OFFCURVE",
"354 398 OFFCURVE",
"460 398 CURVE SMOOTH",
"577 398 OFFCURVE",
"655 335 OFFCURVE",
"655 241 CURVE SMOOTH",
"655 147 OFFCURVE",
"577 85 OFFCURVE",
"460 85 CURVE SMOOTH",
"358 85 OFFCURVE",
"262 114 OFFCURVE",
"227 157 CURVE SMOOTH",
"227 63 LINE",
"270 13 OFFCURVE",
"373 -30 OFFCURVE",
"486 -30 CURVE SMOOTH",
"692 -30 OFFCURVE",
"830 79 OFFCURVE",
"829 241 CURVE SMOOTH",
"828 410 OFFCURVE",
"692 518 OFFCURVE",
"486 518 CURVE SMOOTH",
"380 518 OFFCURVE",
"276 482 OFFCURVE",
"227 421 CURVE",
"227 328 LINE SMOOTH"
);
}
);
width = 869;
}
);
unicode = 0070;
},
{
glyphname = q;
lastChange = "2019-03-18 22:39:05 +0000";
layers = (
{
layerId = "E5E720F2-D3D9-49CA-89B4-644343A24549";
paths = (
{
closed = 1;
nodes = (
"663 500 LINE",
"585 409 LINE",
"585 -136 LINE",
"424 -197 LINE",
"424 -201 LINE",
"777 -201 LINE",
"777 -197 LINE",
"665 -136 LINE",
"665 433 LINE",
"665 496 LINE",
"665 500 LINE"
);
},
{
closed = 1;
nodes = (
"633 328 LINE",
"617 383 OFFCURVE",
"554 507 OFFCURVE",
"365 507 CURVE",
"160 507 OFFCURVE",
"40 386 OFFCURVE",
"40 248 CURVE",
"40 111 OFFCURVE",
"160 -10 OFFCURVE",
"364 -11 CURVE",
"554 -11 OFFCURVE",
"611 91 OFFCURVE",
"633 137 CURVE",
"633 160 LINE",
"609 111 OFFCURVE",
"554 4 OFFCURVE",
"364 4 CURVE",
"206 3 OFFCURVE",
"130 108 OFFCURVE",
"130 248 CURVE",
"130 383 OFFCURVE",
"206 493 OFFCURVE",
"365 493 CURVE",
"555 490 OFFCURVE",
"619 363 OFFCURVE",
"633 305 CURVE"
);
}
);
width = 787;
},
{
layerId = "02A3FD94-E825-4850-93A1-2C4DF2FA59C6";
paths = (
{
closed = 1;
nodes = (
"650 503 LINE",
"641 414 LINE",
"641 -145 LINE",
"641 -199 LINE",
"641 -202 LINE",
"809 -202 LINE",
"809 -200 LINE",
"809 -145 LINE",
"809 406 LINE",
"809 500 LINE",
"809 503 LINE"
);
},
{
closed = 1;
nodes = (
"642 421 LINE",
"593 482 OFFCURVE",
"489 518 OFFCURVE",
"383 518 CURVE SMOOTH",
"177 518 OFFCURVE",
"41 410 OFFCURVE",
"40 241 CURVE SMOOTH",
"39 79 OFFCURVE",
"177 -30 OFFCURVE",
"383 -30 CURVE SMOOTH",
"496 -30 OFFCURVE",
"599 13 OFFCURVE",
"642 63 CURVE",
"642 157 LINE SMOOTH",
"607 114 OFFCURVE",
"514 85 OFFCURVE",
"409 85 CURVE SMOOTH",
"292 85 OFFCURVE",
"214 147 OFFCURVE",
"214 241 CURVE SMOOTH",
"214 335 OFFCURVE",
"292 398 OFFCURVE",
"409 398 CURVE SMOOTH",
"518 398 OFFCURVE",
"611 370 OFFCURVE",
"642 328 CURVE SMOOTH"
);
}
);
width = 889;
}
);
unicode = 0071;
},
{
glyphname = r;
lastChange = "2019-03-18 22:52:34 +0000";
layers = (
{
layerId = "E5E720F2-D3D9-49CA-89B4-644343A24549";
paths = (
{
closed = 1;
nodes = (
"291 403 OFFCURVE",
"344 490 OFFCURVE",
"426 490 CURVE SMOOTH",
"503 490 OFFCURVE",
"547 430 OFFCURVE",
"547 322 CURVE",
"551 322 LINE",
"618 429 LINE",
"618 439 OFFCURVE",
"582 511 OFFCURVE",
"451 511 CURVE SMOOTH",
"351 511 OFFCURVE",
"281 428 OFFCURVE",
"239 333 CURVE",
"239 295 LINE"
);
},
{
closed = 1;
nodes = (
"50 496 LINE",
"162 434 LINE",
"162 65 LINE",
"50 4 LINE",
"50 0 LINE",
"383 0 LINE",
"383 4 LINE",
"242 65 LINE",
"242 500 LINE",
"50 500 LINE"
);
}
);
width = 673;
},
{
layerId = "02A3FD94-E825-4850-93A1-2C4DF2FA59C6";
paths = (
{
closed = 1;
nodes = (
"273 332 OFFCURVE",
"343 366 OFFCURVE",
"386 377 CURVE SMOOTH",
"446 392 OFFCURVE",
"524 392 OFFCURVE",
"582 379 CURVE",
"582 382 LINE",
"582 527 LINE",
"512 546 OFFCURVE",
"416 534 OFFCURVE",
"352 500 CURVE SMOOTH",
"315 480 OFFCURVE",
"258 434 OFFCURVE",
"238 387 CURVE",
"249 287 LINE"
);
},
{
closed = 1;
nodes = (
"80 497 LINE",
"80 418 LINE",
"80 66 LINE",
"80 2 LINE",
"80 0 LINE",
"248 0 LINE",
"248 3 LINE",
"248 66 LINE",
"248 500 LINE",
"80 500 LINE"
);
}
);
width = 627;
}
);
unicode = 0072;
},
{
glyphname = s;
lastChange = "2019-03-18 22:42:09 +0000";
layers = (
{
layerId = "E5E720F2-D3D9-49CA-89B4-644343A24549";
paths = (
{
closed = 1;
nodes = (
"60 198 LINE",
"64 204 LINE",
"155 71 OFFCURVE",
"306 -2 OFFCURVE",
"470 -2 CURVE SMOOTH",
"575 -2 OFFCURVE",
"640 33 OFFCURVE",
"640 97 CURVE SMOOTH",
"640 177 OFFCURVE",
"482 185 OFFCURVE",
"336 224 CURVE SMOOTH",
"201 260 OFFCURVE",
"86 298 OFFCURVE",
"86 389 CURVE SMOOTH",
"86 454 OFFCURVE",
"166 505 OFFCURVE",
"287 505 CURVE SMOOTH",
"361 505 OFFCURVE",
"478 471 OFFCURVE",
"548 441 CURVE",
"603 492 LINE",
"715 295 LINE",
"711 289 LINE",
"582 437 OFFCURVE",
"369 486 OFFCURVE",
"287 486 CURVE",
"216 488 OFFCURVE",
"168 461 OFFCURVE",
"168 405 CURVE SMOOTH",
"168 361 OFFCURVE",
"206 328 OFFCURVE",
"373 288 CURVE SMOOTH",
"505 256 OFFCURVE",
"723 242 OFFCURVE",
"722 115 CURVE SMOOTH",
"721 3 OFFCURVE",
"599 -20 OFFCURVE",
"483 -20 CURVE SMOOTH",
"387 -20 OFFCURVE",
"277 12 OFFCURVE",
"208 53 CURVE SMOOTH",
"150 -2 LINE"
);
}
);
width = 782;
},
{
associatedMasterId = "02A3FD94-E825-4850-93A1-2C4DF2FA59C6";
layerId = "F63F2C06-AC4E-4D14-AF31-84C124F643A4";
name = "Bold Extended Mar 26 18, 19:48";
paths = (
{
closed = 1;
nodes = (
"75 134 LINE",
"75 141 LINE",
"143 120 OFFCURVE",
"299 91 OFFCURVE",
"376 91 CURVE SMOOTH",
"457 91 OFFCURVE",
"604 81 OFFCURVE",
"604 138 CURVE SMOOTH",
"604 189 OFFCURVE",
"485 189 OFFCURVE",
"421 192 CURVE SMOOTH",
"233 201 OFFCURVE",
"78 237 OFFCURVE",
"78 366 CURVE SMOOTH",
"78 518 OFFCURVE",
"285 535 OFFCURVE",
"460 535 CURVE SMOOTH",
"511 532 OFFCURVE",
"595 525 OFFCURVE",
"704 498 CURVE",
"753 484 LINE",
"732 378 LINE",
"731 373 LINE",
"664 394 OFFCURVE",
"503 422 OFFCURVE",
"427 422 CURVE SMOOTH",
"346 422 OFFCURVE",
"246 430 OFFCURVE",
"246 378 CURVE SMOOTH",
"246 313 OFFCURVE",
"396 325 OFFCURVE",
"501 314 CURVE SMOOTH",
"636 299 OFFCURVE",
"772 283 OFFCURVE",
"772 144 CURVE SMOOTH",
"772 -26 OFFCURVE",
"551 -30 OFFCURVE",
"376 -30 CURVE SMOOTH",
"321 -30 OFFCURVE",
"237 -23 OFFCURVE",
"115 3 CURVE",
"75 14 LINE"
);
}
);
width = 847;
},
{
guideLines = (
{
angle = 60.6978;
position = "{240, 416}";
}
);
layerId = "02A3FD94-E825-4850-93A1-2C4DF2FA59C6";
paths = (
{
closed = 1;
nodes = (
"711 362 LINE",
"664 385 OFFCURVE",
"588 416 OFFCURVE",
"439 424 CURVE SMOOTH",
"350 429 OFFCURVE",
"230 431 OFFCURVE",
"230 378 CURVE SMOOTH",
"230 326 OFFCURVE",
"345 335 OFFCURVE",
"529 322 CURVE SMOOTH",
"672 312 OFFCURVE",
"795 295 OFFCURVE",
"798 159 CURVE SMOOTH",
"798 28 OFFCURVE",
"634 -27 OFFCURVE",
"431 -27 CURVE SMOOTH",
"284 -27 OFFCURVE",
"133 5 OFFCURVE",
"40 66 CURVE",
"101 178 LINE",
"182 126 OFFCURVE",
"295 94 OFFCURVE",
"424 94 CURVE SMOOTH",
"533 94 OFFCURVE",
"632 104 OFFCURVE",
"632 147 CURVE SMOOTH",
"632 200 OFFCURVE",
"577 184 OFFCURVE",
"350 200 CURVE SMOOTH",
"169 213 OFFCURVE",
"83 287 OFFCURVE",
"83 367 CURVE SMOOTH",
"83 475 OFFCURVE",
"208 552 OFFCURVE",
"444 541 CURVE SMOOTH",
"622 533 OFFCURVE",
"710 494 OFFCURVE",
"766 470 CURVE"
);
}
);
width = 838;
},
{
associatedMasterId = "02A3FD94-E825-4850-93A1-2C4DF2FA59C6";
guideLines = (
{
angle = 60.6978;
position = "{195, 416}";
}
);
layerId = "6122442E-1B3F-4911-860F-5F66D8DC4ACC";
name = "Oct 28 18, 12:40";
paths = (
{
closed = 1;
nodes = (
"659 -30 OFFCURVE",
"770 36 OFFCURVE",
"770 157 CURVE SMOOTH",
"770 402 OFFCURVE",
"199 283 OFFCURVE",
"199 377 CURVE SMOOTH",
"199 408 OFFCURVE",
"254 421 OFFCURVE",
"372 421 CURVE SMOOTH",
"506 421 OFFCURVE",
"607 401 OFFCURVE",
"710 365 CURVE",
"716 367 LINE",
"716 498 LINE",
"618 528 OFFCURVE",
"511 542 OFFCURVE",
"394 542 CURVE SMOOTH",
"158 542 OFFCURVE",
"40 482 OFFCURVE",
"40 365 CURVE SMOOTH",
"40 119 OFFCURVE",
"611 241 OFFCURVE",
"611 145 CURVE SMOOTH",
"611 107 OFFCURVE",
"549 91 OFFCURVE",
"410 91 CURVE SMOOTH",
"279 91 OFFCURVE",
"170 109 OFFCURVE",
"47 161 CURVE",
"43 159 LINE",
"43 25 LINE",
"135 -9 OFFCURVE",
"278 -30 OFFCURVE",
"415 -30 CURVE SMOOTH"
);
}
);
width = 810;
}
);
unicode = 0073;
},
{
glyphname = germandbls;
lastChange = "2019-03-05 13:13:33 +0000";
layers = (
{
layerId = "E5E720F2-D3D9-49CA-89B4-644343A24549";
paths = (
{
closed = 1;
nodes = (
"870 228 OFFCURVE",
"797 251 OFFCURVE",
"693 289 CURVE SMOOTH",
"599 323 LINE SMOOTH",
"561 337 OFFCURVE",
"540 346 OFFCURVE",
"527 356 CURVE SMOOTH",
"514 366 OFFCURVE",
"509 375 OFFCURVE",
"509 388 CURVE SMOOTH",
"509 408 OFFCURVE",
"544 446 OFFCURVE",
"606 483 CURVE SMOOTH",
"646 507 OFFCURVE",
"690 529 OFFCURVE",
"707 545 CURVE SMOOTH",
"723 561 OFFCURVE",
"730 576 OFFCURVE",
"730 596 CURVE SMOOTH",
"730 632 OFFCURVE",
"709 655 OFFCURVE",
"659 673 CURVE SMOOTH",
"607 691 OFFCURVE",
"558 699 OFFCURVE",
"490 699 CURVE SMOOTH",
"384 699 OFFCURVE",
"318 683 OFFCURVE",
"261 643 CURVE SMOOTH",
"205 604 OFFCURVE",
"179 554 OFFCURVE",
"174 485 CURVE",
"70 485 LINE",
"70 471 LINE",
"174 471 LINE",
"174 67 LINE",
"60 4 LINE",
"60 0 LINE",
"275 0 LINE",
"275 506 LINE SMOOTH",
"275 565 OFFCURVE",
"289 602 OFFCURVE",
"323 633 CURVE SMOOTH",
"358 664 OFFCURVE",
"406 686 OFFCURVE",
"490 686 CURVE SMOOTH",
"599 686 OFFCURVE",
"644 650 OFFCURVE",
"644 586 CURVE SMOOTH",
"644 540 OFFCURVE",
"616 510 OFFCURVE",
"555 469 CURVE SMOOTH",
"466 410 OFFCURVE",
"432 384 OFFCURVE",
"432 357 CURVE SMOOTH",
"432 321 OFFCURVE",
"462 295 OFFCURVE",
"536 268 CURVE SMOOTH",
"635 232 LINE SMOOTH",
"731 197 OFFCURVE",
"800 179 OFFCURVE",
"800 122 CURVE SMOOTH",
"800 64 OFFCURVE",
"749 10 OFFCURVE",
"666 10 CURVE SMOOTH",
"537 10 OFFCURVE",
"411 103 OFFCURVE",
"321 218 CURVE",
"317 218 LINE",
"384 0 LINE",
"388 0 LINE",
"448 73 LINE",
"473 54 OFFCURVE",
"554 -3 OFFCURVE",
"663 -3 CURVE SMOOTH",
"777 -3 OFFCURVE",
"870 48 OFFCURVE",
"870 133 CURVE SMOOTH"
);
}
);
width = 930;
},
{
layerId = "02A3FD94-E825-4850-93A1-2C4DF2FA59C6";
paths = (
{
closed = 1;
nodes = (
"1043 -12 OFFCURVE",
"1186 74 OFFCURVE",
"1186 228 CURVE SMOOTH",
"1186 362 OFFCURVE",
"1073 432 OFFCURVE",
"856 443 CURVE",
"925 469 OFFCURVE",
"961 514 OFFCURVE",
"961 573 CURVE SMOOTH",
"961 684 OFFCURVE",
"839 742 OFFCURVE",
"605 742 CURVE SMOOTH",
"260 742 OFFCURVE",
"80 613 OFFCURVE",
"80 365 CURVE SMOOTH",
"80 0 LINE",
"250 0 LINE",
"250 344 LINE SMOOTH",
"250 530 OFFCURVE",
"364 627 OFFCURVE",
"583 627 CURVE SMOOTH",
"726 627 OFFCURVE",
"800 600 OFFCURVE",
"800 547 CURVE SMOOTH",
"800 505 OFFCURVE",
"732 435 OFFCURVE",
"602 342 CURVE",
"704 342 LINE SMOOTH",
"929 342 OFFCURVE",
"1046 308 OFFCURVE",
"1046 234 CURVE SMOOTH",
"1046 161 OFFCURVE",
"958 118 OFFCURVE",
"789 118 CURVE SMOOTH",
"641 118 OFFCURVE",
"504 139 OFFCURVE",
"388 179 CURVE",
"380 39 LINE",
"516 5 OFFCURVE",
"650 -12 OFFCURVE",
"769 -12 CURVE SMOOTH"
);
}
);
width = 1266;
}
);
unicode = 00DF;
},
{
glyphname = t;
lastChange = "2019-03-18 22:40:22 +0000";
layers = (
{
layerId = "02A3FD94-E825-4850-93A1-2C4DF2FA59C6";
paths = (
{
closed = 1;
nodes = (
"597 120 LINE",
"559 108 OFFCURVE",
"492 90 OFFCURVE",
"446 90 CURVE SMOOTH",
"368 90 OFFCURVE",
"335 122 OFFCURVE",
"335 197 CURVE SMOOTH",
"335 420 LINE",
"594 420 LINE",
"594 544 LINE",
"336 544 LINE",
"336 686 LINE",
"191 686 LINE",
"173 544 LINE",
"40 544 LINE",
"40 420 LINE",
"167 420 LINE",
"167 177 LINE SMOOTH",
"167 57 OFFCURVE",
"272 -36 OFFCURVE",
"411 -36 CURVE SMOOTH",
"466 -36 OFFCURVE",
"547 -24 OFFCURVE",
"597 -6 CURVE"
);
}
);
width = 637;
},
{
associatedMasterId = "E5E720F2-D3D9-49CA-89B4-644343A24549";
layerId = "1EDF00AC-D893-49B6-B11F-D1D2E7EEC2C1";
name = "Regular Mar 19 18, 02:08";
paths = (
{
closed = 1;
nodes = (
"40 482 LINE",
"152 482 LINE",
"152 180 LINE",
"232 180 LINE",
"232 482 LINE",
"649 482 LINE",
"649 500 LINE",
"232 500 LINE",
"232 620 LINE",
"112 500 LINE",
"40 500 LINE"
);
},
{
closed = 1;
nodes = (
"152 182 LINE",
"152 77 OFFCURVE",
"235 -20 OFFCURVE",
"421 -17 CURVE SMOOTH",
"632 -14 OFFCURVE",
"683 61 OFFCURVE",
"683 61 CURVE",
"652 163 LINE",
"649 163 LINE",
"606 48 OFFCURVE",
"510 5 OFFCURVE",
"418 5 CURVE SMOOTH",
"293 5 OFFCURVE",
"232 89 OFFCURVE",
"232 182 CURVE"
);
}
);
width = 717;
},
{
layerId = "E5E720F2-D3D9-49CA-89B4-644343A24549";
paths = (
{
closed = 1;
nodes = (
"591 163 LINE",
"591 111 OFFCURVE",
"552 0 OFFCURVE",
"415 0 CURVE SMOOTH",
"287 0 OFFCURVE",
"242 81 OFFCURVE",
"242 217 CURVE SMOOTH",
"242 469 LINE",
"605 469 LINE",
"605 487 LINE",
"242 487 LINE",
"242 650 LINE",
"238 650 LINE",
"119 487 LINE",
"40 487 LINE",
"40 469 LINE",
"153 469 LINE",
"152 202 LINE SMOOTH",
"151 62 OFFCURVE",
"229 -20 OFFCURVE",
"413 -20 CURVE SMOOTH",
"578 -20 OFFCURVE",
"621 115 OFFCURVE",
"629 156 CURVE"
);
}
);
width = 669;
},
{
associatedMasterId = "E5E720F2-D3D9-49CA-89B4-644343A24549";
layerId = "EB7C076B-B3C7-4013-915A-9344A374BD09";
name = "Jun 9 18, 14:46";
paths = (
{
closed = 1;
nodes = (
"617 164 LINE",
"601 133 OFFCURVE",
"556 16 OFFCURVE",
"411 16 CURVE SMOOTH",
"283 16 OFFCURVE",
"232 78 OFFCURVE",
"232 223 CURVE SMOOTH",
"232 469 LINE",
"595 469 LINE",
"595 487 LINE",
"232 487 LINE",
"232 650 LINE",
"228 650 LINE",
"109 487 LINE",
"30 487 LINE",
"30 469 LINE",
"143 469 LINE",
"142 208 LINE SMOOTH",
"141 68 OFFCURVE",
"227 -4 OFFCURVE",
"411 -4 CURVE SMOOTH",
"565 -4 OFFCURVE",
"624 134 OFFCURVE",
"635 152 CURVE"
);
}
);
width = 690;
}
);
unicode = 0074;
},
{
glyphname = u;
lastChange = "2019-03-18 22:53:24 +0000";
layers = (
{
anchors = (
{
name = bottom;
position = "{439, 0}";
},
{
name = ogonek;
position = "{802, 10}";
},
{
name = top;
position = "{439, 500}";
},
{
name = topright;
position = "{873, 500}";
}
);
layerId = "E5E720F2-D3D9-49CA-89B4-644343A24549";
paths = (
{
closed = 1;
nodes = (
"530 500 LINE",
"530 496 LINE",
"641 435 LINE",
"641 115 LINE",
"609 71 OFFCURVE",
"538 7 OFFCURVE",
"396 7 CURVE SMOOTH",
"285 7 OFFCURVE",
"230 67 OFFCURVE",
"230 176 CURVE SMOOTH",
"230 500 LINE",
"40 500 LINE",
"40 496 LINE",
"150 443 LINE",
"150 176 LINE SMOOTH",
"150 67 OFFCURVE",
"211 -12 OFFCURVE",
"391 -11 CURVE SMOOTH",
"530 -10 OFFCURVE",
"606 49 OFFCURVE",
"641 87 CURVE",
"641 0 LINE",
"833 0 LINE",
"833 4 LINE",
"721 66 LINE",
"721 500 LINE"
);
}
);
width = 883;
},
{
anchors = (
{
name = bottom;
position = "{449, 0}";
},
{
name = ogonek;
position = "{816, 10}";
},
{
name = top;
position = "{449, 500}";
},
{
name = topright;
position = "{888, 500}";
}
);
layerId = "02A3FD94-E825-4850-93A1-2C4DF2FA59C6";
paths = (
{
closed = 1;
nodes = (
"650 500 LINE",
"650 487 LINE",
"650 430 LINE",
"650 176 LINE",
"604 126 OFFCURVE",
"543 91 OFFCURVE",
"423 91 CURVE SMOOTH",
"293 91 OFFCURVE",
"243 160 OFFCURVE",
"243 309 CURVE SMOOTH",
"243 500 LINE",
"75 500 LINE",
"75 487 LINE",
"75 430 LINE",
"75 309 LINE SMOOTH",
"75 113 OFFCURVE",
"117 -30 OFFCURVE",
"397 -30 CURVE SMOOTH",
"534 -30 OFFCURVE",
"602 13 OFFCURVE",
"650 68 CURVE",
"650 0 LINE",
"818 0 LINE",
"818 10 LINE",
"818 74 LINE",
"818 500 LINE"
);
}
);
width = 898;
}
);
unicode = 0075;
},
{
glyphname = v;
lastChange = "2019-03-07 00:55:55 +0000";
layers = (
{
layerId = "E5E720F2-D3D9-49CA-89B4-644343A24549";
paths = (
{
closed = 1;
nodes = (
"399 79 LINE",
"622 428 LINE",
"539 486 LINE",
"539 490 LINE",
"781 490 LINE",
"781 486 LINE",
"643 428 LINE",
"412 61 LINE",
"452 0 LINE",
"349 0 LINE",
"72 428 LINE",
"-50 486 LINE",
"-50 490 LINE",
"235 490 LINE",
"235 486 LINE",
"164 428 LINE"
);
}
);
width = 731;
},
{
layerId = "02A3FD94-E825-4850-93A1-2C4DF2FA59C6";
paths = (
{
closed = 1;
nodes = (
"434 141 LINE",
"599 424 LINE",
"642 495 LINE",
"645 500 LINE",
"835 500 LINE",
"832 495 LINE",
"789 424 LINE",
"535 15 LINE",
"525 0 LINE",
"335 0 LINE",
"72 424 LINE",
"28 495 LINE",
"25 500 LINE",
"215 500 LINE",
"218 495 LINE",
"262 424 LINE"
);
}
);
width = 860;
}
);
unicode = 0076;
},
{
glyphname = w;
lastChange = "2019-01-04 16:16:15 +0000";
layers = (
{
layerId = "E5E720F2-D3D9-49CA-89B4-644343A24549";
paths = (
{
closed = 1;
nodes = (
"275 500 LINE",
"275 496 LINE",
"164 438 LINE",
"342 91 LINE",
"531 438 LINE",
"552 438 LINE",
"353 70 LINE",
"389 0 LINE",
"292 0 LINE",
"72 438 LINE",
"-50 496 LINE",
"-50 500 LINE"
);
},
{
closed = 1;
nodes = (
"635 500 LINE",
"635 496 LINE",
"564 438 LINE",
"744 86 LINE",
"912 438 LINE",
"829 496 LINE",
"829 500 LINE",
"1071 500 LINE",
"1071 496 LINE",
"933 438 LINE",
"756 64 LINE",
"789 0 LINE",
"692 0 LINE",
"472 438 LINE",
"350 496 LINE",
"350 500 LINE"
);
}
);
width = 1021;
},
{
layerId = "02A3FD94-E825-4850-93A1-2C4DF2FA59C6";
paths = (
{
closed = 1;
nodes = (
"209 500 LINE",
"210 498 LINE",
"244 423 LINE",
"369 141 LINE",
"542 500 LINE",
"718 500 LINE",
"472 15 LINE",
"465 0 LINE",
"279 0 LINE",
"65 424 LINE",
"28 495 LINE",
"25 500 LINE"
);
},
{
closed = 1;
nodes = (
"718 500 LINE",
"721 494 LINE",
"755 424 LINE",
"897 141 LINE",
"1035 424 LINE",
"1069 495 LINE",
"1072 500 LINE",
"1256 500 LINE",
"1254 495 LINE",
"1216 424 LINE",
"1000 15 LINE",
"993 0 LINE",
"806 0 LINE",
"583 424 LINE",
"544 495 LINE",
"542 500 LINE"
);
}
);
width = 1281;
}
);
unicode = 0077;
},
{
glyphname = x;
lastChange = "2019-03-18 22:04:43 +0000";
layers = (
{
layerId = "E5E720F2-D3D9-49CA-89B4-644343A24549";
paths = (
{
closed = 1;
nodes = (
"170 447 LINE",
"243 497 LINE",
"243 500 LINE",
"-50 500 LINE",
"-50 497 LINE",
"74 447 LINE",
"461 54 LINE",
"556 54 LINE"
);
},
{
closed = 1;
nodes = (
"665 3 LINE",
"665 0 LINE",
"372 0 LINE",
"372 3 LINE",
"460 54 LINE",
"556 54 LINE"
);
},
{
closed = 1;
nodes = (
"398 497 LINE",
"398 500 LINE",
"649 500 LINE",
"649 497 LINE",
"520 447 LINE",
"495 447 LINE"
);
},
{
closed = 1;
nodes = (
"297 251 LINE",
"65 31 LINE",
"92 31 LINE",
"310 239 LINE"
);
},
{
closed = 1;
nodes = (
"91 55 LINE",
"-37 4 LINE",
"-37 1 LINE",
"212 1 LINE",
"212 4 LINE",
"115 55 LINE"
);
},
{
closed = 1;
nodes = (
"338 264 LINE",
"520 447 LINE",
"495 447 LINE",
"324 276 LINE"
);
}
);
width = 615;
},
{
layerId = "02A3FD94-E825-4850-93A1-2C4DF2FA59C6";
paths = (
{
closed = 1;
nodes = (
"25 3 LINE",
"28 0 LINE",
"247 0 LINE",
"461 173 LINE",
"675 0 LINE",
"894 0 LINE",
"897 3 LINE",
"579 256 LINE",
"883 497 LINE",
"880 500 LINE",
"661 500 LINE",
"461 338 LINE",
"261 500 LINE",
"42 500 LINE",
"39 497 LINE",
"343 256 LINE"
);
}
);
width = 922;
}
);
unicode = 0078;
},
{
glyphname = y;
lastChange = "2019-02-20 15:59:56 +0000";
layers = (
{
anchors = (
{
name = bottom;
position = "{388, 0}";
},
{
name = top;
position = "{388, 500}";
}
);
guideLines = (
{
angle = 235.522;
position = "{506, 229}";
},
{
angle = 235.1669;
position = "{487, 234}";
}
);
layerId = "E5E720F2-D3D9-49CA-89B4-644343A24549";
paths = (
{
closed = 1;
nodes = (
"235 500 LINE",
"235 496 LINE",
"164 438 LINE",
"452 0 LINE",
"348 0 LINE",
"72 438 LINE",
"-50 496 LINE",
"-50 500 LINE"
);
},
{
closed = 1;
nodes = (
"781 496 LINE",
"643 438 LINE",
"369 29 LINE",
"352 40 LINE",
"622 438 LINE",
"539 496 LINE",
"539 500 LINE",
"781 500 LINE"
);
},
{
closed = 1;
nodes = (
"365 25 LINE",
"283 -94 OFFCURVE",
"224 -200 OFFCURVE",
"125 -200 CURVE",
"74 -198 OFFCURVE",
"20 -174 OFFCURVE",
"-9 -142 CURVE",
"26 -55 LINE",
"30 -55 LINE",
"154 -214 OFFCURVE",
"217 -162 OFFCURVE",
"350 36 CURVE"
);
}
);
width = 731;
},
{
anchors = (
{
name = bottom;
position = "{429, 0}";
},
{
name = top;
position = "{429, 500}";
}
);
layerId = "02A3FD94-E825-4850-93A1-2C4DF2FA59C6";
paths = (
{
closed = 1;
nodes = (
"239 -102 OFFCURVE",
"330 -62 OFFCURVE",
"330 1 CURVE",
"28 495 LINE",
"25 500 LINE",
"205 500 LINE",
"208 495 LINE",
"421 141 LINE",
"637 495 LINE",
"640 500 LINE",
"820 500 LINE",
"817 495 LINE",
"479 -49 LINE SMOOTH",
"382 -204 OFFCURVE",
"242 -239 OFFCURVE",
"107 -187 CURVE",
"148 -58 LINE"
);
}
);
width = 845;
}
);
unicode = 0079;
},
{
glyphname = z;
lastChange = "2019-01-08 19:24:48 +0000";
layers = (
{
layerId = "E5E720F2-D3D9-49CA-89B4-644343A24549";
paths = (
{
closed = 1;
nodes = (
"40 0 LINE",
"40 14 LINE",
"585 480 LINE",
"210 480 LINE",
"44 347 LINE",
"40 347 LINE",
"150 535 LINE",
"153 535 LINE",
"210 500 LINE",
"689 500 LINE",
"689 480 LINE",
"167 20 LINE",
"562 20 LINE",
"725 153 LINE",
"729 153 LINE",
"620 -35 LINE",
"616 -35 LINE",
"562 0 LINE"
);
}
);
width = 769;
},
{
layerId = "02A3FD94-E825-4850-93A1-2C4DF2FA59C6";
paths = (
{
closed = 1;
nodes = (
"811 121 LINE",
"351 121 LINE",
"804 417 LINE",
"804 519 LINE",
"75 519 LINE",
"75 398 LINE",
"535 398 LINE",
"82 102 LINE",
"82 0 LINE",
"811 0 LINE"
);
}
);
width = 886;
},
{
associatedMasterId = "02A3FD94-E825-4850-93A1-2C4DF2FA59C6";
layerId = "6C872FD8-43A5-4AC9-962C-E7BDB88E7962";
name = "Oct 5 18, 15:06";
paths = (
{
closed = 1;
nodes = (
"851 500 LINE",
"96 500 LINE",
"96 385 LINE",
"595 385 LINE",
"75 107 LINE",
"75 0 LINE",
"860 0 LINE",
"860 115 LINE",
"373 115 LINE",
"851 393 LINE"
);
}
);
width = 935;
}
);
unicode = 007A;
},
{
glyphname = zero;
lastChange = "2019-03-05 19:32:56 +0000";
layers = (
{
layerId = "E5E720F2-D3D9-49CA-89B4-644343A24549";
paths = (
{
closed = 1;
nodes = (
"596 -17 OFFCURVE",
"750 150 OFFCURVE",
"750 345 CURVE SMOOTH",
"750 538 OFFCURVE",
"596 714 OFFCURVE",
"399 714 CURVE SMOOTH",
"202 714 OFFCURVE",
"50 541 OFFCURVE",
"50 345 CURVE SMOOTH",
"50 152 OFFCURVE",
"202 -19 OFFCURVE",
"400 -18 CURVE SMOOTH"
);
},
{
closed = 1;
nodes = (
"234 8 OFFCURVE",
"158 114 OFFCURVE",
"158 345 CURVE SMOOTH",
"158 580 OFFCURVE",
"234 688 OFFCURVE",
"399 688 CURVE SMOOTH",
"564 688 OFFCURVE",
"640 580 OFFCURVE",
"640 345 CURVE SMOOTH",
"640 114 OFFCURVE",
"565 8 OFFCURVE",
"400 8 CURVE SMOOTH"
);
}
);
width = 800;
},
{
layerId = "02A3FD94-E825-4850-93A1-2C4DF2FA59C6";
paths = (
{
closed = 1;
nodes = (
"763 -32 OFFCURVE",
"940 128 OFFCURVE",
"940 365 CURVE SMOOTH",
"940 602 OFFCURVE",
"763 762 OFFCURVE",
"490 762 CURVE SMOOTH",
"217 762 OFFCURVE",
"40 602 OFFCURVE",
"40 365 CURVE SMOOTH",
"40 128 OFFCURVE",
"217 -32 OFFCURVE",
"490 -32 CURVE SMOOTH"
);
},
{
closed = 1;
nodes = (
"308 109 OFFCURVE",
"190 211 OFFCURVE",
"190 365 CURVE SMOOTH",
"190 519 OFFCURVE",
"303 621 OFFCURVE",
"490 621 CURVE SMOOTH",
"677 621 OFFCURVE",
"790 514 OFFCURVE",
"790 365 CURVE SMOOTH",
"790 216 OFFCURVE",
"672 109 OFFCURVE",
"490 109 CURVE SMOOTH"
);
}
);
width = 980;
}
);
unicode = 0030;
},
{
glyphname = one;
lastChange = "2018-11-06 21:42:54 +0000";
layers = (
{
layerId = "E5E720F2-D3D9-49CA-89B4-644343A24549";
paths = (
{
closed = 1;
nodes = (
"454 0 LINE",
"454 4 LINE",
"336 67 LINE",
"331 700 LINE",
"306 700 LINE",
"239 585 OFFCURVE",
"169 547 OFFCURVE",
"50 511 CURVE",
"60 500 LINE",
"252 550 OFFCURVE",
"261 564 OFFCURVE",
"261 440 CURVE",
"256 67 LINE",
"138 4 LINE",
"138 0 LINE"
);
}
);
width = 504;
},
{
layerId = "02A3FD94-E825-4850-93A1-2C4DF2FA59C6";
paths = (
{
closed = 1;
nodes = (
"379 0 LINE",
"554 0 LINE",
"554 734 LINE",
"412 734 LINE",
"323 656 OFFCURVE",
"198 600 OFFCURVE",
"75 585 CURVE",
"75 434 LINE",
"197 453 OFFCURVE",
"312 498 OFFCURVE",
"379 556 CURVE"
);
}
);
width = 629;
},
{
associatedMasterId = "E5E720F2-D3D9-49CA-89B4-644343A24549";
layerId = "1B950339-2A26-4D6A-AC4F-545DCCCC0E46";
name = "Nov 4 18, 23:46";
paths = (
{
closed = 1;
nodes = (
"387 0 LINE",
"387 4 LINE",
"269 67 LINE",
"264 700 LINE",
"194 700 LINE",
"194 653 OFFCURVE",
"160 474 OFFCURVE",
"10 474 CURVE",
"14 460 LINE",
"137 463 OFFCURVE",
"193 570 OFFCURVE",
"194 600 CURVE",
"189 67 LINE",
"50 4 LINE",
"50 0 LINE"
);
}
);
width = 437;
}
);
unicode = 0031;
},
{
glyphname = two;
lastChange = "2019-03-05 13:02:09 +0000";
layers = (
{
layerId = "E5E720F2-D3D9-49CA-89B4-644343A24549";
paths = (
{
closed = 1;
nodes = (
"574 714 OFFCURVE",
"702 644 OFFCURVE",
"702 513 CURVE",
"702 381 OFFCURVE",
"531 275 OFFCURVE",
"333 225 CURVE SMOOTH",
"174 185 OFFCURVE",
"94 116 OFFCURVE",
"91 78 CURVE",
"557 80 LINE",
"750 200 LINE",
"754 200 LINE",
"580 -34 LINE",
"555 0 LINE",
"50 0 LINE",
"50 136 OFFCURVE",
"141 194 OFFCURVE",
"353 257 CURVE SMOOTH",
"504 302 OFFCURVE",
"585 400 OFFCURVE",
"585 513 CURVE",
"585 624 OFFCURVE",
"503 691 OFFCURVE",
"381 691 CURVE",
"241 691 OFFCURVE",
"165 596 OFFCURVE",
"165 450 CURVE",
"161 450 LINE",
"75 524 LINE",
"75 637 OFFCURVE",
"197 714 OFFCURVE",
"381 714 CURVE"
);
}
);
width = 784;
},
{
layerId = "02A3FD94-E825-4850-93A1-2C4DF2FA59C6";
paths = (
{
closed = 1;
nodes = (
"50 0 LINE",
"928 0 LINE",
"928 140 LINE",
"251 140 LINE",
"268 183 OFFCURVE",
"387 229 OFFCURVE",
"562 270 CURVE SMOOTH",
"854 338 OFFCURVE",
"919 399 OFFCURVE",
"919 514 CURVE SMOOTH",
"919 653 OFFCURVE",
"761 743 OFFCURVE",
"523 743 CURVE SMOOTH",
"344 743 OFFCURVE",
"201 709 OFFCURVE",
"83 638 CURVE",
"89 492 LINE",
"194 563 OFFCURVE",
"344 601 OFFCURVE",
"519 601 CURVE SMOOTH",
"663 601 OFFCURVE",
"749 559 OFFCURVE",
"749 513 CURVE SMOOTH",
"749 480 OFFCURVE",
"725 459 OFFCURVE",
"458 391 CURVE SMOOTH",
"138 310 OFFCURVE",
"50 194 OFFCURVE",
"50 31 CURVE SMOOTH"
);
}
);
width = 978;
}
);
unicode = 0032;
},
{
glyphname = three;
lastChange = "2019-03-05 13:02:21 +0000";
layers = (
{
layerId = "E5E720F2-D3D9-49CA-89B4-644343A24549";
paths = (
{
closed = 1;
nodes = (
"563 -6 OFFCURVE",
"711 66 OFFCURVE",
"711 209 CURVE SMOOTH",
"711 328 OFFCURVE",
"597 426 OFFCURVE",
"427 414 CURVE",
"562 450 OFFCURVE",
"633 501 OFFCURVE",
"633 575 CURVE SMOOTH",
"633 664 OFFCURVE",
"535 715 OFFCURVE",
"348 715 CURVE SMOOTH",
"175 715 OFFCURVE",
"70 638 OFFCURVE",
"50 544 CURVE",
"132 471 LINE",
"136 471 LINE",
"136 671 OFFCURVE",
"225 696 OFFCURVE",
"348 696 CURVE SMOOTH",
"458 696 OFFCURVE",
"516 648 OFFCURVE",
"516 575 CURVE SMOOTH",
"516 494 OFFCURVE",
"416 425 OFFCURVE",
"224 364 CURVE",
"240 344 LINE",
"299 368 OFFCURVE",
"372 397 OFFCURVE",
"435 397 CURVE",
"530 397 OFFCURVE",
"594 306 OFFCURVE",
"594 199 CURVE SMOOTH",
"594 80 OFFCURVE",
"492 18 OFFCURVE",
"360 18 CURVE SMOOTH",
"205 18 OFFCURVE",
"136 97 OFFCURVE",
"136 203 CURVE",
"132 203 LINE",
"51 124 LINE",
"71 70 OFFCURVE",
"166 -6 OFFCURVE",
"360 -6 CURVE SMOOTH"
);
}
);
width = 761;
},
{
layerId = "02A3FD94-E825-4850-93A1-2C4DF2FA59C6";
paths = (
{
closed = 1;
nodes = (
"755 -12 OFFCURVE",
"933 85 OFFCURVE",
"933 221 CURVE SMOOTH",
"933 290 OFFCURVE",
"916 350 OFFCURVE",
"818 384 CURVE",
"894 423 OFFCURVE",
"904 478 OFFCURVE",
"904 534 CURVE SMOOTH",
"904 652 OFFCURVE",
"742 742 OFFCURVE",
"480 742 CURVE SMOOTH",
"323 742 OFFCURVE",
"191 711 OFFCURVE",
"70 645 CURVE",
"74 498 LINE",
"188 575 OFFCURVE",
"320 601 OFFCURVE",
"486 601 CURVE SMOOTH",
"639 601 OFFCURVE",
"744 557 OFFCURVE",
"744 508 CURVE SMOOTH",
"744 468 OFFCURVE",
"693 443 OFFCURVE",
"590 443 CURVE SMOOTH",
"298 443 LINE",
"298 310 LINE",
"587 310 LINE SMOOTH",
"710 310 OFFCURVE",
"773 281 OFFCURVE",
"773 236 CURVE SMOOTH",
"773 174 OFFCURVE",
"670 129 OFFCURVE",
"489 129 CURVE SMOOTH",
"316 129 OFFCURVE",
"165 158 OFFCURVE",
"55 231 CURVE",
"50 83 LINE",
"163 21 OFFCURVE",
"310 -12 OFFCURVE",
"475 -12 CURVE SMOOTH"
);
}
);
width = 983;
}
);
unicode = 0033;
},
{
glyphname = four;
lastChange = "2019-03-05 13:15:31 +0000";
layers = (
{
layerId = "E5E720F2-D3D9-49CA-89B4-644343A24549";
paths = (
{
closed = 1;
nodes = (
"564 209 LINE",
"101 209 LINE",
"248 264 OFFCURVE",
"461 437 OFFCURVE",
"599 646 CURVE",
"599 650 LINE",
"438 735 LINE",
"438 731 LINE",
"515 508 OFFCURVE",
"315 324 OFFCURVE",
"50 207 CURVE",
"50 186 LINE",
"564 186 LINE",
"564 77 LINE",
"438 5 LINE",
"438 0 LINE",
"775 0 LINE",
"775 5 LINE",
"649 77 LINE",
"649 186 LINE",
"809 186 LINE",
"847 340 LINE",
"843 344 LINE",
"710 209 LINE",
"649 209 LINE",
"649 550 LINE",
"645 550 LINE",
"564 500 LINE"
);
}
);
width = 877;
},
{
layerId = "02A3FD94-E825-4850-93A1-2C4DF2FA59C6";
paths = (
{
closed = 1;
nodes = (
"656 297 LINE",
"286 297 LINE",
"656 552 LINE"
);
},
{
closed = 1;
nodes = (
"978 172 LINE",
"978 297 LINE",
"836 297 LINE",
"836 734 LINE",
"677 734 LINE",
"30 288 LINE",
"30 172 LINE",
"656 172 LINE",
"656 0 LINE",
"836 0 LINE",
"836 172 LINE"
);
}
);
width = 1008;
}
);
unicode = 0034;
},
{
glyphname = five;
lastChange = "2019-03-05 13:02:29 +0000";
layers = (
{
layerId = "E5E720F2-D3D9-49CA-89B4-644343A24549";
paths = (
{
closed = 1;
nodes = (
"577 -10 OFFCURVE",
"729 88 OFFCURVE",
"729 236 CURVE SMOOTH",
"729 370 OFFCURVE",
"606 450 OFFCURVE",
"392 450 CURVE SMOOTH",
"297 450 OFFCURVE",
"179 408 OFFCURVE",
"112 363 CURVE",
"171 595 LINE",
"572 596 LINE",
"586 563 LINE",
"590 563 LINE",
"719 721 LINE",
"715 721 LINE",
"586 681 LINE",
"162 681 LINE",
"78 337 LINE",
"112 329 LINE",
"196 394 OFFCURVE",
"289 426 OFFCURVE",
"392 426 CURVE SMOOTH",
"555 426 OFFCURVE",
"613 351 OFFCURVE",
"613 231 CURVE SMOOTH",
"613 86 OFFCURVE",
"520 14 OFFCURVE",
"355 14 CURVE SMOOTH",
"298 14 OFFCURVE",
"253 23 OFFCURVE",
"220 42 CURVE SMOOTH",
"187 60 OFFCURVE",
"135 97 OFFCURVE",
"135 203 CURVE",
"131 203 LINE",
"50 124 LINE",
"70 70 OFFCURVE",
"212 -10 OFFCURVE",
"355 -10 CURVE SMOOTH"
);
}
);
width = 749;
},
{
layerId = "02A3FD94-E825-4850-93A1-2C4DF2FA59C6";
paths = (
{
closed = 1;
nodes = (
"830 -12 OFFCURVE",
"1014 88 OFFCURVE",
"1014 255 CURVE SMOOTH",
"1014 413 OFFCURVE",
"847 506 OFFCURVE",
"600 506 CURVE SMOOTH",
"470 506 OFFCURVE",
"392 491 OFFCURVE",
"255 435 CURVE",
"283 599 LINE",
"954 599 LINE",
"954 734 LINE",
"156 734 LINE",
"75 387 LINE",
"232 285 LINE",
"363 346 OFFCURVE",
"462 373 OFFCURVE",
"575 373 CURVE SMOOTH",
"744 373 OFFCURVE",
"854 326 OFFCURVE",
"854 256 CURVE SMOOTH",
"854 182 OFFCURVE",
"732 135 OFFCURVE",
"552 135 CURVE SMOOTH",
"348 135 OFFCURVE",
"203 173 OFFCURVE",
"86 250 CURVE",
"78 94 LINE",
"209 22 OFFCURVE",
"355 -12 OFFCURVE",
"539 -12 CURVE SMOOTH"
);
}
);
width = 1054;
}
);
unicode = 0035;
},
{
glyphname = six;
lastChange = "2019-03-05 13:02:33 +0000";
layers = (
{
layerId = "E5E720F2-D3D9-49CA-89B4-644343A24549";
paths = (
{
closed = 1;
nodes = (
"548 -18 OFFCURVE",
"710 109 OFFCURVE",
"710 257 CURVE SMOOTH",
"710 408 OFFCURVE",
"572 470 OFFCURVE",
"409 470 CURVE SMOOTH",
"327 470 OFFCURVE",
"234 439 OFFCURVE",
"174 387 CURVE",
"193 477 OFFCURVE",
"239 546 OFFCURVE",
"314 595 CURVE SMOOTH",
"389 645 OFFCURVE",
"478 677 OFFCURVE",
"606 700 CURVE",
"606 723 LINE",
"446 702 OFFCURVE",
"318 652 OFFCURVE",
"211 573 CURVE SMOOTH",
"103 495 OFFCURVE",
"50 406 OFFCURVE",
"50 253 CURVE SMOOTH",
"50 90 OFFCURVE",
"172 -18 OFFCURVE",
"356 -18 CURVE SMOOTH"
);
},
{
closed = 1;
nodes = (
"226 7 OFFCURVE",
"170 105 OFFCURVE",
"166 253 CURVE SMOOTH",
"164 323 OFFCURVE",
"168 338 OFFCURVE",
"171 353 CURVE",
"242 415 OFFCURVE",
"321 445 OFFCURVE",
"409 445 CURVE SMOOTH",
"533 445 OFFCURVE",
"595 389 OFFCURVE",
"595 254 CURVE SMOOTH",
"595 103 OFFCURVE",
"509 7 OFFCURVE",
"356 7 CURVE SMOOTH"
);
}
);
width = 760;
},
{
layerId = "02A3FD94-E825-4850-93A1-2C4DF2FA59C6";
paths = (
{
closed = 1;
nodes = (
"807 -12 OFFCURVE",
"969 78 OFFCURVE",
"969 251 CURVE SMOOTH",
"969 415 OFFCURVE",
"817 501 OFFCURVE",
"525 501 CURVE SMOOTH",
"383 501 OFFCURVE",
"262 473 OFFCURVE",
"190 438 CURVE",
"221 554 OFFCURVE",
"330 604 OFFCURVE",
"517 604 CURVE SMOOTH",
"636 604 OFFCURVE",
"758 590 OFFCURVE",
"871 544 CURVE",
"880 682 LINE",
"781 721 OFFCURVE",
"659 742 OFFCURVE",
"524 742 CURVE SMOOTH",
"206 742 OFFCURVE",
"40 605 OFFCURVE",
"40 341 CURVE SMOOTH",
"40 109 OFFCURVE",
"196 -12 OFFCURVE",
"496 -12 CURVE SMOOTH"
);
},
{
closed = 1;
nodes = (
"308 128 OFFCURVE",
"199 175 OFFCURVE",
"199 254 CURVE SMOOTH",
"199 331 OFFCURVE",
"308 377 OFFCURVE",
"509 377 CURVE SMOOTH",
"704 377 OFFCURVE",
"809 331 OFFCURVE",
"809 254 CURVE SMOOTH",
"809 175 OFFCURVE",
"704 128 OFFCURVE",
"509 128 CURVE SMOOTH"
);
}
);
width = 1009;
}
);
unicode = 0036;
},
{
glyphname = seven;
lastChange = "2019-03-05 12:58:15 +0000";
layers = (
{
layerId = "E5E720F2-D3D9-49CA-89B4-644343A24549";
paths = (
{
closed = 1;
nodes = (
"423 4 LINE",
"312 74 LINE",
"294 172 OFFCURVE",
"349 279 OFFCURVE",
"412 368 CURVE SMOOTH",
"448 419 OFFCURVE",
"486 465 OFFCURVE",
"526 505 CURVE SMOOTH",
"566 545 OFFCURVE",
"624 609 OFFCURVE",
"700 677 CURVE",
"700 681 LINE",
"192 681 LINE",
"175 721 LINE",
"171 721 LINE",
"20 510 LINE",
"24 510 LINE",
"172 595 LINE",
"592 595 LINE",
"461 480 OFFCURVE",
"378 395 OFFCURVE",
"305 300 CURVE",
"216 162 OFFCURVE",
"193 52 OFFCURVE",
"194 0 CURVE",
"423 0 LINE"
);
}
);
width = 720;
},
{
layerId = "02A3FD94-E825-4850-93A1-2C4DF2FA59C6";
paths = (
{
closed = 1;
nodes = (
"468 0 LINE SMOOTH",
"507 247 OFFCURVE",
"617 403 OFFCURVE",
"889 603 CURVE",
"889 734 LINE",
"30 731 LINE",
"30 591 LINE",
"650 591 LINE",
"444 421 OFFCURVE",
"339 264 OFFCURVE",
"293 0 CURVE SMOOTH"
);
}
);
width = 919;
}
);
unicode = 0037;
},
{
glyphname = eight;
lastChange = "2019-03-05 13:01:07 +0000";
layers = (
{
layerId = "E5E720F2-D3D9-49CA-89B4-644343A24549";
paths = (
{
closed = 1;
nodes = (
"609 -18 OFFCURVE",
"829 46 OFFCURVE",
"830 190 CURVE SMOOTH",
"829 296 OFFCURVE",
"706 347 OFFCURVE",
"574 382 CURVE",
"692 427 OFFCURVE",
"751 484 OFFCURVE",
"751 551 CURVE SMOOTH",
"751 665 OFFCURVE",
"578 716 OFFCURVE",
"429 716 CURVE SMOOTH",
"278 716 OFFCURVE",
"102 654 OFFCURVE",
"102 531 CURVE SMOOTH",
"102 461 OFFCURVE",
"162 407 OFFCURVE",
"284 371 CURVE",
"176 340 OFFCURVE",
"50 275 OFFCURVE",
"50 184 CURVE SMOOTH",
"50 41 OFFCURVE",
"249 -18 OFFCURVE",
"435 -18 CURVE SMOOTH"
);
},
{
closed = 1;
nodes = (
"294 7 OFFCURVE",
"167 66 OFFCURVE",
"167 190 CURVE SMOOTH",
"167 267 OFFCURVE",
"221 329 OFFCURVE",
"311 362 CURVE",
"496 321 LINE SMOOTH",
"610 294 OFFCURVE",
"712 253 OFFCURVE",
"712 164 CURVE SMOOTH",
"712 54 OFFCURVE",
"574 7 OFFCURVE",
"435 7 CURVE SMOOTH"
);
},
{
closed = 1;
nodes = (
"651 480 OFFCURVE",
"624 427 OFFCURVE",
"548 390 CURVE",
"365 433 LINE SMOOTH",
"245 462 OFFCURVE",
"186 506 OFFCURVE",
"186 563 CURVE SMOOTH",
"186 650 OFFCURVE",
"310 691 OFFCURVE",
"427 691 CURVE SMOOTH",
"549 691 OFFCURVE",
"651 656 OFFCURVE",
"651 550 CURVE SMOOTH"
);
}
);
width = 880;
},
{
layerId = "02A3FD94-E825-4850-93A1-2C4DF2FA59C6";
paths = (
{
closed = 1;
nodes = (
"823 -12 OFFCURVE",
"984 66 OFFCURVE",
"984 214 CURVE SMOOTH",
"984 297 OFFCURVE",
"942 349 OFFCURVE",
"815 387 CURVE",
"918 420 OFFCURVE",
"951 468 OFFCURVE",
"951 540 CURVE SMOOTH",
"951 674 OFFCURVE",
"802 742 OFFCURVE",
"512 742 CURVE SMOOTH",
"222 742 OFFCURVE",
"73 674 OFFCURVE",
"73 540 CURVE SMOOTH",
"73 468 OFFCURVE",
"106 420 OFFCURVE",
"209 387 CURVE",
"82 349 OFFCURVE",
"40 297 OFFCURVE",
"40 214 CURVE SMOOTH",
"40 66 OFFCURVE",
"201 -12 OFFCURVE",
"512 -12 CURVE SMOOTH"
);
},
{
closed = 1;
nodes = (
"324 443 OFFCURVE",
"238 478 OFFCURVE",
"238 532 CURVE SMOOTH",
"238 583 OFFCURVE",
"324 627 OFFCURVE",
"512 627 CURVE SMOOTH",
"700 627 OFFCURVE",
"786 583 OFFCURVE",
"786 532 CURVE SMOOTH",
"786 478 OFFCURVE",
"700 443 OFFCURVE",
"512 443 CURVE SMOOTH"
);
},
{
closed = 1;
nodes = (
"303 117 OFFCURVE",
"207 156 OFFCURVE",
"207 221 CURVE SMOOTH",
"207 284 OFFCURVE",
"303 323 OFFCURVE",
"512 323 CURVE SMOOTH",
"721 323 OFFCURVE",
"817 284 OFFCURVE",
"817 221 CURVE SMOOTH",
"817 156 OFFCURVE",
"721 117 OFFCURVE",
"512 117 CURVE SMOOTH"
);
}
);
width = 1024;
}
);
unicode = 0038;
},
{
glyphname = nine;
lastChange = "2019-03-05 13:02:38 +0000";
layers = (
{
layerId = "E5E720F2-D3D9-49CA-89B4-644343A24549";
paths = (
{
closed = 1;
nodes = (
"180 723 OFFCURVE",
"50 619 OFFCURVE",
"50 463 CURVE SMOOTH",
"50 314 OFFCURVE",
"188 242 OFFCURVE",
"351 242 CURVE SMOOTH",
"433 242 OFFCURVE",
"526 273 OFFCURVE",
"586 325 CURVE",
"567 235 OFFCURVE",
"521 166 OFFCURVE",
"446 117 CURVE SMOOTH",
"371 67 OFFCURVE",
"282 35 OFFCURVE",
"154 12 CURVE",
"154 -11 LINE",
"314 10 OFFCURVE",
"442 60 OFFCURVE",
"549 139 CURVE SMOOTH",
"657 217 OFFCURVE",
"710 306 OFFCURVE",
"710 406 CURVE SMOOTH",
"710 596 OFFCURVE",
"576 723 OFFCURVE",
"374 723 CURVE SMOOTH"
);
},
{
closed = 1;
nodes = (
"531 698 OFFCURVE",
"594 615 OFFCURVE",
"594 406 CURVE SMOOTH",
"594 389 OFFCURVE",
"592 374 OFFCURVE",
"589 359 CURVE",
"518 297 OFFCURVE",
"439 267 OFFCURVE",
"351 267 CURVE SMOOTH",
"227 267 OFFCURVE",
"165 333 OFFCURVE",
"165 466 CURVE SMOOTH",
"165 632 OFFCURVE",
"225 698 OFFCURVE",
"374 698 CURVE SMOOTH"
);
}
);
width = 760;
},
{
layerId = "02A3FD94-E825-4850-93A1-2C4DF2FA59C6";
paths = (
{
closed = 1;
nodes = (
"202 742 OFFCURVE",
"40 652 OFFCURVE",
"40 479 CURVE SMOOTH",
"40 315 OFFCURVE",
"192 229 OFFCURVE",
"484 229 CURVE SMOOTH",
"626 229 OFFCURVE",
"747 257 OFFCURVE",
"819 292 CURVE",
"788 176 OFFCURVE",
"679 126 OFFCURVE",
"492 126 CURVE SMOOTH",
"373 126 OFFCURVE",
"251 140 OFFCURVE",
"138 186 CURVE",
"129 48 LINE",
"228 9 OFFCURVE",
"350 -12 OFFCURVE",
"485 -12 CURVE SMOOTH",
"803 -12 OFFCURVE",
"969 125 OFFCURVE",
"969 389 CURVE SMOOTH",
"969 621 OFFCURVE",
"813 742 OFFCURVE",
"513 742 CURVE SMOOTH"
);
},
{
closed = 1;
nodes = (
"701 602 OFFCURVE",
"810 555 OFFCURVE",
"810 476 CURVE SMOOTH",
"810 399 OFFCURVE",
"701 353 OFFCURVE",
"500 353 CURVE SMOOTH",
"305 353 OFFCURVE",
"200 399 OFFCURVE",
"200 476 CURVE SMOOTH",
"200 555 OFFCURVE",
"305 602 OFFCURVE",
"500 602 CURVE SMOOTH"
);
}
);
width = 1009;
}
);
unicode = 0039;
},
{
glyphname = asterisk;
lastChange = "2018-12-10 19:38:51 +0000";
layers = (
{
layerId = "E5E720F2-D3D9-49CA-89B4-644343A24549";
paths = (
{
closed = 1;
nodes = (
"202 400 OFFCURVE",
"209 403 OFFCURVE",
"215 409 CURVE SMOOTH",
"228 422 OFFCURVE",
"223 444 OFFCURVE",
"214 481 CURVE SMOOTH",
"208 505 OFFCURVE",
"204 528 OFFCURVE",
"202 550 CURVE",
"239 525 OFFCURVE",
"285 467 OFFCURVE",
"310 467 CURVE SMOOTH",
"318 467 OFFCURVE",
"325 470 OFFCURVE",
"330 476 CURVE SMOOTH",
"335 482 OFFCURVE",
"338 489 OFFCURVE",
"338 496 CURVE SMOOTH",
"338 536 OFFCURVE",
"276 528 OFFCURVE",
"210 562 CURVE",
"257 586 OFFCURVE",
"290 587 OFFCURVE",
"324 604 CURVE",
"341 613 OFFCURVE",
"343 635 OFFCURVE",
"330 649 CURVE SMOOTH",
"321 660 OFFCURVE",
"306 661 OFFCURVE",
"294 653 CURVE",
"273 642 OFFCURVE",
"236 597 OFFCURVE",
"202 574 CURVE",
"204 596 OFFCURVE",
"223 685 OFFCURVE",
"223 695 CURVE SMOOTH",
"223 711 OFFCURVE",
"210 724 OFFCURVE",
"194 724 CURVE SMOOTH",
"178 724 OFFCURVE",
"165 711 OFFCURVE",
"165 695 CURVE SMOOTH",
"165 685 OFFCURVE",
"184 596 OFFCURVE",
"186 574 CURVE",
"167 587 OFFCURVE",
"104 648 OFFCURVE",
"94 653 CURVE",
"82 661 OFFCURVE",
"67 659 OFFCURVE",
"58 649 CURVE SMOOTH",
"45 634 OFFCURVE",
"48 613 OFFCURVE",
"64 604 CURVE",
"75 599 OFFCURVE",
"157 573 OFFCURVE",
"178 562 CURVE",
"157 551 OFFCURVE",
"136 543 OFFCURVE",
"114 538 CURVE SMOOTH",
"75 528 OFFCURVE",
"50 522 OFFCURVE",
"50 496 CURVE SMOOTH",
"50 489 OFFCURVE",
"53 482 OFFCURVE",
"58 476 CURVE SMOOTH",
"63 470 OFFCURVE",
"70 467 OFFCURVE",
"78 467 CURVE SMOOTH",
"94 467 OFFCURVE",
"115 486 OFFCURVE",
"134 506 CURVE SMOOTH",
"150 523 OFFCURVE",
"167 537 OFFCURVE",
"186 550 CURVE",
"184 528 OFFCURVE",
"180 505 OFFCURVE",
"174 481 CURVE SMOOTH",
"166 447 OFFCURVE",
"159 422 OFFCURVE",
"174 409 CURVE SMOOTH",
"179 403 OFFCURVE",
"186 400 OFFCURVE",
"194 400 CURVE SMOOTH"
);
}
);
width = 388;
},
{
layerId = "02A3FD94-E825-4850-93A1-2C4DF2FA59C6";
paths = (
{
closed = 1;
nodes = (
"798 408 LINE",
"645 502 LINE",
"831 502 LINE",
"831 606 LINE",
"514 606 LINE",
"514 734 LINE",
"368 734 LINE",
"368 606 LINE",
"50 606 LINE",
"50 502 LINE",
"238 502 LINE",
"85 408 LINE",
"175 319 LINE",
"368 471 LINE",
"368 325 LINE",
"514 325 LINE",
"514 472 LINE",
"708 319 LINE"
);
}
);
width = 881;
}
);
unicode = 002A;
},
{
glyphname = backslash;
lastChange = "2018-12-10 19:39:23 +0000";
layers = (
{
layerId = "E5E720F2-D3D9-49CA-89B4-644343A24549";
paths = (
{
closed = 1;
nodes = (
"352 -177 LINE",
"376 -168 LINE",
"74 729 LINE",
"50 720 LINE"
);
}
);
width = 426;
},
{
layerId = "02A3FD94-E825-4850-93A1-2C4DF2FA59C6";
paths = (
{
closed = 1;
nodes = (
"790 -118 LINE",
"172 847 LINE",
"23 847 LINE",
"20 843 LINE",
"638 -122 LINE",
"787 -122 LINE"
);
}
);
width = 810;
}
);
unicode = 005C;
},
{
glyphname = bullet;
lastChange = "2018-12-10 19:43:27 +0000";
layers = (
{
layerId = "E5E720F2-D3D9-49CA-89B4-644343A24549";
paths = (
{
closed = 1;
nodes = (
"184 265 OFFCURVE",
"220 301 OFFCURVE",
"220 350 CURVE SMOOTH",
"220 399 OFFCURVE",
"183 436 OFFCURVE",
"135 436 CURVE SMOOTH",
"87 436 OFFCURVE",
"50 399 OFFCURVE",
"50 350 CURVE SMOOTH",
"50 301 OFFCURVE",
"87 265 OFFCURVE",
"135 265 CURVE SMOOTH"
);
}
);
width = 270;
},
{
layerId = "02A3FD94-E825-4850-93A1-2C4DF2FA59C6";
paths = (
{
closed = 1;
nodes = (
"103 127 OFFCURVE",
"50 169 OFFCURVE",
"50 250 CURVE SMOOTH",
"50 331 OFFCURVE",
"103 373 OFFCURVE",
"184 373 CURVE",
"265 373 OFFCURVE",
"317 331 OFFCURVE",
"317 250 CURVE SMOOTH",
"317 169 OFFCURVE",
"265 127 OFFCURVE",
"184 127 CURVE SMOOTH"
);
}
);
width = 367;
}
);
unicode = 2022;
},
{
glyphname = colon;
lastChange = "2018-12-10 19:46:57 +0000";
layers = (
{
layerId = "E5E720F2-D3D9-49CA-89B4-644343A24549";
paths = (
{
closed = 1;
nodes = (
"131 360 OFFCURVE",
"154 383 OFFCURVE",
"154 412 CURVE SMOOTH",
"154 441 OFFCURVE",
"130 464 OFFCURVE",
"102 464 CURVE SMOOTH",
"73 464 OFFCURVE",
"50 441 OFFCURVE",
"50 412 CURVE SMOOTH",
"50 383 OFFCURVE",
"74 360 OFFCURVE",
"102 360 CURVE SMOOTH"
);
},
{
closed = 1;
nodes = (
"131 -8 OFFCURVE",
"154 15 OFFCURVE",
"154 44 CURVE SMOOTH",
"154 73 OFFCURVE",
"130 96 OFFCURVE",
"102 96 CURVE SMOOTH",
"73 96 OFFCURVE",
"50 73 OFFCURVE",
"50 44 CURVE SMOOTH",
"50 15 OFFCURVE",
"74 -8 OFFCURVE",
"102 -8 CURVE SMOOTH"
);
}
);
width = 204;
},
{
layerId = "02A3FD94-E825-4850-93A1-2C4DF2FA59C6";
paths = (
{
closed = 1;
nodes = (
"87 335 OFFCURVE",
"52 363 OFFCURVE",
"51 417 CURVE SMOOTH",
"50 471 OFFCURVE",
"86 500 OFFCURVE",
"140 500 CURVE",
"194 500 OFFCURVE",
"231 471 OFFCURVE",
"230 417 CURVE SMOOTH",
"229 363 OFFCURVE",
"195 335 OFFCURVE",
"140 335 CURVE SMOOTH"
);
},
{
closed = 1;
nodes = (
"85 0 OFFCURVE",
"50 29 OFFCURVE",
"50 83 CURVE SMOOTH",
"50 137 OFFCURVE",
"85 166 OFFCURVE",
"139 166 CURVE",
"193 166 OFFCURVE",
"229 137 OFFCURVE",
"229 83 CURVE SMOOTH",
"229 29 OFFCURVE",
"193 0 OFFCURVE",
"139 0 CURVE SMOOTH"
);
}
);
width = 280;
}
);
unicode = 003A;
},
{
glyphname = comma;
lastChange = "2019-03-05 14:07:55 +0000";
layers = (
{
layerId = "E5E720F2-D3D9-49CA-89B4-644343A24549";
paths = (
{
closed = 1;
nodes = (
"117 -5 OFFCURVE",
"130 0 OFFCURVE",
"138 11 CURVE",
"138 -38 OFFCURVE",
"112 -73 OFFCURVE",
"59 -94 CURVE",
"65 -111 LINE",
"92 -102 OFFCURVE",
"116 -86 OFFCURVE",
"135 -63 CURVE SMOOTH",
"154 -39 OFFCURVE",
"163 -11 OFFCURVE",
"163 21 CURVE SMOOTH",
"163 45 OFFCURVE",
"157 64 OFFCURVE",
"146 77 CURVE SMOOTH",
"134 90 OFFCURVE",
"120 97 OFFCURVE",
"103 97 CURVE SMOOTH",
"88 97 OFFCURVE",
"75 92 OFFCURVE",
"65 82 CURVE SMOOTH",
"55 71 OFFCURVE",
"50 59 OFFCURVE",
"50 45 CURVE SMOOTH",
"50 31 OFFCURVE",
"55 19 OFFCURVE",
"64 10 CURVE SMOOTH",
"73 0 OFFCURVE",
"85 -5 OFFCURVE",
"100 -5 CURVE SMOOTH"
);
}
);
width = 213;
},
{
layerId = "02A3FD94-E825-4850-93A1-2C4DF2FA59C6";
paths = (
{
closed = 1;
nodes = (
"117 -177 LINE",
"250 32 LINE",
"250 177 LINE",
"51 177 LINE",
"51 0 LINE",
"107 0 LINE",
"50 -177 LINE"
);
}
);
width = 300;
}
);
unicode = 002C;
},
{
glyphname = ellipsis;
lastChange = "2018-12-10 19:52:33 +0000";
layers = (
{
layerId = "E5E720F2-D3D9-49CA-89B4-644343A24549";
paths = (
{
closed = 1;
nodes = (
"131 -8 OFFCURVE",
"154 15 OFFCURVE",
"154 44 CURVE SMOOTH",
"154 73 OFFCURVE",
"131 96 OFFCURVE",
"102 96 CURVE SMOOTH",
"76 96 OFFCURVE",
"50 76 OFFCURVE",
"50 44 CURVE SMOOTH",
"50 15 OFFCURVE",
"74 -8 OFFCURVE",
"102 -8 CURVE SMOOTH"
);
},
{
closed = 1;
nodes = (
"345 -8 OFFCURVE",
"368 15 OFFCURVE",
"368 44 CURVE SMOOTH",
"368 73 OFFCURVE",
"345 96 OFFCURVE",
"316 96 CURVE SMOOTH",
"290 96 OFFCURVE",
"264 76 OFFCURVE",
"264 44 CURVE SMOOTH",
"264 15 OFFCURVE",
"288 -8 OFFCURVE",
"316 -8 CURVE SMOOTH"
);
},
{
closed = 1;
nodes = (
"559 -8 OFFCURVE",
"582 15 OFFCURVE",
"582 44 CURVE SMOOTH",
"582 73 OFFCURVE",
"559 96 OFFCURVE",
"530 96 CURVE SMOOTH",
"504 96 OFFCURVE",
"478 76 OFFCURVE",
"478 44 CURVE SMOOTH",
"478 15 OFFCURVE",
"502 -8 OFFCURVE",
"530 -8 CURVE SMOOTH"
);
}
);
width = 632;
},
{
layerId = "02A3FD94-E825-4850-93A1-2C4DF2FA59C6";
paths = (
{
closed = 1;
nodes = (
"77 -10 OFFCURVE",
"50 11 OFFCURVE",
"50 53 CURVE SMOOTH",
"50 95 OFFCURVE",
"77 116 OFFCURVE",
"118 116 CURVE",
"160 116 OFFCURVE",
"187 95 OFFCURVE",
"187 53 CURVE SMOOTH",
"187 11 OFFCURVE",
"160 -10 OFFCURVE",
"118 -10 CURVE SMOOTH"
);
},
{
closed = 1;
nodes = (
"284 -10 OFFCURVE",
"257 11 OFFCURVE",
"257 53 CURVE SMOOTH",
"257 95 OFFCURVE",
"284 116 OFFCURVE",
"325 116 CURVE",
"367 116 OFFCURVE",
"394 95 OFFCURVE",
"394 53 CURVE SMOOTH",
"394 11 OFFCURVE",
"367 -10 OFFCURVE",
"325 -10 CURVE SMOOTH"
);
},
{
closed = 1;
nodes = (
"491 -10 OFFCURVE",
"464 11 OFFCURVE",
"464 53 CURVE",
"464 95 OFFCURVE",
"491 116 OFFCURVE",
"532 116 CURVE SMOOTH",
"574 116 OFFCURVE",
"601 95 OFFCURVE",
"601 53 CURVE",
"601 11 OFFCURVE",
"574 -10 OFFCURVE",
"532 -10 CURVE"
);
}
);
width = 651;
}
);
unicode = 2026;
},
{
glyphname = exclam;
lastChange = "2018-12-29 16:50:19 +0000";
layers = (
{
layerId = "E5E720F2-D3D9-49CA-89B4-644343A24549";
paths = (
{
closed = 1;
nodes = (
"113 206 LINE",
"140 640 LINE",
"140 672 OFFCURVE",
"127 688 OFFCURVE",
"102 688 CURVE SMOOTH",
"80 688 OFFCURVE",
"65 671 OFFCURVE",
"65 640 CURVE",
"91 206 LINE"
);
},
{
closed = 1;
nodes = (
"128 -8 OFFCURVE",
"154 12 OFFCURVE",
"154 44 CURVE SMOOTH",
"154 73 OFFCURVE",
"131 96 OFFCURVE",
"102 96 CURVE SMOOTH",
"73 96 OFFCURVE",
"50 73 OFFCURVE",
"50 44 CURVE SMOOTH",
"50 15 OFFCURVE",
"74 -8 OFFCURVE",
"102 -8 CURVE SMOOTH"
);
}
);
width = 204;
},
{
layerId = "02A3FD94-E825-4850-93A1-2C4DF2FA59C6";
paths = (
{
closed = 1;
nodes = (
"87 -10 OFFCURVE",
"52 18 OFFCURVE",
"52 72 CURVE SMOOTH",
"52 126 OFFCURVE",
"87 154 OFFCURVE",
"141 154 CURVE",
"195 154 OFFCURVE",
"230 126 OFFCURVE",
"230 72 CURVE SMOOTH",
"230 18 OFFCURVE",
"195 -10 OFFCURVE",
"141 -10 CURVE SMOOTH"
);
},
{
closed = 1;
nodes = (
"72 450 LINE",
"82 234 LINE",
"200 234 LINE",
"210 450 LINE",
"210 734 LINE",
"72 734 LINE"
);
}
);
width = 278;
}
);
unicode = 0021;
},
{
glyphname = exclamdown;
lastChange = "2018-12-10 19:54:44 +0000";
layers = (
{
layerId = "E5E720F2-D3D9-49CA-89B4-644343A24549";
paths = (
{
closed = 1;
nodes = (
"91 284 LINE",
"65 -150 LINE",
"65 -178 OFFCURVE",
"77 -198 OFFCURVE",
"102 -198 CURVE SMOOTH",
"127 -198 OFFCURVE",
"140 -182 OFFCURVE",
"140 -150 CURVE",
"113 284 LINE"
);
},
{
closed = 1;
nodes = (
"73 498 OFFCURVE",
"50 475 OFFCURVE",
"50 446 CURVE SMOOTH",
"50 417 OFFCURVE",
"74 394 OFFCURVE",
"102 394 CURVE SMOOTH",
"131 394 OFFCURVE",
"154 417 OFFCURVE",
"154 446 CURVE SMOOTH",
"154 475 OFFCURVE",
"130 498 OFFCURVE",
"102 498 CURVE SMOOTH"
);
}
);
width = 204;
},
{
layerId = "02A3FD94-E825-4850-93A1-2C4DF2FA59C6";
paths = (
{
closed = 1;
nodes = (
"193 544 OFFCURVE",
"228 516 OFFCURVE",
"228 462 CURVE SMOOTH",
"228 408 OFFCURVE",
"193 380 OFFCURVE",
"139 380 CURVE",
"85 380 OFFCURVE",
"50 408 OFFCURVE",
"50 462 CURVE SMOOTH",
"50 516 OFFCURVE",
"85 544 OFFCURVE",
"139 544 CURVE SMOOTH"
);
},
{
closed = 1;
nodes = (
"208 -200 LINE",
"208 84 LINE",
"198 300 LINE",
"80 300 LINE",
"70 84 LINE",
"70 -200 LINE"
);
}
);
width = 278;
}
);
unicode = 00A1;
},
{
glyphname = numbersign;
lastChange = "2018-12-10 19:55:23 +0000";
layers = (
{
layerId = "E5E720F2-D3D9-49CA-89B4-644343A24549";
paths = (
{
closed = 1;
nodes = (
"321 6 LINE",
"379 206 LINE",
"505 206 LINE",
"505 231 LINE",
"386 231 LINE",
"448 447 LINE",
"576 447 LINE",
"576 472 LINE",
"455 472 LINE",
"511 666 LINE",
"487 672 LINE",
"429 472 LINE",
"273 472 LINE",
"329 666 LINE",
"305 672 LINE",
"247 472 LINE",
"121 472 LINE",
"121 447 LINE",
"240 447 LINE",
"178 231 LINE",
"50 231 LINE",
"50 206 LINE",
"171 206 LINE",
"115 12 LINE",
"139 6 LINE",
"197 206 LINE",
"353 206 LINE",
"297 12 LINE"
);
},
{
closed = 1;
nodes = (
"360 231 LINE",
"204 231 LINE",
"266 447 LINE",
"422 447 LINE"
);
}
);
width = 626;
},
{
layerId = "02A3FD94-E825-4850-93A1-2C4DF2FA59C6";
paths = (
{
closed = 1;
nodes = (
"642 290 LINE",
"434 290 LINE",
"470 433 LINE",
"678 433 LINE"
);
},
{
closed = 1;
nodes = (
"570 0 LINE",
"726 0 LINE",
"766 162 LINE",
"1028 162 LINE",
"1028 290 LINE",
"798 290 LINE",
"834 433 LINE",
"1086 433 LINE",
"1086 561 LINE",
"866 561 LINE",
"906 722 LINE",
"750 722 LINE",
"710 561 LINE",
"502 561 LINE",
"542 722 LINE",
"386 722 LINE",
"346 561 LINE",
"88 561 LINE",
"88 433 LINE",
"314 433 LINE",
"278 290 LINE",
"30 290 LINE",
"30 162 LINE",
"246 162 LINE",
"206 0 LINE",
"362 0 LINE",
"402 162 LINE",
"610 162 LINE"
);
}
);
width = 1116;
}
);
unicode = 0023;
},
{
glyphname = period;
lastChange = "2019-03-05 14:05:49 +0000";
layers = (
{
layerId = "E5E720F2-D3D9-49CA-89B4-644343A24549";
paths = (
{
closed = 1;
nodes = (
"131 -8 OFFCURVE",
"154 15 OFFCURVE",
"154 44 CURVE SMOOTH",
"154 73 OFFCURVE",
"130 96 OFFCURVE",
"102 96 CURVE SMOOTH",
"73 96 OFFCURVE",
"50 73 OFFCURVE",
"50 44 CURVE SMOOTH",
"50 15 OFFCURVE",
"74 -8 OFFCURVE",
"102 -8 CURVE SMOOTH"
);
}
);
width = 204;
},
{
layerId = "02A3FD94-E825-4850-93A1-2C4DF2FA59C6";
paths = (
{
closed = 1;
nodes = (
"85 -10 OFFCURVE",
"50 18 OFFCURVE",
"50 72 CURVE SMOOTH",
"50 126 OFFCURVE",
"85 154 OFFCURVE",
"139 154 CURVE",
"193 154 OFFCURVE",
"228 126 OFFCURVE",
"228 72 CURVE SMOOTH",
"228 18 OFFCURVE",
"193 -10 OFFCURVE",
"139 -10 CURVE SMOOTH"
);
}
);
width = 278;
}
);
unicode = 002E;
},
{
glyphname = question;
lastChange = "2018-12-29 16:50:44 +0000";
layers = (
{
layerId = "E5E720F2-D3D9-49CA-89B4-644343A24549";
paths = (
{
closed = 1;
nodes = (
"269 344 OFFCURVE",
"392 350 OFFCURVE",
"392 510 CURVE",
"392 611 OFFCURVE",
"334 676 OFFCURVE",
"255 676 CURVE",
"162 676 OFFCURVE",
"94 611 OFFCURVE",
"94 475 CURVE",
"50 519 LINE",
"50 602 OFFCURVE",
"128 689 OFFCURVE",
"255 689 CURVE",
"389 689 OFFCURVE",
"467 611 OFFCURVE",
"467 510 CURVE",
"467 368 OFFCURVE",
"281 317 OFFCURVE",
"249 317 CURVE",
"242 206 LINE",
"225 206 LINE",
"224 344 LINE"
);
},
{
closed = 1;
nodes = (
"260 -8 OFFCURVE",
"286 12 OFFCURVE",
"286 44 CURVE SMOOTH",
"286 73 OFFCURVE",
"263 96 OFFCURVE",
"234 96 CURVE SMOOTH",
"205 96 OFFCURVE",
"182 73 OFFCURVE",
"182 44 CURVE SMOOTH",
"182 15 OFFCURVE",
"206 -8 OFFCURVE",
"234 -8 CURVE SMOOTH"
);
}
);
width = 517;
},
{
layerId = "02A3FD94-E825-4850-93A1-2C4DF2FA59C6";
paths = (
{
closed = 1;
nodes = (
"635 252 OFFCURVE",
"544 217 OFFCURVE",
"393 209 CURVE SMOOTH",
"193 199 OFFCURVE",
"78 269 OFFCURVE",
"78 370 CURVE SMOOTH",
"78 452 OFFCURVE",
"143 512 OFFCURVE",
"313 523 CURVE SMOOTH",
"505 535 OFFCURVE",
"551 523 OFFCURVE",
"551 572 CURVE SMOOTH",
"551 613 OFFCURVE",
"468 622 OFFCURVE",
"375 622 CURVE SMOOTH",
"267 622 OFFCURVE",
"171 592 OFFCURVE",
"103 544 CURVE",
"51 647 LINE",
"129 703 OFFCURVE",
"258 733 OFFCURVE",
"382 734 CURVE SMOOTH",
"554 735 OFFCURVE",
"692 682 OFFCURVE",
"692 562 CURVE SMOOTH",
"692 436 OFFCURVE",
"586 420 OFFCURVE",
"465 411 CURVE SMOOTH",
"310 400 OFFCURVE",
"212 408 OFFCURVE",
"212 359 CURVE SMOOTH",
"212 310 OFFCURVE",
"313 312 OFFCURVE",
"389 317 CURVE SMOOTH",
"515 326 OFFCURVE",
"595 353 OFFCURVE",
"635 378 CURVE",
"682 279 LINE"
);
},
{
closed = 1;
nodes = (
"317 -10 OFFCURVE",
"282 18 OFFCURVE",
"282 72 CURVE SMOOTH",
"282 126 OFFCURVE",
"317 154 OFFCURVE",
"371 154 CURVE",
"425 154 OFFCURVE",
"460 126 OFFCURVE",
"460 72 CURVE SMOOTH",
"460 18 OFFCURVE",
"425 -10 OFFCURVE",
"371 -10 CURVE SMOOTH"
);
}
);
width = 741;
}
);
unicode = 003F;
},
{
glyphname = questiondown;
lastChange = "2018-12-29 16:53:05 +0000";
layers = (
{
layerId = "E5E720F2-D3D9-49CA-89B4-644343A24549";
paths = (
{
closed = 1;
nodes = (
"248 146 OFFCURVE",
"125 140 OFFCURVE",
"125 -20 CURVE",
"125 -121 OFFCURVE",
"183 -186 OFFCURVE",
"262 -186 CURVE",
"355 -186 OFFCURVE",
"423 -121 OFFCURVE",
"423 15 CURVE",
"467 -29 LINE",
"467 -112 OFFCURVE",
"389 -199 OFFCURVE",
"262 -199 CURVE",
"128 -199 OFFCURVE",
"50 -121 OFFCURVE",
"50 -20 CURVE",
"50 122 OFFCURVE",
"236 173 OFFCURVE",
"268 173 CURVE",
"275 284 LINE",
"292 284 LINE",
"293 146 LINE"
);
},
{
closed = 1;
nodes = (
"257 498 OFFCURVE",
"231 478 OFFCURVE",
"231 446 CURVE SMOOTH",
"231 417 OFFCURVE",
"254 394 OFFCURVE",
"283 394 CURVE SMOOTH",
"312 394 OFFCURVE",
"335 417 OFFCURVE",
"335 446 CURVE SMOOTH",
"335 475 OFFCURVE",
"311 498 OFFCURVE",
"283 498 CURVE SMOOTH"
);
}
);
width = 517;
},
{
layerId = "02A3FD94-E825-4850-93A1-2C4DF2FA59C6";
paths = (
{
closed = 1;
nodes = (
"107 283 OFFCURVE",
"198 318 OFFCURVE",
"349 326 CURVE SMOOTH",
"549 337 OFFCURVE",
"664 266 OFFCURVE",
"664 165 CURVE SMOOTH",
"664 83 OFFCURVE",
"599 23 OFFCURVE",
"429 12 CURVE SMOOTH",
"237 0 OFFCURVE",
"191 12 OFFCURVE",
"191 -37 CURVE SMOOTH",
"191 -78 OFFCURVE",
"274 -87 OFFCURVE",
"367 -87 CURVE SMOOTH",
"475 -87 OFFCURVE",
"571 -57 OFFCURVE",
"639 -9 CURVE",
"691 -112 LINE",
"613 -168 OFFCURVE",
"484 -198 OFFCURVE",
"360 -199 CURVE SMOOTH",
"188 -200 OFFCURVE",
"50 -147 OFFCURVE",
"50 -27 CURVE SMOOTH",
"50 99 OFFCURVE",
"156 115 OFFCURVE",
"277 124 CURVE SMOOTH",
"432 136 OFFCURVE",
"530 127 OFFCURVE",
"530 176 CURVE SMOOTH",
"530 225 OFFCURVE",
"429 223 OFFCURVE",
"353 218 CURVE SMOOTH",
"227 210 OFFCURVE",
"147 182 OFFCURVE",
"107 157 CURVE",
"60 256 LINE"
);
},
{
closed = 1;
nodes = (
"425 545 OFFCURVE",
"460 517 OFFCURVE",
"460 463 CURVE SMOOTH",
"460 409 OFFCURVE",
"425 381 OFFCURVE",
"371 381 CURVE",
"317 381 OFFCURVE",
"282 409 OFFCURVE",
"282 463 CURVE SMOOTH",
"282 517 OFFCURVE",
"317 545 OFFCURVE",
"371 545 CURVE SMOOTH"
);
}
);
width = 741;
}
);
unicode = 00BF;
},
{
glyphname = quotedbl;
lastChange = "2018-12-10 20:13:23 +0000";
layers = (
{
layerId = "E5E720F2-D3D9-49CA-89B4-644343A24549";
paths = (
{
closed = 1;
nodes = (
"99 463 LINE",
"100 514 OFFCURVE",
"106 557 OFFCURVE",
"116 591 CURVE SMOOTH",
"125 624 OFFCURVE",
"130 644 OFFCURVE",
"130 649 CURVE SMOOTH",
"130 662 OFFCURVE",
"126 673 OFFCURVE",
"119 680 CURVE SMOOTH",
"111 687 OFFCURVE",
"101 691 OFFCURVE",
"89 691 CURVE SMOOTH",
"78 691 OFFCURVE",
"68 687 OFFCURVE",
"61 680 CURVE SMOOTH",
"54 673 OFFCURVE",
"50 662 OFFCURVE",
"50 649 CURVE SMOOTH",
"50 644 OFFCURVE",
"55 624 OFFCURVE",
"65 591 CURVE SMOOTH",
"74 557 OFFCURVE",
"80 514 OFFCURVE",
"81 463 CURVE"
);
},
{
closed = 1;
nodes = (
"233 463 LINE",
"234 514 OFFCURVE",
"240 557 OFFCURVE",
"250 591 CURVE SMOOTH",
"259 624 OFFCURVE",
"264 644 OFFCURVE",
"264 649 CURVE SMOOTH",
"264 662 OFFCURVE",
"260 673 OFFCURVE",
"253 680 CURVE SMOOTH",
"245 687 OFFCURVE",
"235 691 OFFCURVE",
"223 691 CURVE SMOOTH",
"212 691 OFFCURVE",
"202 687 OFFCURVE",
"195 680 CURVE SMOOTH",
"188 673 OFFCURVE",
"184 662 OFFCURVE",
"184 649 CURVE SMOOTH",
"184 644 OFFCURVE",
"189 624 OFFCURVE",
"199 591 CURVE SMOOTH",
"208 557 OFFCURVE",
"214 514 OFFCURVE",
"215 463 CURVE"
);
}
);
width = 314;
},
{
layerId = "02A3FD94-E825-4850-93A1-2C4DF2FA59C6";
paths = (
{
closed = 1;
nodes = (
"293 456 LINE",
"440 456 LINE",
"447 597 LINE",
"447 722 LINE",
"286 722 LINE",
"286 597 LINE"
);
},
{
closed = 1;
nodes = (
"57 456 LINE",
"204 456 LINE",
"211 597 LINE",
"211 722 LINE",
"50 722 LINE",
"50 597 LINE"
);
}
);
width = 497;
}
);
unicode = 0022;
},
{
glyphname = quotesingle;
lastChange = "2018-12-10 20:20:18 +0000";
layers = (
{
layerId = "E5E720F2-D3D9-49CA-89B4-644343A24549";
paths = (
{
closed = 1;
nodes = (
"99 463 LINE",
"100 514 OFFCURVE",
"106 557 OFFCURVE",
"116 591 CURVE SMOOTH",
"125 624 OFFCURVE",
"130 644 OFFCURVE",
"130 649 CURVE SMOOTH",
"130 662 OFFCURVE",
"126 673 OFFCURVE",
"119 680 CURVE SMOOTH",
"111 687 OFFCURVE",
"101 691 OFFCURVE",
"89 691 CURVE SMOOTH",
"78 691 OFFCURVE",
"68 687 OFFCURVE",
"61 680 CURVE SMOOTH",
"54 673 OFFCURVE",
"50 662 OFFCURVE",
"50 649 CURVE SMOOTH",
"50 644 OFFCURVE",
"55 624 OFFCURVE",
"65 591 CURVE SMOOTH",
"74 557 OFFCURVE",
"80 514 OFFCURVE",
"81 463 CURVE"
);
}
);
width = 180;
},
{
layerId = "02A3FD94-E825-4850-93A1-2C4DF2FA59C6";
paths = (
{
closed = 1;
nodes = (
"57 456 LINE",
"204 456 LINE",
"211 597 LINE",
"211 722 LINE",
"50 722 LINE",
"50 597 LINE"
);
}
);
width = 261;
}
);
unicode = 0027;
},
{
glyphname = semicolon;
lastChange = "2018-12-10 20:18:34 +0000";
layers = (
{
layerId = "E5E720F2-D3D9-49CA-89B4-644343A24549";
paths = (
{
closed = 1;
nodes = (
"116 360 OFFCURVE",
"128 365 OFFCURVE",
"139 375 CURVE SMOOTH",
"149 385 OFFCURVE",
"154 397 OFFCURVE",
"154 412 CURVE SMOOTH",
"154 427 OFFCURVE",
"149 439 OFFCURVE",
"139 449 CURVE SMOOTH",
"128 459 OFFCURVE",
"116 464 OFFCURVE",
"102 464 CURVE SMOOTH",
"88 464 OFFCURVE",
"76 459 OFFCURVE",
"66 449 CURVE SMOOTH",
"55 439 OFFCURVE",
"50 427 OFFCURVE",
"50 412 CURVE SMOOTH",
"50 397 OFFCURVE",
"55 385 OFFCURVE",
"66 375 CURVE SMOOTH",
"76 365 OFFCURVE",
"88 360 OFFCURVE",
"102 360 CURVE SMOOTH"
);
},
{
closed = 1;
nodes = (
"117 -5 OFFCURVE",
"130 0 OFFCURVE",
"138 11 CURVE",
"138 -38 OFFCURVE",
"112 -73 OFFCURVE",
"59 -94 CURVE",
"65 -111 LINE",
"92 -102 OFFCURVE",
"116 -86 OFFCURVE",
"135 -63 CURVE SMOOTH",
"154 -39 OFFCURVE",
"163 -11 OFFCURVE",
"163 21 CURVE SMOOTH",
"163 45 OFFCURVE",
"157 64 OFFCURVE",
"146 77 CURVE SMOOTH",
"134 90 OFFCURVE",
"120 97 OFFCURVE",
"103 97 CURVE SMOOTH",
"88 97 OFFCURVE",
"75 92 OFFCURVE",
"65 82 CURVE SMOOTH",
"55 71 OFFCURVE",
"50 59 OFFCURVE",
"50 45 CURVE SMOOTH",
"50 31 OFFCURVE",
"55 19 OFFCURVE",
"64 10 CURVE SMOOTH",
"73 0 OFFCURVE",
"85 -5 OFFCURVE",
"100 -5 CURVE SMOOTH"
);
}
);
width = 213;
},
{
layerId = "02A3FD94-E825-4850-93A1-2C4DF2FA59C6";
paths = (
{
closed = 1;
nodes = (
"117 -177 LINE",
"250 32 LINE",
"250 177 LINE",
"51 177 LINE",
"51 0 LINE",
"107 0 LINE",
"50 -177 LINE"
);
},
{
closed = 1;
nodes = (
"96 418 OFFCURVE",
"61 446 OFFCURVE",
"61 500 CURVE SMOOTH",
"61 554 OFFCURVE",
"96 582 OFFCURVE",
"150 582 CURVE",
"204 582 OFFCURVE",
"239 554 OFFCURVE",
"239 500 CURVE SMOOTH",
"239 446 OFFCURVE",
"204 418 OFFCURVE",
"150 418 CURVE SMOOTH"
);
}
);
width = 300;
}
);
unicode = 003B;
},
{
glyphname = slash;
lastChange = "2018-12-10 19:35:45 +0000";
layers = (
{
layerId = "E5E720F2-D3D9-49CA-89B4-644343A24549";
paths = (
{
closed = 1;
nodes = (
"74 -177 LINE",
"376 720 LINE",
"352 729 LINE",
"50 -168 LINE"
);
}
);
width = 426;
},
{
layerId = "02A3FD94-E825-4850-93A1-2C4DF2FA59C6";
paths = (
{
closed = 1;
nodes = (
"53 -122 LINE",
"202 -122 LINE",
"820 843 LINE",
"817 847 LINE",
"668 847 LINE",
"50 -118 LINE"
);
}
);
width = 870;
}
);
unicode = 002F;
},
{
glyphname = underscore;
lastChange = "2018-12-10 20:12:27 +0000";
layers = (
{
layerId = "E5E720F2-D3D9-49CA-89B4-644343A24549";
paths = (
{
closed = 1;
nodes = (
"472 -96 LINE",
"472 -71 LINE",
"50 -71 LINE",
"50 -96 LINE"
);
}
);
width = 522;
},
{
layerId = "02A3FD94-E825-4850-93A1-2C4DF2FA59C6";
paths = (
{
closed = 1;
nodes = (
"50 -119 LINE",
"1030 -119 LINE",
"1030 0 LINE",
"50 0 LINE"
);
}
);
width = 1080;
}
);
unicode = 005F;
},
{
glyphname = braceleft;
lastChange = "2018-12-10 20:17:36 +0000";
layers = (
{
layerId = "E5E720F2-D3D9-49CA-89B4-644343A24549";
paths = (
{
closed = 1;
nodes = (
"180 -45 OFFCURVE",
"182 -13 OFFCURVE",
"185 40 CURVE SMOOTH",
"188 92 OFFCURVE",
"190 126 OFFCURVE",
"190 141 CURVE SMOOTH",
"190 220 OFFCURVE",
"156 264 OFFCURVE",
"88 275 CURVE",
"156 286 OFFCURVE",
"190 330 OFFCURVE",
"190 409 CURVE SMOOTH",
"190 424 OFFCURVE",
"188 458 OFFCURVE",
"185 511 CURVE SMOOTH",
"182 563 OFFCURVE",
"180 595 OFFCURVE",
"180 608 CURVE SMOOTH",
"180 637 OFFCURVE",
"187 658 OFFCURVE",
"202 671 CURVE SMOOTH",
"216 684 OFFCURVE",
"244 695 OFFCURVE",
"285 705 CURVE",
"280 724 LINE",
"222 710 OFFCURVE",
"181 693 OFFCURVE",
"158 672 CURVE SMOOTH",
"134 651 OFFCURVE",
"122 616 OFFCURVE",
"122 567 CURVE SMOOTH",
"122 545 OFFCURVE",
"124 514 OFFCURVE",
"127 473 CURVE SMOOTH",
"130 432 OFFCURVE",
"132 406 OFFCURVE",
"132 395 CURVE SMOOTH",
"132 360 OFFCURVE",
"126 333 OFFCURVE",
"115 316 CURVE SMOOTH",
"104 299 OFFCURVE",
"82 289 OFFCURVE",
"50 288 CURVE",
"50 262 LINE",
"82 261 OFFCURVE",
"104 251 OFFCURVE",
"115 234 CURVE SMOOTH",
"126 217 OFFCURVE",
"132 190 OFFCURVE",
"132 155 CURVE SMOOTH",
"132 144 OFFCURVE",
"130 119 OFFCURVE",
"127 78 CURVE SMOOTH",
"124 37 OFFCURVE",
"122 5 OFFCURVE",
"122 -17 CURVE SMOOTH",
"122 -66 OFFCURVE",
"134 -101 OFFCURVE",
"158 -122 CURVE SMOOTH",
"181 -143 OFFCURVE",
"222 -160 OFFCURVE",
"280 -174 CURVE",
"285 -155 LINE",
"244 -145 OFFCURVE",
"216 -134 OFFCURVE",
"202 -121 CURVE SMOOTH",
"187 -108 OFFCURVE",
"180 -87 OFFCURVE",
"180 -58 CURVE SMOOTH"
);
}
);
width = 335;
},
{
layerId = "02A3FD94-E825-4850-93A1-2C4DF2FA59C6";
paths = (
{
closed = 1;
nodes = (
"521 -210 LINE",
"521 -90 LINE",
"374 -90 LINE SMOOTH",
"356 -90 OFFCURVE",
"347 -79 OFFCURVE",
"347 -58 CURVE SMOOTH",
"347 104 LINE SMOOTH",
"347 217 OFFCURVE",
"315 284 OFFCURVE",
"220 316 CURVE",
"315 348 OFFCURVE",
"347 415 OFFCURVE",
"347 528 CURVE SMOOTH",
"347 690 LINE SMOOTH",
"347 711 OFFCURVE",
"356 722 OFFCURVE",
"374 722 CURVE SMOOTH",
"521 722 LINE",
"521 842 LINE",
"348 842 LINE SMOOTH",
"249 842 OFFCURVE",
"188 782 OFFCURVE",
"188 687 CURVE SMOOTH",
"188 505 LINE SMOOTH",
"188 434 OFFCURVE",
"150 382 OFFCURVE",
"75 382 CURVE SMOOTH",
"50 382 LINE",
"50 250 LINE",
"75 250 LINE SMOOTH",
"150 250 OFFCURVE",
"188 198 OFFCURVE",
"188 127 CURVE SMOOTH",
"188 -55 LINE SMOOTH",
"188 -150 OFFCURVE",
"249 -210 OFFCURVE",
"348 -210 CURVE SMOOTH"
);
}
);
width = 541;
}
);
unicode = 007B;
},
{
glyphname = braceright;
lastChange = "2018-12-10 20:17:52 +0000";
layers = (
{
layerId = "E5E720F2-D3D9-49CA-89B4-644343A24549";
paths = (
{
closed = 1;
nodes = (
"213 5 OFFCURVE",
"211 37 OFFCURVE",
"208 78 CURVE SMOOTH",
"205 119 OFFCURVE",
"203 144 OFFCURVE",
"203 155 CURVE SMOOTH",
"203 190 OFFCURVE",
"209 217 OFFCURVE",
"220 234 CURVE SMOOTH",
"231 251 OFFCURVE",
"253 261 OFFCURVE",
"285 262 CURVE",
"285 288 LINE",
"253 289 OFFCURVE",
"231 299 OFFCURVE",
"220 316 CURVE SMOOTH",
"209 333 OFFCURVE",
"203 360 OFFCURVE",
"203 395 CURVE SMOOTH",
"203 406 OFFCURVE",
"205 432 OFFCURVE",
"208 473 CURVE SMOOTH",
"211 514 OFFCURVE",
"213 545 OFFCURVE",
"213 567 CURVE SMOOTH",
"213 616 OFFCURVE",
"201 651 OFFCURVE",
"178 672 CURVE SMOOTH",
"154 693 OFFCURVE",
"113 710 OFFCURVE",
"55 724 CURVE",
"50 705 LINE",
"91 695 OFFCURVE",
"119 684 OFFCURVE",
"134 671 CURVE SMOOTH",
"148 658 OFFCURVE",
"155 637 OFFCURVE",
"155 608 CURVE SMOOTH",
"155 595 OFFCURVE",
"153 563 OFFCURVE",
"150 511 CURVE SMOOTH",
"147 458 OFFCURVE",
"145 424 OFFCURVE",
"145 409 CURVE SMOOTH",
"145 330 OFFCURVE",
"179 286 OFFCURVE",
"247 275 CURVE",
"179 264 OFFCURVE",
"145 220 OFFCURVE",
"145 141 CURVE SMOOTH",
"145 126 OFFCURVE",
"147 92 OFFCURVE",
"150 40 CURVE SMOOTH",
"153 -13 OFFCURVE",
"155 -45 OFFCURVE",
"155 -58 CURVE SMOOTH",
"155 -87 OFFCURVE",
"148 -108 OFFCURVE",
"134 -121 CURVE SMOOTH",
"119 -134 OFFCURVE",
"91 -145 OFFCURVE",
"50 -155 CURVE",
"55 -174 LINE",
"113 -160 OFFCURVE",
"154 -143 OFFCURVE",
"178 -122 CURVE SMOOTH",
"201 -101 OFFCURVE",
"213 -66 OFFCURVE",
"213 -17 CURVE SMOOTH"
);
}
);
width = 335;
},
{
layerId = "02A3FD94-E825-4850-93A1-2C4DF2FA59C6";
paths = (
{
closed = 1;
nodes = (
"353 127 LINE SMOOTH",
"353 198 OFFCURVE",
"391 250 OFFCURVE",
"466 250 CURVE SMOOTH",
"491 250 LINE",
"491 382 LINE",
"466 382 LINE SMOOTH",
"391 382 OFFCURVE",
"353 434 OFFCURVE",
"353 505 CURVE SMOOTH",
"353 687 LINE SMOOTH",
"353 782 OFFCURVE",
"292 842 OFFCURVE",
"193 842 CURVE SMOOTH",
"20 842 LINE",
"20 722 LINE",
"167 722 LINE SMOOTH",
"185 722 OFFCURVE",
"194 711 OFFCURVE",
"194 690 CURVE SMOOTH",
"194 528 LINE SMOOTH",
"194 415 OFFCURVE",
"226 348 OFFCURVE",
"321 316 CURVE",
"226 284 OFFCURVE",
"194 217 OFFCURVE",
"194 104 CURVE SMOOTH",
"194 -58 LINE SMOOTH",
"194 -79 OFFCURVE",
"185 -90 OFFCURVE",
"167 -90 CURVE SMOOTH",
"20 -90 LINE",
"20 -210 LINE",
"193 -210 LINE SMOOTH",
"292 -210 OFFCURVE",
"353 -150 OFFCURVE",
"353 -55 CURVE SMOOTH"
);
}
);
width = 541;
}
);
unicode = 007D;
},
{
glyphname = bracketleft;
lastChange = "2018-12-10 20:16:05 +0000";
layers = (
{
layerId = "E5E720F2-D3D9-49CA-89B4-644343A24549";
paths = (
{
closed = 1;
nodes = (
"215 -151 LINE",
"195 -151 OFFCURVE",
"148 -150 OFFCURVE",
"74 -148 CURVE",
"102 -17 OFFCURVE",
"116 125 OFFCURVE",
"116 276 CURVE SMOOTH",
"116 428 OFFCURVE",
"102 570 OFFCURVE",
"74 701 CURVE",
"148 703 OFFCURVE",
"195 704 OFFCURVE",
"215 704 CURVE",
"215 724 LINE",
"145 724 OFFCURVE",
"90 725 OFFCURVE",
"50 727 CURVE",
"50 -174 LINE",
"90 -172 OFFCURVE",
"145 -171 OFFCURVE",
"215 -171 CURVE"
);
}
);
width = 265;
},
{
layerId = "02A3FD94-E825-4850-93A1-2C4DF2FA59C6";
paths = (
{
closed = 1;
nodes = (
"50 -210 LINE",
"383 -210 LINE",
"383 -90 LINE",
"209 -90 LINE",
"209 722 LINE",
"383 722 LINE",
"383 842 LINE",
"50 842 LINE"
);
}
);
width = 403;
}
);
unicode = 005B;
},
{
glyphname = bracketright;
lastChange = "2018-12-10 20:16:21 +0000";
layers = (
{
layerId = "E5E720F2-D3D9-49CA-89B4-644343A24549";
paths = (
{
closed = 1;
nodes = (
"50 -171 LINE",
"120 -171 OFFCURVE",
"175 -172 OFFCURVE",
"215 -174 CURVE",
"215 727 LINE",
"175 725 OFFCURVE",
"120 724 OFFCURVE",
"50 724 CURVE",
"50 704 LINE",
"70 704 OFFCURVE",
"117 703 OFFCURVE",
"191 701 CURVE",
"163 570 OFFCURVE",
"149 428 OFFCURVE",
"149 277 CURVE SMOOTH",
"149 125 OFFCURVE",
"163 -17 OFFCURVE",
"191 -148 CURVE",
"117 -150 OFFCURVE",
"70 -151 OFFCURVE",
"50 -151 CURVE"
);
}
);
width = 265;
},
{
layerId = "02A3FD94-E825-4850-93A1-2C4DF2FA59C6";
paths = (
{
closed = 1;
nodes = (
"20 842 LINE",
"20 722 LINE",
"194 722 LINE",
"194 -90 LINE",
"20 -90 LINE",
"20 -210 LINE",
"353 -210 LINE",
"353 842 LINE"
);
}
);
width = 403;
}
);
unicode = 005D;
},
{
glyphname = parenleft;
lastChange = "2018-12-10 20:16:53 +0000";
layers = (
{
layerId = "E5E720F2-D3D9-49CA-89B4-644343A24549";
paths = (
{
closed = 1;
nodes = (
"117 489 OFFCURVE",
"171 634 OFFCURVE",
"278 713 CURVE",
"267 728 LINE",
"202 683 OFFCURVE",
"150 618 OFFCURVE",
"110 534 CURVE SMOOTH",
"70 449 OFFCURVE",
"50 363 OFFCURVE",
"50 276 CURVE SMOOTH",
"50 189 OFFCURVE",
"70 103 OFFCURVE",
"110 19 CURVE SMOOTH",
"150 -66 OFFCURVE",
"202 -131 OFFCURVE",
"267 -176 CURVE",
"278 -161 LINE",
"171 -82 OFFCURVE",
"117 63 OFFCURVE",
"117 276 CURVE SMOOTH"
);
}
);
width = 328;
},
{
layerId = "02A3FD94-E825-4850-93A1-2C4DF2FA59C6";
paths = (
{
closed = 1;
nodes = (
"471 -210 LINE",
"473 -205 LINE",
"329 -97 OFFCURVE",
"212 109 OFFCURVE",
"212 317 CURVE SMOOTH",
"212 523 OFFCURVE",
"326 729 OFFCURVE",
"470 837 CURVE",
"468 842 LINE",
"283 842 LINE",
"144 718 OFFCURVE",
"50 507 OFFCURVE",
"50 317 CURVE SMOOTH",
"50 125 OFFCURVE",
"144 -86 OFFCURVE",
"283 -210 CURVE"
);
}
);
width = 493;
}
);
unicode = 0028;
},
{
glyphname = parenright;
lastChange = "2018-12-10 20:17:12 +0000";
layers = (
{
layerId = "E5E720F2-D3D9-49CA-89B4-644343A24549";
paths = (
{
closed = 1;
nodes = (
"211 63 OFFCURVE",
"157 -82 OFFCURVE",
"50 -161 CURVE",
"61 -176 LINE",
"126 -131 OFFCURVE",
"178 -66 OFFCURVE",
"218 19 CURVE SMOOTH",
"258 103 OFFCURVE",
"278 189 OFFCURVE",
"278 276 CURVE SMOOTH",
"278 363 OFFCURVE",
"258 449 OFFCURVE",
"218 534 CURVE SMOOTH",
"178 618 OFFCURVE",
"126 683 OFFCURVE",
"61 728 CURVE",
"50 713 LINE",
"157 634 OFFCURVE",
"211 489 OFFCURVE",
"211 276 CURVE SMOOTH"
);
}
);
width = 328;
},
{
layerId = "02A3FD94-E825-4850-93A1-2C4DF2FA59C6";
paths = (
{
closed = 1;
nodes = (
"349 -86 OFFCURVE",
"443 125 OFFCURVE",
"443 317 CURVE SMOOTH",
"443 507 OFFCURVE",
"349 718 OFFCURVE",
"210 842 CURVE",
"25 842 LINE",
"23 837 LINE",
"167 729 OFFCURVE",
"281 523 OFFCURVE",
"281 317 CURVE SMOOTH",
"281 109 OFFCURVE",
"164 -97 OFFCURVE",
"20 -205 CURVE",
"22 -210 LINE",
"210 -210 LINE"
);
}
);
width = 493;
}
);
unicode = 0029;
},
{
glyphname = emdash;
lastChange = "2018-12-10 20:11:55 +0000";
layers = (
{
layerId = "E5E720F2-D3D9-49CA-89B4-644343A24549";
paths = (
{
closed = 1;
nodes = (
"948 268 LINE",
"948 293 LINE",
"50 293 LINE",
"50 268 LINE"
);
}
);
width = 998;
},
{
layerId = "02A3FD94-E825-4850-93A1-2C4DF2FA59C6";
paths = (
{
closed = 1;
nodes = (
"50 225 LINE",
"1650 225 LINE",
"1650 360 LINE",
"50 360 LINE"
);
}
);
width = 1700;
}
);
unicode = 2014;
},
{
glyphname = endash;
lastChange = "2018-12-10 20:26:56 +0000";
layers = (
{
layerId = "E5E720F2-D3D9-49CA-89B4-644343A24549";
paths = (
{
closed = 1;
nodes = (
"50 268 LINE",
"472 268 LINE",
"472 293 LINE",
"50 293 LINE"
);
}
);
width = 522;
},
{
layerId = "02A3FD94-E825-4850-93A1-2C4DF2FA59C6";
paths = (
{
closed = 1;
nodes = (
"50 225 LINE",
"900 225 LINE",
"900 360 LINE",
"50 360 LINE"
);
}
);
width = 950;
}
);
unicode = 2013;
},
{
glyphname = hyphen;
lastChange = "2018-12-10 20:18:15 +0000";
layers = (
{
layerId = "E5E720F2-D3D9-49CA-89B4-644343A24549";
paths = (
{
closed = 1;
nodes = (
"223 252 LINE",
"223 311 LINE",
"50 311 LINE",
"50 252 LINE"
);
}
);
width = 273;
},
{
layerId = "02A3FD94-E825-4850-93A1-2C4DF2FA59C6";
paths = (
{
closed = 1;
nodes = (
"50 225 LINE",
"550 226 LINE",
"550 360 LINE",
"50 360 LINE"
);
}
);
width = 600;
}
);
unicode = 002D;
},
{
glyphname = guillemetleft;
lastChange = "2018-12-10 20:19:41 +0000";
layers = (
{
layerId = "E5E720F2-D3D9-49CA-89B4-644343A24549";
paths = (
{
closed = 1;
nodes = (
"283 143 LINE",
"227 206 OFFCURVE",
"180 264 OFFCURVE",
"142 318 CURVE",
"180 372 OFFCURVE",
"227 430 OFFCURVE",
"283 493 CURVE",
"269 507 LINE",
"250 488 OFFCURVE",
"222 462 OFFCURVE",
"186 431 CURVE SMOOTH",
"149 400 OFFCURVE",
"119 374 OFFCURVE",
"96 355 CURVE SMOOTH",
"73 336 OFFCURVE",
"57 323 OFFCURVE",
"50 318 CURVE",
"57 313 OFFCURVE",
"73 300 OFFCURVE",
"96 281 CURVE SMOOTH",
"119 262 OFFCURVE",
"149 236 OFFCURVE",
"186 205 CURVE SMOOTH",
"222 174 OFFCURVE",
"250 148 OFFCURVE",
"269 129 CURVE"
);
},
{
closed = 1;
nodes = (
"440 143 LINE",
"384 206 OFFCURVE",
"337 264 OFFCURVE",
"299 318 CURVE",
"337 372 OFFCURVE",
"384 430 OFFCURVE",
"440 493 CURVE",
"426 507 LINE",
"407 488 OFFCURVE",
"379 462 OFFCURVE",
"343 431 CURVE SMOOTH",
"306 400 OFFCURVE",
"276 374 OFFCURVE",
"253 355 CURVE SMOOTH",
"230 336 OFFCURVE",
"214 323 OFFCURVE",
"207 318 CURVE",
"214 313 OFFCURVE",
"230 300 OFFCURVE",
"253 281 CURVE SMOOTH",
"276 262 OFFCURVE",
"306 236 OFFCURVE",
"343 205 CURVE SMOOTH",
"379 174 OFFCURVE",
"407 148 OFFCURVE",
"426 129 CURVE"
);
}
);
width = 490;
},
{
layerId = "02A3FD94-E825-4850-93A1-2C4DF2FA59C6";
paths = (
{
closed = 1;
nodes = (
"757 46 LINE",
"757 206 LINE",
"600 286 LINE",
"757 366 LINE",
"757 526 LINE",
"423 346 LINE",
"423 226 LINE"
);
},
{
closed = 1;
nodes = (
"384 46 LINE",
"384 206 LINE",
"227 286 LINE",
"384 366 LINE",
"384 526 LINE",
"50 346 LINE",
"50 226 LINE"
);
}
);
width = 807;
}
);
unicode = 00AB;
},
{
glyphname = guillemetright;
lastChange = "2018-12-10 20:19:57 +0000";
layers = (
{
layerId = "E5E720F2-D3D9-49CA-89B4-644343A24549";
paths = (
{
closed = 1;
nodes = (
"221 129 LINE",
"240 148 OFFCURVE",
"268 174 OFFCURVE",
"305 205 CURVE SMOOTH",
"341 236 OFFCURVE",
"371 262 OFFCURVE",
"394 281 CURVE SMOOTH",
"417 300 OFFCURVE",
"433 313 OFFCURVE",
"440 318 CURVE",
"433 323 OFFCURVE",
"417 336 OFFCURVE",
"394 355 CURVE SMOOTH",
"371 374 OFFCURVE",
"341 400 OFFCURVE",
"305 431 CURVE SMOOTH",
"268 462 OFFCURVE",
"240 488 OFFCURVE",
"221 507 CURVE",
"207 493 LINE",
"263 430 OFFCURVE",
"310 372 OFFCURVE",
"348 318 CURVE",
"310 264 OFFCURVE",
"263 206 OFFCURVE",
"207 143 CURVE"
);
},
{
closed = 1;
nodes = (
"64 129 LINE",
"83 148 OFFCURVE",
"111 174 OFFCURVE",
"148 205 CURVE SMOOTH",
"184 236 OFFCURVE",
"214 262 OFFCURVE",
"237 281 CURVE SMOOTH",
"260 300 OFFCURVE",
"276 313 OFFCURVE",
"283 318 CURVE",
"276 323 OFFCURVE",
"260 336 OFFCURVE",
"237 355 CURVE SMOOTH",
"214 374 OFFCURVE",
"184 400 OFFCURVE",
"148 431 CURVE SMOOTH",
"111 462 OFFCURVE",
"83 488 OFFCURVE",
"64 507 CURVE",
"50 493 LINE",
"106 430 OFFCURVE",
"153 372 OFFCURVE",
"191 318 CURVE",
"153 264 OFFCURVE",
"106 206 OFFCURVE",
"50 143 CURVE"
);
}
);
width = 490;
},
{
layerId = "02A3FD94-E825-4850-93A1-2C4DF2FA59C6";
paths = (
{
closed = 1;
nodes = (
"50 46 LINE",
"384 226 LINE",
"384 346 LINE",
"50 526 LINE",
"50 366 LINE",
"207 286 LINE",
"50 206 LINE"
);
},
{
closed = 1;
nodes = (
"423 46 LINE",
"757 226 LINE",
"757 346 LINE",
"423 526 LINE",
"423 366 LINE",
"580 286 LINE",
"423 206 LINE"
);
}
);
width = 807;
}
);
unicode = 00BB;
},
{
glyphname = guilsinglleft;
lastChange = "2018-12-10 20:19:00 +0000";
layers = (
{
layerId = "E5E720F2-D3D9-49CA-89B4-644343A24549";
paths = (
{
closed = 1;
nodes = (
"283 78 LINE",
"227 141 OFFCURVE",
"180 199 OFFCURVE",
"142 253 CURVE",
"180 307 OFFCURVE",
"227 365 OFFCURVE",
"283 428 CURVE",
"269 442 LINE",
"250 423 OFFCURVE",
"222 397 OFFCURVE",
"186 366 CURVE SMOOTH",
"149 335 OFFCURVE",
"119 309 OFFCURVE",
"96 290 CURVE SMOOTH",
"73 271 OFFCURVE",
"57 258 OFFCURVE",
"50 253 CURVE",
"57 248 OFFCURVE",
"73 235 OFFCURVE",
"96 216 CURVE SMOOTH",
"119 197 OFFCURVE",
"149 171 OFFCURVE",
"186 140 CURVE SMOOTH",
"222 109 OFFCURVE",
"250 83 OFFCURVE",
"269 64 CURVE"
);
}
);
width = 333;
},
{
layerId = "02A3FD94-E825-4850-93A1-2C4DF2FA59C6";
paths = (
{
closed = 1;
nodes = (
"384 46 LINE",
"384 206 LINE",
"227 286 LINE",
"384 366 LINE",
"384 526 LINE",
"50 346 LINE",
"50 226 LINE"
);
}
);
width = 434;
}
);
unicode = 2039;
},
{
glyphname = guilsinglright;
lastChange = "2018-12-10 20:19:21 +0000";
layers = (
{
layerId = "E5E720F2-D3D9-49CA-89B4-644343A24549";
paths = (
{
closed = 1;
nodes = (
"64 64 LINE",
"83 83 OFFCURVE",
"111 109 OFFCURVE",
"148 140 CURVE SMOOTH",
"184 171 OFFCURVE",
"214 197 OFFCURVE",
"237 216 CURVE SMOOTH",
"260 235 OFFCURVE",
"276 248 OFFCURVE",
"283 253 CURVE",
"276 258 OFFCURVE",
"260 271 OFFCURVE",
"237 290 CURVE SMOOTH",
"214 309 OFFCURVE",
"184 335 OFFCURVE",
"148 366 CURVE SMOOTH",
"111 397 OFFCURVE",
"83 423 OFFCURVE",
"64 442 CURVE",
"50 428 LINE",
"106 365 OFFCURVE",
"153 307 OFFCURVE",
"191 253 CURVE",
"153 199 OFFCURVE",
"106 141 OFFCURVE",
"50 78 CURVE"
);
}
);
width = 333;
},
{
layerId = "02A3FD94-E825-4850-93A1-2C4DF2FA59C6";
paths = (
{
closed = 1;
nodes = (
"50 46 LINE",
"384 226 LINE",
"384 346 LINE",
"50 526 LINE",
"50 366 LINE",
"207 286 LINE",
"50 206 LINE"
);
}
);
width = 434;
}
);
unicode = 203A;
},
{
glyphname = quotedblleft;
lastChange = "2018-12-10 20:09:52 +0000";
layers = (
{
layerId = "E5E720F2-D3D9-49CA-89B4-644343A24549";
paths = (
{
closed = 1;
nodes = (
"256 504 OFFCURVE",
"268 509 OFFCURVE",
"277 518 CURVE SMOOTH",
"286 527 OFFCURVE",
"291 538 OFFCURVE",
"291 551 CURVE SMOOTH",
"291 564 OFFCURVE",
"287 575 OFFCURVE",
"278 584 CURVE SMOOTH",
"269 593 OFFCURVE",
"258 597 OFFCURVE",
"245 597 CURVE SMOOTH",
"229 597 OFFCURVE",
"217 591 OFFCURVE",
"210 580 CURVE",
"210 601 OFFCURVE",
"217 621 OFFCURVE",
"231 640 CURVE SMOOTH",
"244 658 OFFCURVE",
"261 669 OFFCURVE",
"281 673 CURVE",
"277 689 LINE",
"253 684 OFFCURVE",
"232 671 OFFCURVE",
"214 649 CURVE SMOOTH",
"196 627 OFFCURVE",
"187 602 OFFCURVE",
"187 573 CURVE SMOOTH",
"187 552 OFFCURVE",
"193 535 OFFCURVE",
"204 523 CURVE SMOOTH",
"215 510 OFFCURVE",
"227 504 OFFCURVE",
"242 504 CURVE SMOOTH"
);
},
{
closed = 1;
nodes = (
"119 504 OFFCURVE",
"131 509 OFFCURVE",
"140 518 CURVE SMOOTH",
"149 527 OFFCURVE",
"154 538 OFFCURVE",
"154 551 CURVE SMOOTH",
"154 564 OFFCURVE",
"150 575 OFFCURVE",
"141 584 CURVE SMOOTH",
"132 593 OFFCURVE",
"121 597 OFFCURVE",
"108 597 CURVE SMOOTH",
"92 597 OFFCURVE",
"80 591 OFFCURVE",
"73 580 CURVE",
"73 601 OFFCURVE",
"80 621 OFFCURVE",
"94 640 CURVE SMOOTH",
"107 658 OFFCURVE",
"124 669 OFFCURVE",
"144 673 CURVE",
"140 689 LINE",
"116 684 OFFCURVE",
"95 671 OFFCURVE",
"77 649 CURVE SMOOTH",
"59 627 OFFCURVE",
"50 602 OFFCURVE",
"50 573 CURVE SMOOTH",
"50 552 OFFCURVE",
"56 535 OFFCURVE",
"67 523 CURVE SMOOTH",
"78 510 OFFCURVE",
"90 504 OFFCURVE",
"105 504 CURVE SMOOTH"
);
}
);
width = 341;
},
{
layerId = "02A3FD94-E825-4850-93A1-2C4DF2FA59C6";
paths = (
{
closed = 1;
nodes = (
"518 368 LINE",
"518 545 LINE",
"462 545 LINE",
"519 722 LINE",
"452 722 LINE",
"319 513 LINE",
"319 368 LINE"
);
},
{
closed = 1;
nodes = (
"249 368 LINE",
"249 545 LINE",
"193 545 LINE",
"250 722 LINE",
"183 722 LINE",
"50 513 LINE",
"50 368 LINE"
);
}
);
width = 569;
}
);
unicode = 201C;
},
{
glyphname = quotedblright;
lastChange = "2018-12-10 20:10:12 +0000";
layers = (
{
layerId = "E5E720F2-D3D9-49CA-89B4-644343A24549";
paths = (
{
closed = 1;
nodes = (
"64 504 LINE",
"88 509 OFFCURVE",
"109 522 OFFCURVE",
"127 544 CURVE SMOOTH",
"145 566 OFFCURVE",
"154 591 OFFCURVE",
"154 620 CURVE SMOOTH",
"154 641 OFFCURVE",
"149 658 OFFCURVE",
"138 671 CURVE SMOOTH",
"127 683 OFFCURVE",
"114 689 OFFCURVE",
"99 689 CURVE SMOOTH",
"85 689 OFFCURVE",
"73 684 OFFCURVE",
"64 675 CURVE SMOOTH",
"55 666 OFFCURVE",
"50 655 OFFCURVE",
"50 642 CURVE SMOOTH",
"50 629 OFFCURVE",
"54 618 OFFCURVE",
"63 609 CURVE SMOOTH",
"72 600 OFFCURVE",
"83 596 OFFCURVE",
"96 596 CURVE SMOOTH",
"112 596 OFFCURVE",
"124 602 OFFCURVE",
"131 613 CURVE",
"131 592 OFFCURVE",
"124 572 OFFCURVE",
"111 554 CURVE SMOOTH",
"97 535 OFFCURVE",
"80 524 OFFCURVE",
"60 520 CURVE"
);
},
{
closed = 1;
nodes = (
"201 504 LINE",
"225 509 OFFCURVE",
"246 522 OFFCURVE",
"264 544 CURVE SMOOTH",
"282 566 OFFCURVE",
"291 591 OFFCURVE",
"291 620 CURVE SMOOTH",
"291 641 OFFCURVE",
"286 658 OFFCURVE",
"275 671 CURVE SMOOTH",
"264 683 OFFCURVE",
"251 689 OFFCURVE",
"236 689 CURVE SMOOTH",
"222 689 OFFCURVE",
"210 684 OFFCURVE",
"201 675 CURVE SMOOTH",
"192 666 OFFCURVE",
"187 655 OFFCURVE",
"187 642 CURVE SMOOTH",
"187 629 OFFCURVE",
"191 618 OFFCURVE",
"200 609 CURVE SMOOTH",
"209 600 OFFCURVE",
"220 596 OFFCURVE",
"233 596 CURVE SMOOTH",
"249 596 OFFCURVE",
"261 602 OFFCURVE",
"268 613 CURVE",
"268 592 OFFCURVE",
"261 572 OFFCURVE",
"248 554 CURVE SMOOTH",
"234 535 OFFCURVE",
"217 524 OFFCURVE",
"197 520 CURVE"
);
}
);
width = 341;
},
{
layerId = "02A3FD94-E825-4850-93A1-2C4DF2FA59C6";
paths = (
{
closed = 1;
nodes = (
"117 368 LINE",
"250 577 LINE",
"250 722 LINE",
"51 722 LINE",
"51 545 LINE",
"107 545 LINE",
"50 368 LINE"
);
},
{
closed = 1;
nodes = (
"386 368 LINE",
"519 577 LINE",
"519 722 LINE",
"320 722 LINE",
"320 545 LINE",
"376 545 LINE",
"319 368 LINE"
);
}
);
width = 569;
}
);
unicode = 201D;
},
{
glyphname = quoteleft;
lastChange = "2018-12-10 20:13:55 +0000";
layers = (
{
layerId = "E5E720F2-D3D9-49CA-89B4-644343A24549";
paths = (
{
closed = 1;
nodes = (
"119 504 OFFCURVE",
"131 509 OFFCURVE",
"140 518 CURVE SMOOTH",
"149 527 OFFCURVE",
"154 538 OFFCURVE",
"154 551 CURVE SMOOTH",
"154 564 OFFCURVE",
"150 575 OFFCURVE",
"141 584 CURVE SMOOTH",
"132 593 OFFCURVE",
"121 597 OFFCURVE",
"108 597 CURVE SMOOTH",
"92 597 OFFCURVE",
"80 591 OFFCURVE",
"73 580 CURVE",
"73 601 OFFCURVE",
"80 621 OFFCURVE",
"94 640 CURVE SMOOTH",
"107 658 OFFCURVE",
"124 669 OFFCURVE",
"144 673 CURVE",
"140 689 LINE",
"116 684 OFFCURVE",
"95 671 OFFCURVE",
"77 649 CURVE SMOOTH",
"59 627 OFFCURVE",
"50 602 OFFCURVE",
"50 573 CURVE SMOOTH",
"50 552 OFFCURVE",
"56 535 OFFCURVE",
"67 523 CURVE SMOOTH",
"78 510 OFFCURVE",
"90 504 OFFCURVE",
"105 504 CURVE SMOOTH"
);
}
);
width = 204;
},
{
layerId = "02A3FD94-E825-4850-93A1-2C4DF2FA59C6";
paths = (
{
closed = 1;
nodes = (
"249 380 LINE",
"249 557 LINE",
"193 557 LINE",
"250 734 LINE",
"183 734 LINE",
"50 525 LINE",
"50 380 LINE"
);
}
);
width = 300;
}
);
unicode = 2018;
},
{
glyphname = quoteright;
lastChange = "2018-12-10 20:14:17 +0000";
layers = (
{
layerId = "E5E720F2-D3D9-49CA-89B4-644343A24549";
paths = (
{
closed = 1;
nodes = (
"64 504 LINE",
"88 509 OFFCURVE",
"109 522 OFFCURVE",
"127 544 CURVE SMOOTH",
"145 566 OFFCURVE",
"154 591 OFFCURVE",
"154 620 CURVE SMOOTH",
"154 641 OFFCURVE",
"149 658 OFFCURVE",
"138 671 CURVE SMOOTH",
"127 683 OFFCURVE",
"114 689 OFFCURVE",
"99 689 CURVE SMOOTH",
"85 689 OFFCURVE",
"73 684 OFFCURVE",
"64 675 CURVE SMOOTH",
"55 666 OFFCURVE",
"50 655 OFFCURVE",
"50 642 CURVE SMOOTH",
"50 629 OFFCURVE",
"54 618 OFFCURVE",
"63 609 CURVE SMOOTH",
"72 600 OFFCURVE",
"83 596 OFFCURVE",
"96 596 CURVE SMOOTH",
"112 596 OFFCURVE",
"124 602 OFFCURVE",
"131 613 CURVE",
"131 592 OFFCURVE",
"124 572 OFFCURVE",
"111 554 CURVE SMOOTH",
"97 535 OFFCURVE",
"80 524 OFFCURVE",
"60 520 CURVE"
);
}
);
width = 204;
},
{
layerId = "02A3FD94-E825-4850-93A1-2C4DF2FA59C6";
paths = (
{
closed = 1;
nodes = (
"51 734 LINE",
"51 557 LINE",
"107 557 LINE",
"50 380 LINE",
"117 380 LINE",
"250 589 LINE",
"250 734 LINE"
);
}
);
width = 300;
}
);
unicode = 2019;
},
{
glyphname = cent;
lastChange = "2018-12-29 19:36:33 +0000";
layers = (
{
layerId = "E5E720F2-D3D9-49CA-89B4-644343A24549";
paths = (
{
closed = 1;
nodes = (
"685 384 LINE",
"685 384 OFFCURVE",
"609 520 OFFCURVE",
"373 514 CURVE SMOOTH",
"185 509 OFFCURVE",
"50 393 OFFCURVE",
"50 250 CURVE SMOOTH",
"42 95 OFFCURVE",
"199 -14 OFFCURVE",
"373 -14 CURVE SMOOTH",
"561 -14 OFFCURVE",
"660 82 OFFCURVE",
"689 141 CURVE",
"674 158 LINE",
"658 112 OFFCURVE",
"565 25 OFFCURVE",
"401 27 CURVE SMOOTH",
"264 29 OFFCURVE",
"140 125 OFFCURVE",
"140 250 CURVE",
"140 414 OFFCURVE",
"226 500 OFFCURVE",
"373 500 CURVE SMOOTH",
"523 500 OFFCURVE",
"587 400 OFFCURVE",
"610 295 CURVE",
"614 295 LINE"
);
},
{
closed = 1;
nodes = (
"252 -128 LINE",
"508 632 LINE",
"487 640 LINE",
"232 -120 LINE"
);
}
);
width = 739;
},
{
layerId = "02A3FD94-E825-4850-93A1-2C4DF2FA59C6";
paths = (
{
closed = 1;
nodes = (
"50 84 OFFCURVE",
"222 -30 OFFCURVE",
"457 -30 CURVE SMOOTH",
"611 -30 OFFCURVE",
"734 0 OFFCURVE",
"804 39 CURVE",
"746 161 LINE",
"701 125 OFFCURVE",
"576 100 OFFCURVE",
"457 100 CURVE SMOOTH",
"318 100 OFFCURVE",
"225 162 OFFCURVE",
"225 256 CURVE SMOOTH",
"225 350 OFFCURVE",
"318 412 OFFCURVE",
"457 412 CURVE SMOOTH",
"576 412 OFFCURVE",
"702 373 OFFCURVE",
"747 337 CURVE",
"805 458 LINE",
"736 497 OFFCURVE",
"611 542 OFFCURVE",
"457 542 CURVE SMOOTH",
"222 542 OFFCURVE",
"50 428 OFFCURVE",
"50 256 CURVE SMOOTH"
);
},
{
closed = 1;
nodes = (
"630 660 LINE",
"138 -108 LINE",
"141 -112 LINE",
"290 -112 LINE",
"785 660 LINE"
);
},
{
closed = 1;
nodes = (
"765 650 LINE",
"610 650 LINE"
);
}
);
width = 855;
}
);
unicode = 00A2;
},
{
glyphname = dollar;
lastChange = "2019-03-05 13:05:19 +0000";
layers = (
{
layerId = "E5E720F2-D3D9-49CA-89B4-644343A24549";
paths = (
{
closed = 1;
nodes = (
"50 259 LINE",
"54 267 LINE",
"131 112 OFFCURVE",
"258 33 OFFCURVE",
"397 33 CURVE SMOOTH",
"486 33 OFFCURVE",
"548 67 OFFCURVE",
"548 142 CURVE SMOOTH",
"548 248 OFFCURVE",
"408 248 OFFCURVE",
"284 293 CURVE SMOOTH",
"171 334 OFFCURVE",
"76 385 OFFCURVE",
"76 482 CURVE SMOOTH",
"76 558 OFFCURVE",
"141 617 OFFCURVE",
"243 617 CURVE SMOOTH",
"319 617 OFFCURVE",
"401 572 OFFCURVE",
"461 538 CURVE",
"510 602 LINE",
"604 372 LINE",
"601 366 LINE",
"492 539 OFFCURVE",
"326 595 OFFCURVE",
"243 595 CURVE",
"183 598 OFFCURVE",
"135 566 OFFCURVE",
"135 502 CURVE SMOOTH",
"135 450 OFFCURVE",
"174 417 OFFCURVE",
"315 370 CURVE SMOOTH",
"425 333 OFFCURVE",
"607 314 OFFCURVE",
"607 164 CURVE SMOOTH",
"607 33 OFFCURVE",
"506 12 OFFCURVE",
"408 12 CURVE SMOOTH",
"327 12 OFFCURVE",
"234 44 OFFCURVE",
"176 91 CURVE",
"127 27 LINE"
);
},
{
closed = 1;
nodes = (
"318 700 LINE",
"339 700 LINE",
"339 -71 LINE",
"318 -71 LINE"
);
}
);
width = 657;
},
{
components = (
{
name = bar;
transform = "{1, 0, 0, 1, 392, 0}";
}
);
layerId = "02A3FD94-E825-4850-93A1-2C4DF2FA59C6";
paths = (
{
closed = 1;
nodes = (
"170 10 OFFCURVE",
"359 -30 OFFCURVE",
"521 -30 CURVE SMOOTH",
"762 -30 OFFCURVE",
"990 24 OFFCURVE",
"990 213 CURVE SMOOTH",
"990 435 OFFCURVE",
"747 431 OFFCURVE",
"526 433 CURVE SMOOTH",
"349 436 OFFCURVE",
"257 460 OFFCURVE",
"257 519 CURVE SMOOTH",
"257 568 OFFCURVE",
"337 608 OFFCURVE",
"484 608 CURVE SMOOTH",
"617 608 OFFCURVE",
"790 581 OFFCURVE",
"903 507 CURVE",
"949 650 LINE",
"829 725 OFFCURVE",
"659 751 OFFCURVE",
"494 751 CURVE SMOOTH",
"267 751 OFFCURVE",
"95 688 OFFCURVE",
"95 510 CURVE SMOOTH",
"95 303 OFFCURVE",
"330 278 OFFCURVE",
"559 278 CURVE SMOOTH",
"692 278 OFFCURVE",
"817 279 OFFCURVE",
"817 213 CURVE SMOOTH",
"817 136 OFFCURVE",
"685 117 OFFCURVE",
"578 117 CURVE SMOOTH",
"410 117 OFFCURVE",
"220 158 OFFCURVE",
"96 242 CURVE",
"50 91 LINE"
);
}
);
width = 1040;
},
{
associatedMasterId = "02A3FD94-E825-4850-93A1-2C4DF2FA59C6";
components = (
{
name = bar;
transform = "{1, 0, 0, 1, 358, 0}";
}
);
layerId = "FDA8A94A-48B2-4745-813E-BEBBF6633BB0";
name = "Mar 5 19, 14:04";
paths = (
{
closed = 1;
nodes = (
"174 40 OFFCURVE",
"322 1 OFFCURVE",
"482 1 CURVE SMOOTH",
"768 1 OFFCURVE",
"918 81 OFFCURVE",
"918 234 CURVE SMOOTH",
"918 372 OFFCURVE",
"770 445 OFFCURVE",
"487 448 CURVE SMOOTH",
"313 450 OFFCURVE",
"223 477 OFFCURVE",
"223 527 CURVE SMOOTH",
"223 578 OFFCURVE",
"302 605 OFFCURVE",
"454 606 CURVE SMOOTH",
"611 607 OFFCURVE",
"746 573 OFFCURVE",
"847 507 CURVE",
"891 642 LINE",
"774 707 OFFCURVE",
"625 741 OFFCURVE",
"457 740 CURVE SMOOTH",
"211 739 OFFCURVE",
"83 666 OFFCURVE",
"83 521 CURVE SMOOTH",
"83 381 OFFCURVE",
"223 315 OFFCURVE",
"518 308 CURVE SMOOTH",
"688 304 OFFCURVE",
"777 280 OFFCURVE",
"777 234 CURVE SMOOTH",
"777 173 OFFCURVE",
"682 139 OFFCURVE",
"500 135 CURVE SMOOTH",
"348 131 OFFCURVE",
"208 170 OFFCURVE",
"95 248 CURVE",
"50 116 LINE"
);
}
);
width = 968;
}
);
unicode = 0024;
},
{
glyphname = euro;
lastChange = "2019-03-05 13:06:03 +0000";
layers = (
{
layerId = "E5E720F2-D3D9-49CA-89B4-644343A24549";
paths = (
{
closed = 1;
nodes = (
"491 -10 OFFCURVE",
"583 41 OFFCURVE",
"605 122 CURVE",
"574 153 LINE",
"556 55 OFFCURVE",
"496 14 OFFCURVE",
"413 14 CURVE",
"378 14 OFFCURVE",
"349 20 OFFCURVE",
"326 33 CURVE SMOOTH",
"302 45 OFFCURVE",
"284 63 OFFCURVE",
"271 88 CURVE SMOOTH",
"258 112 OFFCURVE",
"249 138 OFFCURVE",
"244 166 CURVE SMOOTH",
"238 193 OFFCURVE",
"234 231 OFFCURVE",
"233 270 CURVE",
"490 270 LINE",
"490 285 LINE",
"233 285 LINE",
"233 395 LINE",
"490 395 LINE",
"490 410 LINE",
"233 410 LINE",
"234 449 OFFCURVE",
"238 487 OFFCURVE",
"244 515 CURVE SMOOTH",
"263 617 OFFCURVE",
"315 667 OFFCURVE",
"413 667 CURVE SMOOTH",
"496 667 OFFCURVE",
"556 620 OFFCURVE",
"574 527 CURVE",
"605 558 LINE",
"583 644 OFFCURVE",
"500 691 OFFCURVE",
"413 691 CURVE SMOOTH",
"265 691 OFFCURVE",
"175 564 OFFCURVE",
"154 410 CURVE",
"50 410 LINE",
"50 395 LINE",
"151 395 LINE",
"150 372 OFFCURVE",
"149 351 OFFCURVE",
"149 340 CURVE SMOOTH",
"149 328 OFFCURVE",
"150 306 OFFCURVE",
"151 285 CURVE",
"50 285 LINE",
"50 270 LINE",
"154 270 LINE",
"165 189 OFFCURVE",
"194 118 OFFCURVE",
"239 67 CURVE SMOOTH",
"284 16 OFFCURVE",
"342 -10 OFFCURVE",
"413 -10 CURVE SMOOTH"
);
}
);
width = 655;
},
{
layerId = "02A3FD94-E825-4850-93A1-2C4DF2FA59C6";
paths = (
{
closed = 1;
nodes = (
"1187 249 LINE",
"1061 181 OFFCURVE",
"925 138 OFFCURVE",
"781 138 CURVE SMOOTH",
"560 138 OFFCURVE",
"434 203 OFFCURVE",
"406 314 CURVE",
"907 314 LINE",
"980 438 LINE",
"414 438 LINE",
"454 536 OFFCURVE",
"579 592 OFFCURVE",
"781 592 CURVE SMOOTH",
"925 592 OFFCURVE",
"1061 550 OFFCURVE",
"1187 481 CURVE",
"1193 644 LINE",
"1063 711 OFFCURVE",
"927 742 OFFCURVE",
"763 742 CURVE SMOOTH",
"455 742 OFFCURVE",
"256 631 OFFCURVE",
"217 438 CURVE",
"129 438 LINE",
"52 314 LINE",
"213 314 LINE",
"242 107 OFFCURVE",
"445 -12 OFFCURVE",
"774 -12 CURVE SMOOTH",
"924 -12 OFFCURVE",
"1050 13 OFFCURVE",
"1192 86 CURVE"
);
}
);
width = 1243;
}
);
unicode = 20AC;
},
{
glyphname = sterling;
lastChange = "2019-03-05 13:06:13 +0000";
layers = (
{
layerId = "E5E720F2-D3D9-49CA-89B4-644343A24549";
paths = (
{
closed = 1;
nodes = (
"480 -8 OFFCURVE",
"508 4 OFFCURVE",
"529 29 CURVE SMOOTH",
"549 53 OFFCURVE",
"559 86 OFFCURVE",
"559 127 CURVE SMOOTH",
"559 164 OFFCURVE",
"542 215 OFFCURVE",
"520 243 CURVE",
"505 231 LINE",
"522 206 OFFCURVE",
"531 175 OFFCURVE",
"531 138 CURVE SMOOTH",
"531 81 OFFCURVE",
"506 52 OFFCURVE",
"455 52 CURVE SMOOTH",
"428 52 OFFCURVE",
"397 61 OFFCURVE",
"375 69 CURVE SMOOTH",
"358 75 OFFCURVE",
"337 84 OFFCURVE",
"312 96 CURVE SMOOTH",
"301 101 OFFCURVE",
"290 106 OFFCURVE",
"287 107 CURVE",
"298 138 OFFCURVE",
"307 170 OFFCURVE",
"307 209 CURVE SMOOTH",
"307 236 OFFCURVE",
"302 272 OFFCURVE",
"293 308 CURVE",
"466 308 LINE",
"466 323 LINE",
"282 323 LINE",
"272 343 OFFCURVE",
"266 367 OFFCURVE",
"258 387 CURVE SMOOTH",
"247 414 OFFCURVE",
"242 436 OFFCURVE",
"238 449 CURVE SMOOTH",
"234 462 OFFCURVE",
"230 479 OFFCURVE",
"226 499 CURVE SMOOTH",
"222 519 OFFCURVE",
"220 537 OFFCURVE",
"220 552 CURVE SMOOTH",
"220 588 OFFCURVE",
"230 616 OFFCURVE",
"250 637 CURVE SMOOTH",
"270 657 OFFCURVE",
"309 677 OFFCURVE",
"347 677 CURVE SMOOTH",
"460 677 OFFCURVE",
"484 563 OFFCURVE",
"489 513 CURVE",
"530 558 LINE",
"524 596 OFFCURVE",
"498 632 OFFCURVE",
"470 652 CURVE SMOOTH",
"431 679 OFFCURVE",
"389 691 OFFCURVE",
"347 691 CURVE SMOOTH",
"300 691 OFFCURVE",
"258 675 OFFCURVE",
"219 644 CURVE SMOOTH",
"180 612 OFFCURVE",
"161 571 OFFCURVE",
"161 522 CURVE SMOOTH",
"161 475 OFFCURVE",
"180 405 OFFCURVE",
"219 323 CURVE",
"94 323 LINE",
"94 308 LINE",
"230 308 LINE",
"261 238 OFFCURVE",
"276 168 OFFCURVE",
"266 114 CURVE",
"225 131 OFFCURVE",
"185 143 OFFCURVE",
"155 143 CURVE SMOOTH",
"124 143 OFFCURVE",
"98 136 OFFCURVE",
"79 122 CURVE SMOOTH",
"60 107 OFFCURVE",
"50 88 OFFCURVE",
"50 65 CURVE SMOOTH",
"50 42 OFFCURVE",
"59 24 OFFCURVE",
"76 11 CURVE SMOOTH",
"93 -3 OFFCURVE",
"115 -10 OFFCURVE",
"141 -10 CURVE SMOOTH",
"198 -10 OFFCURVE",
"237 15 OFFCURVE",
"267 65 CURVE",
"272 63 OFFCURVE",
"286 56 OFFCURVE",
"300 48 CURVE SMOOTH",
"363 12 OFFCURVE",
"397 -8 OFFCURVE",
"443 -8 CURVE SMOOTH"
);
},
{
closed = 1;
nodes = (
"116 8 OFFCURVE",
"99 13 OFFCURVE",
"85 24 CURVE",
"72 34 OFFCURVE",
"65 48 OFFCURVE",
"65 65 CURVE",
"65 81 OFFCURVE",
"71 94 OFFCURVE",
"84 105 CURVE",
"97 115 OFFCURVE",
"113 120 OFFCURVE",
"134 120 CURVE SMOOTH",
"168 120 OFFCURVE",
"213 106 OFFCURVE",
"254 74 CURVE",
"231 27 OFFCURVE",
"195 8 OFFCURVE",
"138 8 CURVE SMOOTH"
);
}
);
width = 609;
},
{
layerId = "02A3FD94-E825-4850-93A1-2C4DF2FA59C6";
paths = (
{
closed = 1;
nodes = (
"956 201 LINE",
"867 148 OFFCURVE",
"815 131 OFFCURVE",
"740 131 CURVE SMOOTH",
"631 131 OFFCURVE",
"554 191 OFFCURVE",
"432 191 CURVE SMOOTH",
"384 191 OFFCURVE",
"349 186 OFFCURVE",
"286 168 CURVE",
"337 199 OFFCURVE",
"367 240 OFFCURVE",
"367 291 CURVE SMOOTH",
"367 297 OFFCURVE",
"366 303 OFFCURVE",
"365 309 CURVE",
"765 309 LINE",
"765 438 LINE",
"313 438 LINE",
"307 453 OFFCURVE",
"303 467 OFFCURVE",
"303 480 CURVE SMOOTH",
"303 541 OFFCURVE",
"405 590 OFFCURVE",
"532 590 CURVE SMOOTH",
"675 590 OFFCURVE",
"779 556 OFFCURVE",
"896 471 CURVE",
"901 637 LINE",
"795 707 OFFCURVE",
"694 742 OFFCURVE",
"522 742 CURVE SMOOTH",
"294 742 OFFCURVE",
"120 636 OFFCURVE",
"120 493 CURVE SMOOTH",
"120 473 OFFCURVE",
"122 455 OFFCURVE",
"126 438 CURVE",
"51 438 LINE",
"51 309 LINE",
"186 309 LINE",
"197 287 OFFCURVE",
"206 268 OFFCURVE",
"206 249 CURVE SMOOTH",
"206 209 OFFCURVE",
"168 181 OFFCURVE",
"50 134 CURVE",
"109 0 LINE",
"210 44 OFFCURVE",
"280 62 OFFCURVE",
"347 62 CURVE SMOOTH",
"487 62 OFFCURVE",
"597 -14 OFFCURVE",
"737 -14 CURVE SMOOTH",
"803 -14 OFFCURVE",
"875 3 OFFCURVE",
"960 51 CURVE"
);
}
);
width = 1010;
}
);
unicode = 00A3;
},
{
glyphname = plus;
lastChange = "2018-12-10 20:23:46 +0000";
layers = (
{
layerId = "E5E720F2-D3D9-49CA-89B4-644343A24549";
paths = (
{
closed = 1;
nodes = (
"490 310 LINE",
"490 335 LINE",
"283 335 LINE",
"283 543 LINE",
"257 543 LINE",
"257 335 LINE",
"50 335 LINE",
"50 310 LINE",
"257 310 LINE",
"257 103 LINE",
"283 103 LINE",
"283 310 LINE"
);
}
);
width = 540;
},
{
layerId = "02A3FD94-E825-4850-93A1-2C4DF2FA59C6";
paths = (
{
closed = 1;
nodes = (
"870 311 LINE",
"870 439 LINE",
"534 439 LINE",
"534 650 LINE",
"386 650 LINE",
"386 439 LINE",
"50 439 LINE",
"50 311 LINE",
"386 311 LINE",
"386 100 LINE",
"534 100 LINE",
"534 311 LINE"
);
}
);
width = 920;
}
);
unicode = 002B;
},
{
glyphname = minus;
lastChange = "2018-12-10 20:27:25 +0000";
layers = (
{
layerId = "E5E720F2-D3D9-49CA-89B4-644343A24549";
paths = (
{
closed = 1;
nodes = (
"50 309 LINE",
"450 309 LINE",
"450 334 LINE",
"50 334 LINE"
);
}
);
width = 500;
},
{
layerId = "02A3FD94-E825-4850-93A1-2C4DF2FA59C6";
paths = (
{
closed = 1;
nodes = (
"50 311 LINE",
"870 311 LINE",
"870 439 LINE",
"50 439 LINE"
);
}
);
width = 920;
}
);
unicode = 2212;
},
{
glyphname = multiply;
lastChange = "2018-12-10 20:27:53 +0000";
layers = (
{
layerId = "E5E720F2-D3D9-49CA-89B4-644343A24549";
paths = (
{
closed = 1;
nodes = (
"392 142 LINE",
"410 160 LINE",
"248 322 LINE",
"410 484 LINE",
"392 502 LINE",
"230 340 LINE",
"68 502 LINE",
"50 484 LINE",
"212 322 LINE",
"50 160 LINE",
"68 142 LINE",
"230 304 LINE"
);
}
);
width = 460;
},
{
layerId = "02A3FD94-E825-4850-93A1-2C4DF2FA59C6";
paths = (
{
closed = 1;
nodes = (
"505 91 LINE",
"603 189 LINE",
"425 368 LINE",
"603 546 LINE",
"505 644 LINE",
"327 466 LINE",
"148 644 LINE",
"50 546 LINE",
"229 368 LINE",
"50 189 LINE",
"148 91 LINE",
"327 270 LINE"
);
}
);
width = 653;
}
);
unicode = 00D7;
},
{
glyphname = equal;
lastChange = "2018-12-10 20:22:45 +0000";
layers = (
{
layerId = "E5E720F2-D3D9-49CA-89B4-644343A24549";
paths = (
{
closed = 1;
nodes = (
"50 330 LINE",
"450 330 LINE",
"450 355 LINE",
"50 355 LINE"
);
},
{
closed = 1;
nodes = (
"50 151 LINE",
"450 151 LINE",
"450 176 LINE",
"50 176 LINE"
);
}
);
width = 500;
},
{
layerId = "02A3FD94-E825-4850-93A1-2C4DF2FA59C6";
paths = (
{
closed = 1;
nodes = (
"50 452 LINE",
"870 452 LINE",
"870 580 LINE",
"50 580 LINE"
);
},
{
closed = 1;
nodes = (
"50 167 LINE",
"870 167 LINE",
"870 295 LINE",
"50 295 LINE"
);
}
);
width = 920;
}
);
unicode = 003D;
},
{
glyphname = greater;
lastChange = "2018-12-10 20:28:12 +0000";
layers = (
{
layerId = "E5E720F2-D3D9-49CA-89B4-644343A24549";
paths = (
{
closed = 1;
nodes = (
"60 134 LINE",
"436 310 LINE",
"436 336 LINE",
"60 512 LINE",
"50 489 LINE",
"405 323 LINE",
"50 157 LINE"
);
}
);
width = 486;
},
{
layerId = "02A3FD94-E825-4850-93A1-2C4DF2FA59C6";
paths = (
{
closed = 1;
nodes = (
"50 61 LINE",
"797 297 LINE",
"797 425 LINE",
"50 661 LINE",
"50 515 LINE",
"569 361 LINE",
"50 208 LINE"
);
}
);
width = 847;
}
);
unicode = 003E;
},
{
glyphname = less;
lastChange = "2018-12-10 20:28:31 +0000";
layers = (
{
layerId = "E5E720F2-D3D9-49CA-89B4-644343A24549";
paths = (
{
closed = 1;
nodes = (
"426 134 LINE",
"436 157 LINE",
"81 323 LINE",
"436 489 LINE",
"426 512 LINE",
"50 336 LINE",
"50 310 LINE"
);
}
);
width = 486;
},
{
layerId = "02A3FD94-E825-4850-93A1-2C4DF2FA59C6";
paths = (
{
closed = 1;
nodes = (
"797 61 LINE",
"797 208 LINE",
"278 361 LINE",
"797 515 LINE",
"797 661 LINE",
"50 425 LINE",
"50 297 LINE"
);
}
);
width = 847;
}
);
unicode = 003C;
},
{
glyphname = percent;
lastChange = "2018-12-10 20:30:38 +0000";
layers = (
{
layerId = "E5E720F2-D3D9-49CA-89B4-644343A24549";
paths = (
{
closed = 1;
nodes = (
"167 -16 LINE",
"559 683 LINE",
"539 695 LINE",
"520 669 OFFCURVE",
"496 648 OFFCURVE",
"465 633 CURVE SMOOTH",
"434 617 OFFCURVE",
"407 609 OFFCURVE",
"382 609 CURVE SMOOTH",
"342 609 OFFCURVE",
"306 624 OFFCURVE",
"274 655 CURVE SMOOTH",
"251 677 OFFCURVE",
"223 688 OFFCURVE",
"191 688 CURVE SMOOTH",
"148 688 OFFCURVE",
"114 672 OFFCURVE",
"89 639 CURVE SMOOTH",
"63 606 OFFCURVE",
"50 566 OFFCURVE",
"50 517 CURVE SMOOTH",
"50 468 OFFCURVE",
"63 427 OFFCURVE",
"89 395 CURVE SMOOTH",
"114 362 OFFCURVE",
"148 346 OFFCURVE",
"191 346 CURVE SMOOTH",
"233 346 OFFCURVE",
"266 362 OFFCURVE",
"289 395 CURVE SMOOTH",
"312 428 OFFCURVE",
"323 468 OFFCURVE",
"323 517 CURVE SMOOTH",
"323 548 OFFCURVE",
"318 577 OFFCURVE",
"307 603 CURVE",
"329 592 OFFCURVE",
"354 586 OFFCURVE",
"382 586 CURVE SMOOTH",
"425 586 OFFCURVE",
"466 600 OFFCURVE",
"503 629 CURVE",
"146 -4 LINE"
);
},
{
closed = 1;
nodes = (
"560 -8 OFFCURVE",
"592 8 OFFCURVE",
"615 41 CURVE SMOOTH",
"638 74 OFFCURVE",
"649 114 OFFCURVE",
"649 163 CURVE SMOOTH",
"649 211 OFFCURVE",
"638 252 OFFCURVE",
"615 285 CURVE SMOOTH",
"592 318 OFFCURVE",
"560 334 OFFCURVE",
"518 334 CURVE SMOOTH",
"475 334 OFFCURVE",
"441 318 OFFCURVE",
"415 285 CURVE SMOOTH",
"389 252 OFFCURVE",
"376 212 OFFCURVE",
"376 163 CURVE SMOOTH",
"376 114 OFFCURVE",
"389 73 OFFCURVE",
"415 41 CURVE SMOOTH",
"441 8 OFFCURVE",
"475 -8 OFFCURVE",
"518 -8 CURVE SMOOTH"
);
},
{
closed = 1;
nodes = (
"160 369 OFFCURVE",
"139 382 OFFCURVE",
"128 407 CURVE SMOOTH",
"117 432 OFFCURVE",
"111 469 OFFCURVE",
"111 517 CURVE SMOOTH",
"111 548 OFFCURVE",
"113 574 OFFCURVE",
"117 594 CURVE SMOOTH",
"120 613 OFFCURVE",
"128 630 OFFCURVE",
"141 644 CURVE SMOOTH",
"153 658 OFFCURVE",
"170 665 OFFCURVE",
"192 665 CURVE SMOOTH",
"226 665 OFFCURVE",
"252 651 OFFCURVE",
"271 623 CURVE SMOOTH",
"289 594 OFFCURVE",
"298 559 OFFCURVE",
"298 517 CURVE SMOOTH",
"298 474 OFFCURVE",
"289 439 OFFCURVE",
"271 411 CURVE SMOOTH",
"252 383 OFFCURVE",
"226 369 OFFCURVE",
"192 369 CURVE SMOOTH"
);
},
{
closed = 1;
nodes = (
"486 15 OFFCURVE",
"465 28 OFFCURVE",
"454 53 CURVE SMOOTH",
"443 78 OFFCURVE",
"437 115 OFFCURVE",
"437 163 CURVE SMOOTH",
"437 194 OFFCURVE",
"439 220 OFFCURVE",
"443 240 CURVE SMOOTH",
"446 259 OFFCURVE",
"454 276 OFFCURVE",
"467 290 CURVE SMOOTH",
"479 304 OFFCURVE",
"496 311 OFFCURVE",
"518 311 CURVE SMOOTH",
"552 311 OFFCURVE",
"578 297 OFFCURVE",
"597 269 CURVE SMOOTH",
"615 240 OFFCURVE",
"624 205 OFFCURVE",
"624 163 CURVE SMOOTH",
"624 120 OFFCURVE",
"615 85 OFFCURVE",
"597 57 CURVE SMOOTH",
"578 29 OFFCURVE",
"552 15 OFFCURVE",
"518 15 CURVE SMOOTH"
);
}
);
width = 699;
},
{
layerId = "02A3FD94-E825-4850-93A1-2C4DF2FA59C6";
paths = (
{
closed = 1;
nodes = (
"577 248 OFFCURVE",
"706 339 OFFCURVE",
"706 494 CURVE SMOOTH",
"706 650 OFFCURVE",
"577 740 OFFCURVE",
"378 740 CURVE SMOOTH",
"178 740 OFFCURVE",
"50 650 OFFCURVE",
"50 494 CURVE SMOOTH",
"50 339 OFFCURVE",
"178 248 OFFCURVE",
"378 248 CURVE SMOOTH"
);
},
{
closed = 1;
nodes = (
"469 0 LINE",
"618 0 LINE",
"1182 718 LINE",
"1179 722 LINE",
"1030 722 LINE",
"466 4 LINE"
);
},
{
closed = 1;
nodes = (
"258 356 OFFCURVE",
"179 402 OFFCURVE",
"179 494 CURVE SMOOTH",
"179 586 OFFCURVE",
"258 632 OFFCURVE",
"378 632 CURVE SMOOTH",
"498 632 OFFCURVE",
"576 586 OFFCURVE",
"576 494 CURVE SMOOTH",
"576 402 OFFCURVE",
"498 356 OFFCURVE",
"378 356 CURVE SMOOTH"
);
},
{
closed = 1;
nodes = (
"1478 -12 OFFCURVE",
"1607 79 OFFCURVE",
"1607 234 CURVE SMOOTH",
"1607 390 OFFCURVE",
"1478 480 OFFCURVE",
"1279 480 CURVE SMOOTH",
"1079 480 OFFCURVE",
"951 390 OFFCURVE",
"951 234 CURVE SMOOTH",
"951 79 OFFCURVE",
"1079 -12 OFFCURVE",
"1279 -12 CURVE SMOOTH"
);
},
{
closed = 1;
nodes = (
"1159 96 OFFCURVE",
"1080 142 OFFCURVE",
"1080 234 CURVE SMOOTH",
"1080 326 OFFCURVE",
"1159 372 OFFCURVE",
"1279 372 CURVE SMOOTH",
"1399 372 OFFCURVE",
"1477 326 OFFCURVE",
"1477 234 CURVE SMOOTH",
"1477 142 OFFCURVE",
"1399 96 OFFCURVE",
"1279 96 CURVE SMOOTH"
);
}
);
width = 1657;
}
);
unicode = 0025;
},
{
glyphname = upArrow;
lastChange = "2019-03-07 01:28:37 +0000";
layers = (
{
layerId = "E5E720F2-D3D9-49CA-89B4-644343A24549";
paths = (
{
closed = 1;
nodes = (
"766 185 LINE",
"770 188 LINE",
"770 382 LINE",
"410 742 LINE",
"50 382 LINE",
"50 188 LINE",
"54 185 LINE",
"325 454 LINE",
"325 0 LINE",
"495 0 LINE",
"495 454 LINE"
);
}
);
width = 820;
},
{
layerId = "02A3FD94-E825-4850-93A1-2C4DF2FA59C6";
paths = (
{
closed = 1;
nodes = (
"766 185 LINE",
"770 188 LINE",
"770 382 LINE",
"410 742 LINE",
"50 382 LINE",
"50 188 LINE",
"54 185 LINE",
"325 454 LINE",
"325 0 LINE",
"495 0 LINE",
"495 454 LINE"
);
}
);
width = 820;
}
);
note = upArrow;
unicode = 2191;
},
{
glyphname = northEastArrow;
lastChange = "2019-03-07 01:29:22 +0000";
layers = (
{
layerId = "E5E720F2-D3D9-49CA-89B4-644343A24549";
paths = (
{
closed = 1;
nodes = (
"573 59 LINE",
"724 59 LINE",
"724 573 LINE",
"201 573 LINE",
"201 431 LINE",
"453 431 LINE",
"25 4 LINE",
"28 0 LINE",
"245 0 LINE",
"573 328 LINE"
);
}
);
width = 774;
},
{
layerId = "02A3FD94-E825-4850-93A1-2C4DF2FA59C6";
paths = (
{
closed = 1;
nodes = (
"573 59 LINE",
"724 59 LINE",
"724 573 LINE",
"201 573 LINE",
"201 431 LINE",
"453 431 LINE",
"25 4 LINE",
"28 0 LINE",
"245 0 LINE",
"573 328 LINE"
);
}
);
width = 774;
}
);
note = northEastArrow;
unicode = 2197;
},
{
glyphname = rightArrow;
lastChange = "2019-03-07 01:29:52 +0000";
layers = (
{
layerId = "E5E720F2-D3D9-49CA-89B4-644343A24549";
paths = (
{
closed = 1;
nodes = (
"1133 0 LINE",
"1418 286 LINE",
"1133 572 LINE",
"941 572 LINE",
"938 568 LINE",
"1150 359 LINE",
"50 359 LINE",
"50 215 LINE",
"1152 215 LINE",
"938 4 LINE",
"941 0 LINE"
);
}
);
width = 1443;
},
{
layerId = "02A3FD94-E825-4850-93A1-2C4DF2FA59C6";
paths = (
{
closed = 1;
nodes = (
"1133 0 LINE",
"1418 286 LINE",
"1133 572 LINE",
"941 572 LINE",
"938 568 LINE",
"1150 359 LINE",
"50 359 LINE",
"50 215 LINE",
"1152 215 LINE",
"938 4 LINE",
"941 0 LINE"
);
}
);
width = 1443;
}
);
note = rightArrow;
unicode = 2192;
},
